{"glyphs":{"0":{"ha":334,"x_min":37,"x_max":244,"o":"m 244 92 l 37 92 l 37 298 l 244 298 l 244 92 z "},"1":{"ha":285,"x_min":98,"x_max":243,"o":"m 98 908 l 243 908 l 243 -11 l 98 -11 l 98 908 z "},"2":{"ha":783,"x_min":112,"x_max":751,"o":"m 751 764 l 351 764 q 286 738 313 764 q 265 707 273 724 q 257 671 257 689 l 257 -9 l 112 -9 l 112 671 q 117 715 112 693 q 130 755 121 737 q 181 828 147 796 q 258 877 215 859 q 351 895 302 895 l 751 895 l 751 764 z "},"3":{"ha":939,"x_min":94,"x_max":903,"o":"m 499 492 q 426 446 471 466 q 381 433 406 439 q 332 428 356 428 q 232 466 281 428 l 231 393 l 231 -7 l 94 -11 l 94 895 l 239 895 l 239 651 q 247 615 239 632 q 266 588 255 599 q 332 559 294 559 q 366 566 348 559 q 397 586 383 573 q 426 651 426 612 l 426 895 l 570 895 l 570 651 q 578 614 570 634 q 600 586 586 597 q 664 559 627 559 q 699 566 680 559 q 731 587 717 573 q 758 651 758 613 l 758 895 l 903 895 l 903 651 q 899 612 903 629 q 894 587 896 594 q 884 567 892 581 q 835 497 868 526 q 759 447 802 467 q 664 428 713 428 q 573 445 612 428 q 499 492 534 462 z "},"4":{"ha":881,"x_min":94,"x_max":849,"o":"m 231 416 l 231 -11 l 94 -11 l 94 895 l 239 895 l 239 547 l 357 547 l 351 562 q 334 648 334 604 q 349 733 334 696 q 397 806 365 771 q 402 812 397 808 q 416 825 404 814 q 473 860 437 844 q 495 870 488 867 q 522 876 503 872 q 565 880 541 880 l 849 880 l 849 749 l 565 749 q 508 722 534 749 q 488 688 496 709 q 480 648 480 668 q 509 574 480 605 q 530 556 515 567 l 529 555 q 564 547 541 547 l 848 547 l 848 416 l 231 416 z "},"5":{"ha":885,"x_min":99,"x_max":842,"o":"m 245 718 q 222 654 222 692 l 222 227 q 243 166 222 191 q 292 142 264 142 l 643 142 q 668 147 657 142 q 690 163 680 153 q 699 175 695 170 q 707 192 700 178 q 713 227 713 209 l 713 654 q 692 716 713 692 q 643 740 671 740 l 292 740 q 267 735 279 740 q 245 718 256 730 m 154 77 q 131 110 140 92 q 113 146 121 127 q 99 226 99 185 l 99 663 q 102 704 99 686 q 113 744 104 721 q 153 810 127 781 q 216 857 178 838 q 293 876 254 876 l 648 876 q 724 858 688 876 q 785 813 760 842 q 826 744 811 784 q 842 663 842 705 l 842 226 q 841 206 842 216 q 839 186 840 195 q 834 167 837 178 q 827 146 831 156 q 787 79 814 109 q 725 31 762 50 q 648 13 688 13 l 293 13 q 218 30 251 13 q 182 50 198 39 q 170 62 177 55 q 154 77 162 68 z "},"6":{"ha":796,"x_min":113,"x_max":752,"o":"m 113 895 l 513 895 q 606 877 562 895 q 683 828 649 859 q 734 756 717 796 q 752 671 752 715 l 752 -9 l 607 -9 l 607 671 q 599 707 607 689 q 578 738 591 724 q 513 764 551 764 l 113 764 l 113 895 z "},"7":{"ha":783,"x_min":85,"x_max":733,"o":"m 229 892 l 229 220 q 258 146 229 177 q 285 126 270 133 q 315 120 300 120 l 503 120 q 559 146 536 120 q 582 180 574 161 q 589 220 589 199 l 589 895 l 733 895 l 733 220 q 715 134 733 178 q 668 58 698 90 q 595 7 637 26 q 503 -12 552 -12 l 315 -12 q 267 -6 291 -12 q 222 7 243 -1 q 149 59 180 26 q 100 134 118 92 q 88 176 92 156 q 85 220 85 196 l 85 892 l 229 892 z "},"8":{"ha":787,"x_min":98,"x_max":747,"o":"m 98 -9 l 98 663 q 114 748 98 709 q 135 787 123 770 q 162 823 146 804 q 237 876 194 857 q 328 895 280 895 l 517 895 q 608 875 566 895 q 682 823 651 857 q 729 749 711 793 q 747 663 747 705 l 747 -12 l 602 -12 l 602 663 q 594 705 602 685 q 573 737 588 722 q 517 763 549 763 l 328 763 q 299 756 314 763 q 272 737 283 750 q 243 663 243 706 l 243 -9 l 98 -9 z "},"9":{"ha":836,"x_min":96,"x_max":786,"o":"m 269 739 q 240 673 240 712 l 240 498 q 248 461 240 479 q 269 432 256 444 q 334 406 296 406 l 547 406 q 583 413 566 406 q 612 432 600 419 q 642 498 642 459 l 642 673 q 614 738 642 711 q 547 765 586 765 l 334 765 q 299 759 316 765 q 269 739 282 752 m 547 275 l 334 275 q 241 292 284 275 q 165 341 199 310 q 113 413 131 372 q 96 498 96 454 l 96 673 q 113 758 96 718 q 163 829 130 798 q 241 878 197 860 q 334 897 285 897 l 547 897 q 640 879 597 897 q 717 830 684 861 q 768 758 751 798 q 786 673 786 718 l 786 -12 l 642 -12 l 642 291 q 611 282 640 290 q 547 275 581 275 z "}," ":{"ha":339,"x_min":0,"x_max":0,"o":""},"!":{"ha":329,"x_min":52,"x_max":296,"o":"m 274 811 l 273 544 l 245 311 l 108 311 l 81 544 l 81 811 l 274 811 m 296 82 q 263 4 296 39 q 222 -18 245 -9 q 174 -27 200 -27 q 83 3 122 -27 q 52 82 52 32 q 85 156 52 127 q 174 184 118 184 q 222 177 201 184 q 262 157 244 171 q 288 124 280 142 q 296 82 296 106 z "},"%":{"ha":664,"x_min":-10,"x_max":439,"o":"m 174 690 l 5 690 l 5 855 l 174 855 l 174 690 m 439 855 l 99 -3 l -10 -3 l 329 855 l 439 855 m 424 -15 l 255 -15 l 255 150 l 424 150 l 424 -15 z "},"(":{"ha":436,"x_min":33,"x_max":437,"o":"m 437 -312 l 283 -312 q 95 34 157 -125 q 33 377 33 193 q 39 504 33 448 q 60 614 45 559 q 94 718 75 669 q 139 816 112 766 q 286 1057 186 909 l 437 1057 l 365 913 l 315 808 q 253 618 278 720 q 235 515 241 565 q 229 410 229 465 q 235 265 229 332 q 251 141 240 198 q 276 38 262 85 q 309 -55 290 -9 q 437 -312 348 -144 z "},")":{"ha":436,"x_min":1,"x_max":406,"o":"m 406 377 q 391 201 406 284 q 346 36 376 117 q 271 -127 316 -46 q 153 -312 223 -214 l 1 -312 q 125 -59 84 -157 q 161 35 145 -15 q 187 140 176 84 q 204 260 196 191 q 207 329 204 279 q 210 410 210 379 q 204 518 210 468 q 185 619 199 568 q 159 711 172 669 q 121 808 144 758 q 1 1057 79 905 l 153 1057 q 229 936 195 991 q 292 823 262 880 q 376 612 347 716 q 406 377 406 509 z "},"*":{"ha":878,"x_min":92,"x_max":821,"o":"m 821 597 l 770 724 l 541 664 l 541 856 l 374 856 l 376 667 l 146 726 l 92 600 l 326 539 l 182 384 l 315 308 l 456 460 l 599 308 l 735 384 l 591 539 l 821 597 z "},"+":{"ha":772,"x_min":26,"x_max":749,"o":"m 749 111 l 484 111 l 484 -155 l 292 -155 l 292 111 l 26 111 l 26 288 l 292 288 l 292 555 l 484 555 l 484 288 l 749 288 l 749 111 z "},",":{"ha":376,"x_min":72,"x_max":315,"o":"m 72 267 q 104 342 72 311 q 194 370 137 370 q 243 363 221 370 q 284 342 265 357 q 315 267 315 314 l 315 227 q 308 139 315 178 q 283 67 300 100 q 225 17 265 35 q 109 0 186 0 l 109 110 q 171 125 160 115 q 181 157 181 136 q 142 167 166 157 q 99 195 117 176 q 72 267 72 221 z "},"-":{"ha":685,"x_min":8,"x_max":663,"o":"m 663 111 l 8 111 l 8 290 l 663 290 l 663 111 z "},".":{"ha":370,"x_min":72,"x_max":314,"o":"m 314 68 q 280 -7 314 24 q 192 -39 245 -39 q 107 -10 142 -39 q 72 68 72 19 q 79 108 72 90 q 103 140 85 125 q 192 170 139 170 q 280 143 246 170 q 314 68 314 116 z "},"/":{"ha":637,"x_min":1,"x_max":615,"o":"m 615 585 l 204 -165 l 1 -165 l 413 585 l 615 585 z "},"٠":{"ha":334,"x_min":37,"x_max":244,"o":"m 244 92 l 37 92 l 37 298 l 244 298 l 244 92 z "},"۰":{"ha":334,"x_min":37,"x_max":244,"o":"m 244 92 l 37 92 l 37 298 l 244 298 l 244 92 z "},"١":{"ha":285,"x_min":98,"x_max":243,"o":"m 98 908 l 243 908 l 243 -11 l 98 -11 l 98 908 z "},"۱":{"ha":285,"x_min":98,"x_max":243,"o":"m 98 908 l 243 908 l 243 -11 l 98 -11 l 98 908 z "},"٢":{"ha":783,"x_min":112,"x_max":751,"o":"m 751 764 l 351 764 q 286 738 313 764 q 265 707 273 724 q 257 671 257 689 l 257 -9 l 112 -9 l 112 671 q 117 715 112 693 q 130 755 121 737 q 181 828 147 796 q 258 877 215 859 q 351 895 302 895 l 751 895 l 751 764 z "},"۲":{"ha":783,"x_min":112,"x_max":751,"o":"m 751 764 l 351 764 q 286 738 313 764 q 265 707 273 724 q 257 671 257 689 l 257 -9 l 112 -9 l 112 671 q 117 715 112 693 q 130 755 121 737 q 181 828 147 796 q 258 877 215 859 q 351 895 302 895 l 751 895 l 751 764 z "},"٣":{"ha":939,"x_min":94,"x_max":903,"o":"m 499 492 q 426 446 471 466 q 381 433 406 439 q 332 428 356 428 q 232 466 281 428 l 231 393 l 231 -7 l 94 -11 l 94 895 l 239 895 l 239 651 q 247 615 239 632 q 266 588 255 599 q 332 559 294 559 q 366 566 348 559 q 397 586 383 573 q 426 651 426 612 l 426 895 l 570 895 l 570 651 q 578 614 570 634 q 600 586 586 597 q 664 559 627 559 q 699 566 680 559 q 731 587 717 573 q 758 651 758 613 l 758 895 l 903 895 l 903 651 q 899 612 903 629 q 894 587 896 594 q 884 567 892 581 q 835 497 868 526 q 759 447 802 467 q 664 428 713 428 q 573 445 612 428 q 499 492 534 462 z "},"۳":{"ha":939,"x_min":94,"x_max":903,"o":"m 499 492 q 426 446 471 466 q 381 433 406 439 q 332 428 356 428 q 232 466 281 428 l 231 393 l 231 -7 l 94 -11 l 94 895 l 239 895 l 239 651 q 247 615 239 632 q 266 588 255 599 q 332 559 294 559 q 366 566 348 559 q 397 586 383 573 q 426 651 426 612 l 426 895 l 570 895 l 570 651 q 578 614 570 634 q 600 586 586 597 q 664 559 627 559 q 699 566 680 559 q 731 587 717 573 q 758 651 758 613 l 758 895 l 903 895 l 903 651 q 899 612 903 629 q 894 587 896 594 q 884 567 892 581 q 835 497 868 526 q 759 447 802 467 q 664 428 713 428 q 573 445 612 428 q 499 492 534 462 z "},"٤":{"ha":881,"x_min":94,"x_max":849,"o":"m 231 416 l 231 -11 l 94 -11 l 94 895 l 239 895 l 239 547 l 357 547 l 351 562 q 334 648 334 604 q 349 733 334 696 q 397 806 365 771 q 402 812 397 808 q 416 825 404 814 q 473 860 437 844 q 495 870 488 867 q 522 876 503 872 q 565 880 541 880 l 849 880 l 849 749 l 565 749 q 508 722 534 749 q 488 688 496 709 q 480 648 480 668 q 509 574 480 605 q 530 556 515 567 l 529 555 q 564 547 541 547 l 848 547 l 848 416 l 231 416 z "},"۴":{"ha":881,"x_min":94,"x_max":849,"o":"m 231 416 l 231 -11 l 94 -11 l 94 895 l 239 895 l 239 547 l 357 547 l 351 562 q 334 648 334 604 q 349 733 334 696 q 397 806 365 771 q 402 812 397 808 q 416 825 404 814 q 473 860 437 844 q 495 870 488 867 q 522 876 503 872 q 565 880 541 880 l 849 880 l 849 749 l 565 749 q 508 722 534 749 q 488 688 496 709 q 480 648 480 668 q 509 574 480 605 q 530 556 515 567 l 529 555 q 564 547 541 547 l 848 547 l 848 416 l 231 416 z "},"٥":{"ha":885,"x_min":99,"x_max":842,"o":"m 245 718 q 222 654 222 692 l 222 227 q 243 166 222 191 q 292 142 264 142 l 643 142 q 668 147 657 142 q 690 163 680 153 q 699 175 695 170 q 707 192 700 178 q 713 227 713 209 l 713 654 q 692 716 713 692 q 643 740 671 740 l 292 740 q 267 735 279 740 q 245 718 256 730 m 154 77 q 131 110 140 92 q 113 146 121 127 q 99 226 99 185 l 99 663 q 102 704 99 686 q 113 744 104 721 q 153 810 127 781 q 216 857 178 838 q 293 876 254 876 l 648 876 q 724 858 688 876 q 785 813 760 842 q 826 744 811 784 q 842 663 842 705 l 842 226 q 841 206 842 216 q 839 186 840 195 q 834 167 837 178 q 827 146 831 156 q 787 79 814 109 q 725 31 762 50 q 648 13 688 13 l 293 13 q 218 30 251 13 q 182 50 198 39 q 170 62 177 55 q 154 77 162 68 z "},"۵":{"ha":885,"x_min":99,"x_max":842,"o":"m 245 718 q 222 654 222 692 l 222 227 q 243 166 222 191 q 292 142 264 142 l 643 142 q 668 147 657 142 q 690 163 680 153 q 699 175 695 170 q 707 192 700 178 q 713 227 713 209 l 713 654 q 692 716 713 692 q 643 740 671 740 l 292 740 q 267 735 279 740 q 245 718 256 730 m 154 77 q 131 110 140 92 q 113 146 121 127 q 99 226 99 185 l 99 663 q 102 704 99 686 q 113 744 104 721 q 153 810 127 781 q 216 857 178 838 q 293 876 254 876 l 648 876 q 724 858 688 876 q 785 813 760 842 q 826 744 811 784 q 842 663 842 705 l 842 226 q 841 206 842 216 q 839 186 840 195 q 834 167 837 178 q 827 146 831 156 q 787 79 814 109 q 725 31 762 50 q 648 13 688 13 l 293 13 q 218 30 251 13 q 182 50 198 39 q 170 62 177 55 q 154 77 162 68 z "},"٦":{"ha":796,"x_min":113,"x_max":752,"o":"m 113 895 l 513 895 q 606 877 562 895 q 683 828 649 859 q 734 756 717 796 q 752 671 752 715 l 752 -9 l 607 -9 l 607 671 q 599 707 607 689 q 578 738 591 724 q 513 764 551 764 l 113 764 l 113 895 z "},"۶":{"ha":796,"x_min":113,"x_max":752,"o":"m 113 895 l 513 895 q 606 877 562 895 q 683 828 649 859 q 734 756 717 796 q 752 671 752 715 l 752 -9 l 607 -9 l 607 671 q 599 707 607 689 q 578 738 591 724 q 513 764 551 764 l 113 764 l 113 895 z "},"٧":{"ha":783,"x_min":85,"x_max":733,"o":"m 229 892 l 229 220 q 258 146 229 177 q 285 126 270 133 q 315 120 300 120 l 503 120 q 559 146 536 120 q 582 180 574 161 q 589 220 589 199 l 589 895 l 733 895 l 733 220 q 715 134 733 178 q 668 58 698 90 q 595 7 637 26 q 503 -12 552 -12 l 315 -12 q 267 -6 291 -12 q 222 7 243 -1 q 149 59 180 26 q 100 134 118 92 q 88 176 92 156 q 85 220 85 196 l 85 892 l 229 892 z "},"۷":{"ha":783,"x_min":85,"x_max":733,"o":"m 229 892 l 229 220 q 258 146 229 177 q 285 126 270 133 q 315 120 300 120 l 503 120 q 559 146 536 120 q 582 180 574 161 q 589 220 589 199 l 589 895 l 733 895 l 733 220 q 715 134 733 178 q 668 58 698 90 q 595 7 637 26 q 503 -12 552 -12 l 315 -12 q 267 -6 291 -12 q 222 7 243 -1 q 149 59 180 26 q 100 134 118 92 q 88 176 92 156 q 85 220 85 196 l 85 892 l 229 892 z "},"٨":{"ha":787,"x_min":98,"x_max":747,"o":"m 98 -9 l 98 663 q 114 748 98 709 q 135 787 123 770 q 162 823 146 804 q 237 876 194 857 q 328 895 280 895 l 517 895 q 608 875 566 895 q 682 823 651 857 q 729 749 711 793 q 747 663 747 705 l 747 -12 l 602 -12 l 602 663 q 594 705 602 685 q 573 737 588 722 q 517 763 549 763 l 328 763 q 299 756 314 763 q 272 737 283 750 q 243 663 243 706 l 243 -9 l 98 -9 z "},"۸":{"ha":787,"x_min":98,"x_max":747,"o":"m 98 -9 l 98 663 q 114 748 98 709 q 135 787 123 770 q 162 823 146 804 q 237 876 194 857 q 328 895 280 895 l 517 895 q 608 875 566 895 q 682 823 651 857 q 729 749 711 793 q 747 663 747 705 l 747 -12 l 602 -12 l 602 663 q 594 705 602 685 q 573 737 588 722 q 517 763 549 763 l 328 763 q 299 756 314 763 q 272 737 283 750 q 243 663 243 706 l 243 -9 l 98 -9 z "},"٩":{"ha":836,"x_min":96,"x_max":786,"o":"m 269 739 q 240 673 240 712 l 240 498 q 248 461 240 479 q 269 432 256 444 q 334 406 296 406 l 547 406 q 583 413 566 406 q 612 432 600 419 q 642 498 642 459 l 642 673 q 614 738 642 711 q 547 765 586 765 l 334 765 q 299 759 316 765 q 269 739 282 752 m 547 275 l 334 275 q 241 292 284 275 q 165 341 199 310 q 113 413 131 372 q 96 498 96 454 l 96 673 q 113 758 96 718 q 163 829 130 798 q 241 878 197 860 q 334 897 285 897 l 547 897 q 640 879 597 897 q 717 830 684 861 q 768 758 751 798 q 786 673 786 718 l 786 -12 l 642 -12 l 642 291 q 611 282 640 290 q 547 275 581 275 z "},"۹":{"ha":836,"x_min":96,"x_max":786,"o":"m 269 739 q 240 673 240 712 l 240 498 q 248 461 240 479 q 269 432 256 444 q 334 406 296 406 l 547 406 q 583 413 566 406 q 612 432 600 419 q 642 498 642 459 l 642 673 q 614 738 642 711 q 547 765 586 765 l 334 765 q 299 759 316 765 q 269 739 282 752 m 547 275 l 334 275 q 241 292 284 275 q 165 341 199 310 q 113 413 131 372 q 96 498 96 454 l 96 673 q 113 758 96 718 q 163 829 130 798 q 241 878 197 860 q 334 897 285 897 l 547 897 q 640 879 597 897 q 717 830 684 861 q 768 758 751 798 q 786 673 786 718 l 786 -12 l 642 -12 l 642 291 q 611 282 640 290 q 547 275 581 275 z "},":":{"ha":363,"x_min":62,"x_max":306,"o":"m 304 310 q 271 233 304 264 q 231 211 253 219 q 183 202 210 202 q 94 232 130 202 q 62 310 62 260 q 95 384 62 355 q 183 412 127 412 q 232 405 210 412 q 271 383 255 399 q 304 310 304 361 m 306 68 q 271 -7 306 24 q 183 -39 237 -39 q 99 -10 134 -39 q 64 68 64 19 q 71 108 64 90 q 95 140 77 125 q 183 170 130 170 q 272 143 237 170 q 306 68 306 116 z "},"=":{"ha":701,"x_min":24,"x_max":682,"o":"m 682 189 l 24 189 l 24 366 l 682 366 l 682 189 m 682 -27 l 24 -27 l 24 152 l 682 152 l 682 -27 z "},"[":{"ha":509,"x_min":119,"x_max":390,"o":"m 390 -146 l 119 -146 l 119 1197 l 390 1197 l 390 1075 l 254 1075 l 254 -24 l 390 -24 l 390 -146 z "},"]":{"ha":509,"x_min":115,"x_max":386,"o":"m 386 -146 l 115 -146 l 115 -24 l 250 -24 l 250 1075 l 115 1075 l 115 1197 l 386 1197 l 386 -146 z "},"{":{"ha":665,"x_min":178,"x_max":581,"o":"m 581 -229 q 380 -134 450 -207 q 309 45 309 -58 q 326 165 309 87 q 339 241 339 223 q 293 346 339 304 q 178 393 252 385 l 178 433 q 340 575 340 469 q 329 657 340 606 q 311 785 311 743 q 381 964 311 890 q 581 1059 450 1038 l 581 1010 q 473 964 511 1000 q 431 864 431 923 q 439 787 431 833 q 460 644 460 677 q 279 416 460 486 q 458 178 458 342 q 439 56 458 144 q 428 -35 428 1 q 581 -184 428 -149 l 581 -229 z "},"}":{"ha":665,"x_min":85,"x_max":488,"o":"m 488 395 q 326 253 326 360 q 336 171 326 218 q 355 43 355 82 q 285 -135 355 -60 q 85 -229 216 -208 l 85 -182 q 193 -135 155 -171 q 235 -35 235 -95 q 227 41 235 -3 q 206 185 206 153 q 387 413 206 342 q 208 650 208 487 q 226 772 208 688 q 238 863 238 831 q 85 1015 238 979 l 85 1059 q 286 963 216 1036 q 357 784 357 889 q 339 663 357 745 q 327 587 327 609 q 374 483 327 524 q 488 435 412 447 l 488 395 z "},"«":{"ha":579,"x_min":29,"x_max":569,"o":"m 569 77 l 473 77 l 233 359 l 473 635 l 565 635 l 406 359 l 569 77 m 360 77 l 267 77 l 29 359 l 269 635 l 361 635 l 201 359 l 360 77 z "},"»":{"ha":579,"x_min":10,"x_max":550,"o":"m 550 359 l 312 77 l 218 77 l 378 359 l 218 635 l 311 635 l 550 359 m 346 359 l 106 77 l 10 77 l 174 359 l 14 635 l 106 635 l 346 359 z "},"×":{"ha":520,"x_min":30,"x_max":491,"o":"m 491 74 l 433 18 l 261 190 l 87 16 l 30 73 l 203 248 l 31 420 l 87 477 l 260 304 l 433 478 l 490 420 l 317 248 l 491 74 z "},"÷":{"ha":642,"x_min":54,"x_max":583,"o":"m 389 524 q 370 476 389 497 q 316 454 350 454 q 262 476 283 454 q 241 524 241 497 q 262 570 241 551 q 316 590 283 590 q 369 570 349 590 q 389 524 389 550 m 583 296 l 54 296 l 54 373 l 583 373 l 583 296 m 389 146 q 370 98 389 119 q 316 77 350 77 q 262 98 283 77 q 241 146 241 119 q 261 193 241 173 q 316 214 282 214 q 389 146 389 214 z "},"‌":{"ha":25,"x_min":0,"x_max":0,"o":""},"‍":{"ha":25,"x_min":0,"x_max":0,"o":""},"‎":{"ha":25,"x_min":-17,"x_max":186,"o":"m 186 885 l 94 791 l 54 825 l 94 864 l 42 864 l 42 -10 l -17 -10 l -17 908 l 90 908 l 54 943 l 94 979 l 186 885 z "},"‏":{"ha":25,"x_min":-161,"x_max":43,"o":"m 43 -10 l -16 -10 l -16 864 l -66 864 l -29 825 l -64 790 l -161 885 l -63 980 l -29 943 l -64 908 l 43 908 l 43 -10 z "},"‘":{"ha":333,"x_min":68,"x_max":334,"o":"m 334 1004 q 227 906 269 962 q 178 779 178 840 q 183 735 178 743 q 243 754 199 754 q 330 676 330 754 q 292 607 330 633 q 210 583 258 583 q 106 622 144 583 q 68 718 68 660 q 143 913 68 814 q 334 1067 210 1001 l 334 1004 z "},"’":{"ha":333,"x_min":54,"x_max":318,"o":"m 318 918 q 243 724 318 819 q 54 568 180 642 l 54 633 q 209 859 209 743 q 205 903 209 899 q 139 884 192 884 q 79 906 102 884 q 56 960 56 929 q 93 1029 56 1002 q 176 1054 129 1054 q 281 1016 244 1054 q 318 918 318 979 z "},"“":{"ha":441,"x_min":31,"x_max":412,"o":"m 412 776 q 374 754 390 766 q 342 702 342 722 q 397 619 397 687 q 371 559 397 584 q 307 534 344 534 q 239 564 265 534 q 214 635 214 592 q 385 908 214 774 q 386 816 385 819 q 412 776 389 791 m 229 776 q 191 754 207 766 q 159 702 159 722 q 214 619 214 687 q 188 559 214 584 q 124 534 161 534 q 56 564 82 534 q 31 635 31 592 q 202 908 31 774 q 203 816 202 819 q 229 776 205 791 z "},"”":{"ha":441,"x_min":28,"x_max":410,"o":"m 410 781 q 239 507 410 642 q 238 600 239 596 q 212 639 235 624 q 250 661 233 650 q 282 713 282 693 q 227 796 227 728 q 252 857 227 831 q 317 882 279 882 q 385 852 358 882 q 410 781 410 823 m 227 781 q 56 507 227 642 q 55 600 56 596 q 28 639 52 624 q 66 661 50 650 q 99 713 99 693 q 43 796 43 728 q 69 857 43 831 q 134 882 96 882 q 202 852 175 882 q 227 781 227 823 z "},"‹":{"ha":604,"x_min":12,"x_max":584,"o":"m 584 -174 l 12 159 l 12 295 l 584 631 l 584 422 l 248 227 l 584 33 l 584 -174 z "},"›":{"ha":604,"x_min":19,"x_max":591,"o":"m 591 159 l 19 -174 l 19 33 l 355 227 l 19 422 l 19 631 l 591 295 l 591 159 z "},"،":{"ha":283,"x_min":89,"x_max":298,"o":"m 298 70 q 277 22 298 46 q 199 -12 248 -12 q 114 28 143 -12 q 89 108 89 60 q 191 280 89 227 q 231 290 208 290 q 268 271 268 292 q 244 248 263 264 q 191 149 191 200 q 215 150 193 150 q 298 70 298 150 z "},"؛":{"ha":578,"x_min":182,"x_max":410,"o":"m 410 252 q 387 195 410 222 q 317 169 363 169 q 223 221 264 169 q 182 339 182 274 q 220 456 182 406 q 289 517 246 494 l 385 545 q 286 455 306 491 q 270 380 270 417 q 282 324 270 345 l 287 328 q 321 336 304 335 q 386 310 362 336 q 410 252 410 284 m 382 50 q 361 3 382 24 q 307 -18 340 -18 q 255 4 276 -18 q 235 50 235 26 q 256 96 235 74 q 307 117 277 117 q 361 95 339 117 q 382 50 382 76 z "},"؟":{"ha":562,"x_min":-9,"x_max":450,"o":"m 450 535 l 273 535 l 273 645 q 270 669 273 658 q 263 689 268 680 q 221 713 248 713 q 176 690 196 713 q 168 645 168 677 l 168 502 q 170 480 168 483 q 197 441 170 466 l 290 358 l 308 340 l 318 324 q 327 284 327 298 l 327 210 l 149 210 l 149 243 l 150 253 l 150 260 l 149 270 q 142 281 148 275 l 139 290 q 134 298 138 296 l 117 317 l 30 410 q 5 439 16 425 l -5 463 l -7 492 l -9 524 l -9 732 q -2 763 -9 740 l 3 776 l 10 792 l 18 805 q 131 854 53 854 l 287 854 q 400 830 349 854 q 450 735 450 804 l 450 535 m 165 145 l 310 145 l 310 14 l 165 14 l 165 145 z "},"ـ":{"ha":409,"x_min":-15,"x_max":427,"o":"m 427 -13 l -15 -13 l -15 119 l 427 119 l 427 -13 z "},"ً":{"ha":0,"x_min":52,"x_max":290,"o":"m 290 1352 l 52 1254 l 52 1332 l 290 1426 l 290 1352 m 290 1478 l 52 1379 l 52 1457 l 290 1551 l 290 1478 z "},"ٌ":{"ha":0,"x_min":12,"x_max":311,"o":"m 311 1424 q 263 1341 311 1394 q 298 1341 246 1358 l 264 1284 q 201 1302 215 1293 q 73 1263 135 1263 q 12 1329 42 1263 q 59 1329 58 1329 q 68 1356 68 1340 q 67 1363 68 1363 q 26 1324 62 1363 l 12 1389 q 79 1426 44 1426 q 106 1419 94 1426 q 138 1370 138 1405 q 133 1337 138 1345 q 155 1346 144 1338 q 133 1396 133 1381 q 180 1464 133 1430 q 245 1493 220 1493 q 311 1424 311 1493 m 229 1417 q 224 1427 229 1427 q 213 1409 213 1427 q 221 1383 213 1390 q 229 1417 229 1388 z "},"ٍ":{"ha":0,"x_min":87,"x_max":326,"o":"m 326 -557 l 87 -654 l 87 -576 l 326 -482 l 326 -557 m 326 -431 l 87 -529 l 87 -451 l 326 -357 l 326 -431 z "},"َ":{"ha":0,"x_min":52,"x_max":290,"o":"m 290 1352 l 52 1254 l 52 1332 l 290 1426 l 290 1352 z "},"ُ":{"ha":0,"x_min":9,"x_max":307,"o":"m 307 1424 q 263 1345 307 1396 q 294 1341 283 1345 l 260 1284 q 197 1302 210 1293 q 69 1263 128 1263 q 9 1329 36 1263 q 106 1333 87 1331 q 151 1346 140 1337 q 130 1397 130 1383 q 176 1464 130 1430 q 241 1494 216 1494 q 294 1468 273 1494 q 307 1424 307 1449 m 224 1417 q 221 1427 224 1427 q 208 1410 208 1427 q 217 1383 208 1390 q 224 1417 224 1388 z "},"ِ":{"ha":0,"x_min":86,"x_max":326,"o":"m 326 -504 l 86 -602 l 86 -524 l 326 -429 l 326 -504 z "},"ّ":{"ha":0,"x_min":12,"x_max":311,"o":"m 311 1360 q 290 1298 311 1324 q 219 1265 262 1265 q 161 1286 172 1265 q 90 1263 142 1263 q 33 1291 55 1263 q 12 1345 12 1318 q 23 1389 12 1365 q 68 1426 39 1426 q 94 1403 94 1426 q 92 1386 94 1397 q 91 1369 91 1375 q 102 1348 91 1348 q 125 1362 118 1348 q 136 1405 128 1369 q 167 1428 141 1428 q 196 1404 194 1428 q 219 1345 202 1345 q 233 1367 233 1345 q 227 1401 233 1380 l 284 1449 q 311 1360 311 1404 z "},"ْ":{"ha":0,"x_min":72,"x_max":265,"o":"m 265 1358 q 163 1265 265 1265 q 72 1338 72 1265 q 93 1418 72 1367 q 156 1484 121 1484 q 242 1440 212 1484 q 265 1358 265 1407 m 208 1352 q 156 1398 208 1398 q 152 1383 159 1398 q 144 1352 144 1364 q 168 1337 144 1337 q 208 1352 208 1337 z "},"":{"ha":0,"x_min":66,"x_max":305,"o":"m 305 1040 l 66 942 l 66 1020 l 305 1114 l 305 1040 z "},"":{"ha":0,"x_min":25,"x_max":323,"o":"m 323 1141 q 279 1061 323 1112 q 310 1058 299 1061 l 277 1000 q 213 1019 226 1010 q 85 980 144 980 q 25 1046 52 980 q 122 1050 103 1047 q 167 1063 156 1054 q 146 1114 146 1099 q 192 1181 146 1147 q 257 1211 232 1211 q 310 1185 290 1211 q 323 1141 323 1165 m 241 1134 q 237 1143 241 1143 q 224 1126 224 1143 q 233 1100 224 1106 q 241 1134 241 1104 z "},"":{"ha":0,"x_min":65,"x_max":258,"o":"m 258 1063 q 156 969 258 969 q 65 1042 65 969 q 86 1122 65 1071 q 149 1188 114 1188 q 235 1145 205 1188 q 258 1063 258 1111 m 201 1057 q 149 1103 201 1103 q 145 1088 152 1103 q 137 1056 137 1068 q 161 1042 137 1042 q 201 1057 201 1042 z "},"":{"ha":0,"x_min":54,"x_max":293,"o":"m 293 1053 l 54 955 l 54 1033 l 293 1126 l 293 1053 m 293 1179 l 54 1080 l 54 1158 l 293 1252 l 293 1179 z "},"":{"ha":0,"x_min":53,"x_max":352,"o":"m 352 1137 q 304 1054 352 1107 q 340 1055 288 1071 l 306 997 q 243 1015 256 1006 q 114 977 176 977 q 53 1042 83 977 q 100 1042 99 1042 q 110 1069 110 1053 q 109 1076 110 1076 q 67 1037 104 1076 l 54 1102 q 121 1139 85 1139 q 148 1133 136 1139 q 179 1083 179 1118 q 174 1050 179 1058 q 196 1059 186 1051 q 174 1109 174 1094 q 221 1177 174 1143 q 286 1206 261 1206 q 352 1137 352 1206 m 270 1131 q 266 1140 270 1140 q 254 1122 254 1140 q 262 1096 254 1103 q 270 1131 270 1101 z "},"":{"ha":0,"x_min":15,"x_max":315,"o":"m 315 1052 q 293 989 315 1016 q 222 957 266 957 q 164 977 176 957 q 94 955 145 955 q 37 982 58 955 q 15 1037 15 1010 q 26 1080 15 1057 q 72 1117 43 1117 q 97 1095 97 1117 q 96 1077 97 1088 q 94 1060 94 1066 q 106 1040 94 1040 q 129 1054 121 1040 q 140 1097 132 1061 q 170 1119 144 1119 q 199 1095 197 1119 q 222 1036 205 1036 q 237 1059 237 1036 q 231 1093 237 1072 l 288 1140 q 315 1052 315 1096 z "},"":{"ha":0,"x_min":33,"x_max":272,"o":"m 272 -309 l 33 -407 l 33 -329 l 272 -235 l 272 -309 z "},"":{"ha":0,"x_min":24,"x_max":262,"o":"m 262 -342 l 24 -439 l 24 -361 l 262 -267 l 262 -342 m 262 -216 l 24 -314 l 24 -236 l 262 -142 l 262 -216 z "},"":{"ha":0,"x_min":24,"x_max":324,"o":"m 324 1066 q 302 1004 324 1030 q 232 971 275 971 q 174 991 185 971 q 103 969 155 969 q 46 997 68 969 q 24 1051 24 1024 q 36 1095 24 1071 q 81 1131 52 1131 q 106 1109 106 1131 q 105 1092 106 1103 q 104 1074 104 1080 q 115 1054 104 1054 q 138 1068 131 1054 q 149 1111 141 1075 q 180 1133 154 1133 q 209 1109 207 1133 q 232 1050 215 1050 q 246 1073 246 1050 q 240 1107 246 1086 l 297 1154 q 324 1066 324 1110 m 307 1284 l 68 1186 l 68 1264 l 307 1358 l 307 1284 z "},"":{"ha":0,"x_min":47,"x_max":349,"o":"m 349 1061 q 328 999 349 1025 q 257 966 301 966 q 199 987 211 966 q 128 965 181 965 q 66 1000 90 965 q 50 1046 50 1024 q 61 1090 50 1066 q 106 1126 78 1126 q 132 1104 132 1126 q 130 1087 132 1099 q 129 1070 129 1076 q 140 1050 129 1050 q 163 1064 157 1050 q 175 1107 166 1069 q 205 1128 180 1128 q 234 1105 231 1128 q 257 1046 240 1046 q 271 1069 271 1046 q 265 1103 271 1082 l 323 1149 q 349 1061 349 1107 m 345 1329 q 301 1249 345 1299 q 332 1248 326 1249 l 300 1188 q 235 1206 248 1198 q 107 1168 166 1168 q 47 1234 74 1168 q 144 1238 125 1235 q 189 1251 178 1242 q 168 1301 168 1287 q 214 1369 168 1335 q 279 1398 254 1398 q 332 1373 311 1398 q 345 1329 345 1353 m 262 1322 q 259 1332 262 1332 q 252 1327 258 1332 q 246 1314 246 1322 q 255 1288 246 1294 q 262 1322 262 1293 z "},"":{"ha":0,"x_min":2,"x_max":302,"o":"m 281 1257 l 42 1158 l 42 1236 l 281 1331 l 281 1257 m 302 1061 q 280 999 302 1025 q 210 966 253 966 q 151 987 163 966 q 81 965 134 965 q 18 1000 42 965 q 2 1046 2 1024 q 14 1090 2 1066 q 59 1126 30 1126 q 84 1104 84 1126 q 83 1087 84 1099 q 81 1070 81 1076 q 93 1050 81 1050 q 116 1064 109 1050 q 127 1107 118 1069 q 157 1128 132 1128 q 186 1105 184 1128 q 210 1046 193 1046 q 224 1069 224 1046 q 218 1103 224 1082 l 275 1149 q 302 1061 302 1107 m 281 1382 l 42 1284 l 42 1362 l 281 1455 l 281 1382 z "},"":{"ha":0,"x_min":31,"x_max":338,"o":"m 331 1105 q 309 1043 331 1069 q 239 1010 282 1010 q 180 1031 192 1010 q 110 1008 161 1008 q 53 1036 75 1008 q 31 1090 31 1063 q 43 1134 31 1110 q 88 1171 59 1171 q 113 1148 113 1171 q 112 1131 113 1142 q 111 1114 111 1120 q 122 1093 111 1093 q 145 1107 138 1093 q 156 1150 148 1114 q 186 1173 161 1173 q 216 1149 214 1173 q 239 1090 222 1090 q 253 1112 253 1090 q 247 1146 253 1125 l 304 1194 q 331 1105 331 1149 m 338 1398 q 291 1315 338 1369 q 326 1316 274 1332 l 292 1258 q 229 1276 243 1267 q 100 1238 163 1238 q 39 1303 70 1238 q 87 1303 85 1303 q 96 1330 96 1314 q 95 1337 96 1337 q 54 1298 90 1337 l 40 1363 q 107 1400 72 1400 q 134 1394 122 1400 q 165 1344 165 1379 q 161 1311 165 1319 q 182 1320 172 1312 q 161 1371 161 1355 q 208 1438 161 1404 q 273 1468 248 1468 q 338 1398 338 1468 m 256 1392 q 252 1401 256 1401 q 241 1383 241 1401 q 249 1357 241 1364 q 256 1392 256 1362 z "},"":{"ha":0,"x_min":50,"x_max":349,"o":"m 349 1235 q 328 1173 349 1199 q 257 1140 300 1140 q 199 1160 210 1140 q 128 1138 180 1138 q 71 1165 93 1138 q 50 1220 50 1193 q 61 1263 50 1240 q 106 1300 77 1300 q 132 1278 132 1300 q 130 1260 132 1272 q 129 1243 129 1249 q 140 1223 129 1223 q 163 1237 156 1223 q 174 1280 166 1244 q 205 1302 179 1302 q 234 1278 232 1302 q 257 1219 240 1219 q 271 1242 271 1219 q 265 1276 271 1255 l 322 1323 q 349 1235 349 1279 m 317 1053 l 78 956 l 78 1033 l 317 1127 l 317 1053 z "},"":{"ha":0,"x_min":-18,"x_max":281,"o":"m 281 1343 q 260 1281 281 1308 q 189 1249 233 1249 q 131 1269 142 1249 q 60 1246 112 1246 q 3 1274 25 1246 q -18 1329 -18 1301 q -6 1372 -18 1348 q 39 1409 9 1409 q 64 1386 64 1409 q 62 1369 64 1380 q 61 1352 61 1358 q 73 1331 61 1331 q 96 1345 88 1331 q 106 1388 98 1352 q 137 1411 111 1411 q 166 1387 164 1411 q 189 1328 172 1328 q 203 1350 203 1328 q 197 1384 203 1363 l 254 1432 q 281 1343 281 1388 m 249 1162 l 10 1064 l 10 1141 l 249 1236 l 249 1162 m 249 1053 l 10 956 l 10 1033 l 249 1127 l 249 1053 z "},"ﱠ":{"ha":0,"x_min":31,"x_max":331,"o":"m 331 1335 q 309 1272 331 1299 q 239 1240 282 1240 q 180 1260 192 1240 q 110 1238 161 1238 q 53 1265 75 1238 q 31 1320 31 1293 q 43 1363 31 1339 q 88 1400 59 1400 q 113 1377 113 1400 q 112 1360 113 1371 q 111 1343 111 1349 q 122 1322 111 1322 q 145 1337 138 1322 q 156 1379 148 1343 q 186 1402 161 1402 q 216 1378 214 1402 q 239 1319 222 1319 q 253 1341 253 1319 q 247 1375 253 1354 l 304 1423 q 331 1335 331 1379 m 313 1553 l 75 1455 l 75 1533 l 313 1626 l 313 1553 z "},"ﱡ":{"ha":0,"x_min":15,"x_max":317,"o":"m 317 1319 q 296 1257 317 1283 q 225 1224 269 1224 q 168 1244 179 1224 q 96 1223 149 1223 q 34 1257 58 1223 q 18 1304 18 1282 q 29 1348 18 1324 q 75 1384 46 1384 q 100 1362 100 1384 q 98 1345 100 1356 q 97 1328 97 1333 q 109 1308 97 1308 q 132 1322 125 1308 q 143 1364 134 1326 q 173 1386 148 1386 q 202 1363 199 1386 q 225 1304 208 1304 q 239 1326 239 1304 q 233 1361 239 1339 l 291 1407 q 317 1319 317 1364 m 313 1586 q 269 1507 313 1556 q 300 1506 294 1507 l 268 1446 q 203 1464 216 1455 q 75 1426 134 1426 q 15 1491 42 1426 q 112 1495 93 1493 q 157 1508 146 1499 q 136 1559 136 1545 q 182 1626 136 1592 q 247 1656 222 1656 q 300 1630 279 1656 q 313 1586 313 1611 m 231 1579 q 227 1590 231 1590 q 220 1585 226 1590 q 214 1572 214 1579 q 223 1546 214 1552 q 231 1579 231 1550 z "},"":{"ha":0,"x_min":37,"x_max":336,"o":"m 315 1501 l 77 1403 l 77 1481 l 315 1575 l 315 1501 m 336 1306 q 315 1244 336 1270 q 244 1211 288 1211 q 186 1232 198 1211 q 115 1210 168 1210 q 52 1244 77 1210 q 37 1291 37 1269 q 48 1335 37 1311 q 94 1371 64 1371 q 119 1349 119 1371 q 117 1332 119 1343 q 116 1315 116 1320 q 127 1295 116 1295 q 151 1309 143 1295 q 161 1352 153 1314 q 192 1373 166 1373 q 221 1350 218 1373 q 244 1291 227 1291 q 258 1314 258 1291 q 252 1348 258 1326 l 309 1394 q 336 1306 336 1352 m 315 1627 l 77 1529 l 77 1607 l 315 1700 l 315 1627 z "},"ﱞ":{"ha":0,"x_min":18,"x_max":326,"o":"m 318 1356 q 296 1293 318 1320 q 226 1261 269 1261 q 168 1281 179 1261 q 97 1259 149 1259 q 40 1286 62 1259 q 18 1341 18 1314 q 30 1384 18 1360 q 75 1421 46 1421 q 100 1398 100 1421 q 99 1381 100 1392 q 98 1364 98 1370 q 109 1343 98 1343 q 132 1358 125 1343 q 143 1400 135 1364 q 174 1423 148 1423 q 203 1399 201 1423 q 226 1340 209 1340 q 240 1362 240 1340 q 234 1396 240 1375 l 291 1444 q 318 1356 318 1400 m 326 1649 q 277 1565 326 1619 q 313 1566 260 1582 l 279 1508 q 215 1527 229 1517 q 87 1488 149 1488 q 26 1553 56 1488 q 73 1553 73 1553 q 83 1580 83 1565 q 82 1588 83 1588 q 41 1548 77 1588 l 27 1613 q 94 1650 59 1650 q 121 1644 108 1650 q 153 1594 153 1630 q 147 1561 153 1569 q 169 1570 159 1563 q 148 1621 148 1605 q 193 1689 148 1655 q 260 1718 234 1718 q 326 1649 326 1718 m 243 1642 q 239 1651 243 1651 q 228 1634 228 1651 q 236 1607 228 1614 q 243 1642 243 1612 z "},"ﱢ":{"ha":0,"x_min":31,"x_max":331,"o":"m 331 1474 q 309 1411 331 1438 q 239 1379 282 1379 q 180 1399 192 1379 q 110 1377 161 1377 q 53 1404 75 1377 q 31 1459 31 1432 q 43 1502 31 1478 q 88 1539 59 1539 q 113 1516 113 1539 q 112 1499 113 1510 q 111 1482 111 1488 q 122 1461 111 1461 q 145 1476 138 1461 q 156 1518 148 1482 q 186 1541 161 1541 q 216 1517 214 1541 q 239 1458 222 1458 q 253 1480 253 1458 q 247 1514 253 1493 l 304 1562 q 331 1474 331 1518 m 298 1292 l 60 1194 l 60 1272 l 298 1366 l 298 1292 z "},"ﱟ":{"ha":0,"x_min":31,"x_max":330,"o":"m 330 1601 q 309 1539 330 1565 q 238 1506 281 1506 q 180 1527 191 1506 q 109 1504 161 1504 q 52 1532 74 1504 q 31 1586 31 1559 q 43 1630 31 1606 q 87 1666 58 1666 q 113 1644 113 1666 q 111 1627 113 1638 q 110 1609 110 1615 q 121 1589 110 1589 q 144 1603 137 1589 q 155 1646 147 1610 q 186 1668 160 1668 q 215 1645 213 1668 q 238 1586 221 1586 q 252 1608 252 1586 q 246 1642 252 1621 l 303 1689 q 330 1601 330 1645 m 298 1419 l 59 1322 l 59 1399 l 298 1493 l 298 1419 m 298 1311 l 59 1213 l 59 1291 l 298 1385 l 298 1311 z "},"ء":{"ha":501,"x_min":73,"x_max":486,"o":"m 312 172 q 323 146 312 155 q 346 137 335 137 l 486 137 l 486 -1 l 73 -1 l 73 137 l 160 137 l 160 266 q 188 328 165 304 q 258 355 218 355 l 391 355 q 459 329 433 350 q 486 267 486 302 l 486 195 l 425 195 l 411 212 q 390 217 406 217 l 346 217 q 323 208 335 217 q 315 197 318 204 l 312 180 l 312 172 z "},"آ":{"ha":337,"x_min":-7,"x_max":347,"o":"m 98 983 l 243 983 l 243 -11 l 98 -11 l 98 983 m 347 1004 l -7 1004 l -7 1109 l 347 1109 l 347 1004 z "},"ﺁ":{"ha":337,"x_min":-7,"x_max":347,"o":"m 98 983 l 243 983 l 243 -11 l 98 -11 l 98 983 m 347 1004 l -7 1004 l -7 1109 l 347 1109 l 347 1004 z "},"ﺂ":{"ha":346,"x_min":-7,"x_max":356,"o":"m 245 984 l 245 212 q 247 193 245 201 q 252 174 248 185 q 274 146 260 159 q 356 120 301 120 l 356 -11 q 247 7 292 -11 q 169 55 202 24 q 118 127 136 85 q 100 212 100 168 l 100 984 l 245 984 m 347 1006 l -7 1006 l -7 1111 l 347 1111 l 347 1006 z "},"أ":{"ha":337,"x_min":35,"x_max":318,"o":"m 98 847 l 243 847 l 243 -11 l 98 -11 l 98 847 m 213 976 q 218 969 213 969 l 318 969 l 318 878 l 35 878 l 35 968 l 91 968 l 91 1057 q 109 1101 91 1082 q 163 1121 133 1121 l 246 1121 q 298 1101 277 1121 q 318 1057 318 1081 l 318 1003 l 257 1003 l 257 1044 l 223 1044 q 213 1039 216 1044 l 213 976 z "},"ﺃ":{"ha":337,"x_min":35,"x_max":318,"o":"m 98 847 l 243 847 l 243 -11 l 98 -11 l 98 847 m 213 976 q 218 969 213 969 l 318 969 l 318 878 l 35 878 l 35 968 l 91 968 l 91 1057 q 109 1101 91 1082 q 163 1121 133 1121 l 246 1121 q 298 1101 277 1121 q 318 1057 318 1081 l 318 1003 l 257 1003 l 257 1044 l 223 1044 q 213 1039 216 1044 l 213 976 z "},"ﺄ":{"ha":346,"x_min":41,"x_max":356,"o":"m 245 855 l 245 212 q 247 193 245 201 q 252 174 248 185 q 274 146 260 159 q 336 120 300 121 l 356 120 l 356 -11 q 247 7 292 -11 q 169 55 202 24 q 118 127 136 85 q 100 212 100 168 l 100 855 l 245 855 m 220 989 q 225 983 220 983 l 325 983 l 325 892 l 41 892 l 41 982 l 98 982 l 98 1071 q 116 1114 98 1096 q 170 1135 140 1135 l 253 1135 q 304 1115 284 1135 q 325 1071 325 1095 l 325 1017 l 264 1017 l 264 1058 l 230 1058 q 220 1053 222 1058 l 220 989 z "},"ؤ":{"ha":1087,"x_min":95,"x_max":1009,"o":"m 1009 -11 q 992 -94 1009 -54 q 941 -163 975 -134 q 865 -213 909 -195 q 520 -225 821 -232 l 520 -95 q 807 -92 791 -96 q 837 -75 824 -87 q 865 -11 865 -50 l 865 4 q 835 -3 867 5 l 806 -9 l 773 -12 l 332 -12 q 240 5 281 -12 q 165 54 199 23 q 113 126 131 85 q 95 210 95 168 l 95 666 q 112 749 95 709 q 163 820 129 788 q 239 870 197 852 q 332 888 281 888 l 772 888 q 819 884 797 888 q 863 871 840 880 q 941 822 905 854 q 990 751 972 793 q 1009 666 1009 709 l 1009 -11 m 268 732 q 239 666 239 705 l 239 210 q 247 173 239 187 q 268 144 254 158 q 332 118 295 118 l 772 118 q 805 125 787 118 q 837 144 823 132 q 865 210 865 170 l 865 666 q 858 702 865 686 q 837 731 850 718 q 772 758 810 758 l 332 758 q 297 751 314 758 q 268 732 281 745 m 323 1175 q 329 1168 323 1168 l 429 1168 l 429 1078 l 145 1078 l 145 1168 l 201 1168 l 201 1257 q 220 1300 201 1282 q 273 1320 243 1320 l 357 1320 q 408 1300 388 1320 q 429 1257 429 1280 l 429 1202 l 368 1202 l 368 1244 l 334 1244 q 323 1238 326 1244 l 323 1175 z "},"ﺅ":{"ha":1087,"x_min":95,"x_max":1009,"o":"m 1009 -11 q 992 -94 1009 -54 q 941 -163 975 -134 q 865 -213 909 -195 q 520 -225 821 -232 l 520 -95 q 807 -92 791 -96 q 837 -75 824 -87 q 865 -11 865 -50 l 865 4 q 835 -3 867 5 l 806 -9 l 773 -12 l 332 -12 q 240 5 281 -12 q 165 54 199 23 q 113 126 131 85 q 95 210 95 168 l 95 666 q 112 749 95 709 q 163 820 129 788 q 239 870 197 852 q 332 888 281 888 l 772 888 q 819 884 797 888 q 863 871 840 880 q 941 822 905 854 q 990 751 972 793 q 1009 666 1009 709 l 1009 -11 m 268 732 q 239 666 239 705 l 239 210 q 247 173 239 187 q 268 144 254 158 q 332 118 295 118 l 772 118 q 805 125 787 118 q 837 144 823 132 q 865 210 865 170 l 865 666 q 858 702 865 686 q 837 731 850 718 q 772 758 810 758 l 332 758 q 297 751 314 758 q 268 732 281 745 m 323 1175 q 329 1168 323 1168 l 429 1168 l 429 1078 l 145 1078 l 145 1168 l 201 1168 l 201 1257 q 220 1300 201 1282 q 273 1320 243 1320 l 357 1320 q 408 1300 388 1320 q 429 1257 429 1280 l 429 1202 l 368 1202 l 368 1244 l 334 1244 q 323 1238 326 1244 l 323 1175 z "},"ﺆ":{"ha":1115,"x_min":95,"x_max":1118,"o":"m 1009 -9 q 992 -92 1009 -52 q 941 -161 975 -132 q 865 -211 909 -193 q 522 -223 821 -230 l 522 -93 q 806 -89 787 -94 q 837 -73 825 -85 q 865 -9 865 -48 l 865 6 q 835 -1 867 7 l 806 -7 l 773 -10 l 332 -10 q 240 7 281 -10 q 165 56 199 25 q 113 128 131 87 q 95 212 95 170 l 95 668 q 112 751 95 711 q 163 822 129 790 q 239 872 197 854 q 332 890 281 890 l 772 890 q 819 886 797 890 q 863 873 840 882 q 941 824 905 856 q 990 753 972 795 q 1009 668 1009 711 l 1009 212 q 1016 174 1009 189 q 1038 146 1023 159 q 1099 120 1063 121 l 1118 120 l 1118 -10 q 1040 -2 1069 -10 q 1026 1 1033 -1 q 1009 7 1019 3 l 1009 7 l 1009 -9 m 268 734 q 239 668 239 707 l 239 212 q 247 175 239 189 q 268 146 254 160 q 332 120 295 120 l 772 120 q 805 127 787 120 q 837 146 823 134 q 865 212 865 172 l 865 668 q 858 704 865 688 q 837 733 850 720 q 772 760 810 760 l 332 760 q 297 753 314 760 q 268 734 281 747 m 323 1175 q 329 1168 323 1168 l 429 1168 l 429 1078 l 145 1078 l 145 1168 l 201 1168 l 201 1257 q 220 1300 201 1282 q 273 1320 243 1320 l 357 1320 q 408 1300 388 1320 q 429 1257 429 1280 l 429 1202 l 368 1202 l 368 1244 l 334 1244 q 323 1238 326 1244 l 323 1175 z "},"إ":{"ha":337,"x_min":3,"x_max":286,"o":"m 98 1118 l 243 1118 l 243 57 l 98 57 l 98 1118 m 181 -134 q 186 -140 181 -140 l 286 -140 l 286 -231 l 3 -231 l 3 -141 l 59 -141 l 59 -52 q 77 -9 59 -27 q 131 12 101 12 l 214 12 q 266 -8 245 12 q 286 -52 286 -28 l 286 -106 l 225 -106 l 225 -65 l 191 -65 q 181 -71 184 -65 l 181 -134 z "},"ﺇ":{"ha":337,"x_min":3,"x_max":286,"o":"m 98 1118 l 243 1118 l 243 57 l 98 57 l 98 1118 m 181 -134 q 186 -140 181 -140 l 286 -140 l 286 -231 l 3 -231 l 3 -141 l 59 -141 l 59 -52 q 77 -9 59 -27 q 131 12 101 12 l 214 12 q 266 -8 245 12 q 286 -52 286 -28 l 286 -106 l 225 -106 l 225 -65 l 191 -65 q 181 -71 184 -65 l 181 -134 z "},"ﺈ":{"ha":350,"x_min":3,"x_max":356,"o":"m 245 1120 l 245 212 q 247 193 245 201 q 252 174 248 185 q 274 146 260 159 q 336 120 300 121 l 356 120 l 356 -11 q 247 7 292 -11 q 169 55 202 24 q 118 127 136 85 q 100 212 100 168 l 100 1120 l 245 1120 m 181 -147 q 186 -154 181 -154 l 286 -154 l 286 -245 l 3 -245 l 3 -155 l 59 -155 l 59 -66 q 77 -22 59 -41 q 131 -2 101 -2 l 214 -2 q 266 -22 245 -2 q 286 -66 286 -42 l 286 -120 l 225 -120 l 225 -79 l 191 -79 q 181 -84 184 -79 l 181 -147 z "},"ئ":{"ha":1135,"x_min":107,"x_max":1029,"o":"m 646 989 q 653 972 646 977 q 664 968 659 968 l 757 968 l 757 884 l 487 884 l 487 974 l 543 974 l 543 1056 q 559 1094 543 1078 q 608 1113 581 1113 l 692 1113 q 738 1095 719 1113 q 757 1056 757 1077 l 757 1013 l 701 1013 l 701 1036 q 692 1038 699 1039 l 664 1038 q 654 1032 658 1038 l 648 1025 l 646 1013 l 646 989 m 474 765 l 346 765 q 280 738 308 765 q 252 673 252 711 l 252 212 q 281 146 252 172 q 346 119 309 119 l 790 119 q 855 146 828 119 q 876 176 868 158 q 884 212 884 194 l 884 395 q 856 461 884 435 q 790 488 828 488 l 606 488 l 606 673 q 625 757 606 716 q 676 830 643 798 q 754 879 709 862 q 846 897 798 897 l 973 897 l 973 765 l 842 765 q 780 739 806 764 q 759 709 767 726 q 751 673 751 693 l 751 620 l 790 620 q 884 601 841 620 q 961 551 926 583 q 1010 480 995 519 q 1020 459 1018 467 q 1025 435 1022 452 q 1029 395 1029 417 l 1029 212 q 1011 127 1029 168 q 959 56 993 86 q 882 7 926 25 q 790 -11 838 -11 l 346 -11 q 252 6 297 -11 q 176 56 206 26 q 124 129 141 90 q 107 212 107 168 l 107 673 q 109 694 107 684 q 112 716 110 705 q 124 757 117 738 q 176 830 142 798 q 254 879 209 862 q 346 897 298 897 l 474 897 l 474 765 z "},"ﺉ":{"ha":1135,"x_min":107,"x_max":1029,"o":"m 646 989 q 653 972 646 977 q 664 968 659 968 l 757 968 l 757 884 l 487 884 l 487 974 l 543 974 l 543 1056 q 559 1094 543 1078 q 608 1113 581 1113 l 692 1113 q 738 1095 719 1113 q 757 1056 757 1077 l 757 1013 l 701 1013 l 701 1036 q 692 1038 699 1039 l 664 1038 q 654 1032 658 1038 l 648 1025 l 646 1013 l 646 989 m 474 765 l 346 765 q 280 738 308 765 q 252 673 252 711 l 252 212 q 281 146 252 172 q 346 119 309 119 l 790 119 q 855 146 828 119 q 876 176 868 158 q 884 212 884 194 l 884 395 q 856 461 884 435 q 790 488 828 488 l 606 488 l 606 673 q 625 757 606 716 q 676 830 643 798 q 754 879 709 862 q 846 897 798 897 l 973 897 l 973 765 l 842 765 q 780 739 806 764 q 759 709 767 726 q 751 673 751 693 l 751 620 l 790 620 q 884 601 841 620 q 961 551 926 583 q 1010 480 995 519 q 1020 459 1018 467 q 1025 435 1022 452 q 1029 395 1029 417 l 1029 212 q 1011 127 1029 168 q 959 56 993 86 q 882 7 926 25 q 790 -11 838 -11 l 346 -11 q 252 6 297 -11 q 176 56 206 26 q 124 129 141 90 q 107 212 107 168 l 107 673 q 109 694 107 684 q 112 716 110 705 q 124 757 117 738 q 176 830 142 798 q 254 879 209 862 q 346 897 298 897 l 474 897 l 474 765 z "},"ﺊ":{"ha":1443,"x_min":89,"x_max":1453,"o":"m 455 766 l 328 766 q 260 739 288 766 q 233 674 233 712 l 233 214 q 262 148 233 174 q 293 127 276 134 q 328 121 310 121 l 770 121 q 836 148 808 121 q 865 214 865 173 l 865 674 q 884 760 865 718 q 936 832 903 802 q 1012 881 968 863 q 1104 898 1056 898 q 1197 878 1150 898 q 1276 828 1244 858 q 1324 758 1308 798 q 1334 738 1332 745 q 1339 713 1336 730 q 1343 674 1343 695 l 1343 212 q 1370 147 1343 174 q 1402 127 1384 134 q 1434 120 1419 120 l 1453 120 l 1453 -11 l 1434 -11 q 1343 6 1386 -9 q 1266 56 1297 26 q 1215 129 1232 90 q 1198 212 1198 168 l 1198 674 q 1171 739 1198 713 q 1139 760 1156 753 q 1104 766 1122 766 l 1100 766 q 1038 740 1063 765 q 1017 710 1025 728 q 1009 674 1009 692 l 1009 214 q 990 127 1009 169 q 939 55 972 85 q 863 7 905 25 q 818 -5 840 -1 q 770 -9 797 -9 l 328 -9 q 232 8 277 -9 q 156 58 188 29 q 106 130 123 90 q 89 214 89 170 l 89 674 q 90 695 89 685 q 94 718 92 706 q 106 758 98 739 q 159 833 125 802 q 235 881 192 864 q 328 898 278 898 l 455 898 l 455 766 m 680 989 q 687 972 680 977 q 698 968 693 968 l 791 968 l 791 884 l 521 884 l 521 974 l 577 974 l 577 1056 q 593 1094 577 1078 q 642 1113 615 1113 l 726 1113 q 772 1095 753 1113 q 791 1056 791 1077 l 791 1013 l 734 1013 l 734 1036 q 726 1038 733 1039 l 698 1038 q 688 1032 692 1038 l 682 1025 l 680 1013 l 680 989 z "},"ﺋ":{"ha":342,"x_min":-5,"x_max":303,"o":"m 251 863 l 251 211 q 232 126 251 168 q 181 54 214 84 q 104 5 149 23 q 16 -12 62 -10 l -5 -12 l -5 119 q 77 145 50 119 q 99 175 92 158 q 106 211 106 192 l 106 863 l 251 863 m 198 1003 q 203 996 198 996 l 303 996 l 303 905 l 20 905 l 20 996 l 76 996 l 76 1084 q 94 1128 76 1109 q 148 1148 118 1148 l 231 1148 q 283 1128 262 1148 q 303 1084 303 1108 l 303 1030 l 242 1030 l 242 1072 l 208 1072 q 198 1066 201 1072 l 198 1003 z "},"ﺌ":{"ha":345,"x_min":-11,"x_max":356,"o":"m 173 54 q 100 7 142 24 q -11 -11 55 -11 l -11 120 q 72 148 44 120 q 100 212 100 175 l 100 864 l 245 864 l 245 212 q 274 146 245 174 q 303 126 287 132 q 356 120 319 120 l 356 -11 q 245 8 289 -11 q 173 54 203 26 m 206 1003 q 212 996 206 996 l 311 996 l 311 905 l 28 905 l 28 996 l 84 996 l 84 1084 q 102 1128 84 1109 q 156 1148 126 1148 l 239 1148 q 291 1128 271 1148 q 311 1084 311 1108 l 311 1030 l 250 1030 l 250 1072 l 216 1072 q 206 1066 209 1072 l 206 1003 z "},"ا":{"ha":337,"x_min":98,"x_max":243,"o":"m 98 1118 l 243 1118 l 243 -11 l 98 -11 l 98 1118 z "},"ﺍ":{"ha":337,"x_min":98,"x_max":243,"o":"m 98 1118 l 243 1118 l 243 -11 l 98 -11 l 98 1118 z "},"ﺎ":{"ha":341,"x_min":100,"x_max":356,"o":"m 245 1120 l 245 212 q 247 193 245 201 q 252 174 248 185 q 274 146 260 159 q 356 120 301 120 l 356 -11 q 247 7 292 -11 q 169 55 202 24 q 118 127 136 85 q 100 212 100 168 l 100 1120 l 245 1120 z "},"ب":{"ha":1334,"x_min":94,"x_max":1238,"o":"m 462 764 l 333 764 q 268 738 295 764 q 247 708 254 726 q 239 672 239 691 l 239 212 q 247 174 239 191 q 269 144 255 157 q 298 125 282 132 q 333 119 315 119 l 999 119 q 1064 146 1037 119 q 1093 212 1093 171 l 1093 896 l 1238 896 l 1238 212 q 1220 126 1238 167 q 1168 55 1202 85 q 1092 5 1135 24 q 1047 -7 1068 -3 q 999 -12 1025 -12 l 333 -12 q 239 7 283 -12 q 162 56 195 26 q 112 127 129 87 q 94 212 94 168 l 94 672 q 113 758 94 716 q 164 830 132 799 q 240 878 197 861 q 333 896 284 896 l 462 896 l 462 764 m 739 -235 l 593 -235 l 593 -104 l 739 -104 l 739 -235 z "},"ﺏ":{"ha":1334,"x_min":94,"x_max":1238,"o":"m 462 764 l 333 764 q 268 738 295 764 q 247 708 254 726 q 239 672 239 691 l 239 212 q 247 174 239 191 q 269 144 255 157 q 298 125 282 132 q 333 119 315 119 l 999 119 q 1064 146 1037 119 q 1093 212 1093 171 l 1093 896 l 1238 896 l 1238 212 q 1220 126 1238 167 q 1168 55 1202 85 q 1092 5 1135 24 q 1047 -7 1068 -3 q 999 -12 1025 -12 l 333 -12 q 239 7 283 -12 q 162 56 195 26 q 112 127 129 87 q 94 212 94 168 l 94 672 q 113 758 94 716 q 164 830 132 799 q 240 878 197 861 q 333 896 284 896 l 462 896 l 462 764 m 739 -235 l 593 -235 l 593 -104 l 739 -104 l 739 -235 z "},"ﺐ":{"ha":1339,"x_min":97,"x_max":1352,"o":"m 741 -233 l 597 -233 l 597 -101 l 741 -101 l 741 -233 m 1167 56 q 1166 57 1166 56 l 1167 56 m 1168 55 q 1095 9 1137 26 q 1002 -9 1050 -9 l 336 -9 q 242 9 287 -9 q 165 58 198 28 q 114 130 132 91 q 97 214 97 170 l 97 675 q 116 760 97 718 q 168 832 134 801 q 245 881 202 864 q 336 899 288 899 l 464 899 l 464 767 l 336 767 q 271 741 298 767 q 250 712 258 728 q 242 675 242 696 l 242 214 q 271 149 242 175 q 301 128 284 134 q 336 121 317 121 l 1002 121 q 1036 127 1020 121 q 1067 149 1055 136 q 1096 214 1096 174 l 1096 899 l 1240 899 l 1240 213 q 1270 147 1240 175 q 1300 127 1283 134 q 1352 121 1318 121 l 1352 -10 q 1241 9 1284 -10 q 1168 55 1198 26 z "},"ﺑ":{"ha":340,"x_min":-7,"x_max":249,"o":"m 249 897 l 249 211 q 230 126 249 168 q 179 54 212 84 q 102 5 147 23 q 13 -12 60 -10 l -7 -12 l -7 119 q 75 145 48 119 q 97 175 90 158 q 104 211 104 192 l 104 897 l 249 897 m 104 -103 l 249 -103 l 249 -235 l 104 -235 l 104 -103 z "},"ﺒ":{"ha":350,"x_min":-7,"x_max":360,"o":"m 106 -102 l 252 -102 l 252 -233 l 106 -233 l 106 -102 m 177 54 q 104 7 146 24 q -7 -11 59 -11 l -7 120 q 76 148 48 120 q 104 212 104 175 l 104 898 l 249 898 l 249 212 q 278 146 249 174 q 307 126 291 132 q 340 120 322 121 l 360 120 l 360 -11 l 340 -11 q 249 7 292 -9 q 177 54 208 26 z "},"پ":{"ha":1334,"x_min":94,"x_max":1238,"o":"m 462 764 l 333 764 q 268 738 295 764 q 247 708 254 726 q 239 672 239 691 l 239 212 q 247 174 239 191 q 269 144 255 157 q 298 125 282 132 q 333 119 315 119 l 999 119 q 1064 146 1037 119 q 1093 212 1093 171 l 1093 896 l 1238 896 l 1238 212 q 1220 126 1238 167 q 1168 55 1202 85 q 1092 5 1135 24 q 1047 -7 1068 -3 q 999 -12 1025 -12 l 333 -12 q 239 7 283 -12 q 162 56 195 26 q 112 127 129 87 q 94 212 94 168 l 94 672 q 113 758 94 716 q 164 830 132 799 q 240 878 197 861 q 333 896 284 896 l 462 896 l 462 764 m 768 -238 l 768 -349 l 624 -349 l 624 -238 l 513 -238 l 513 -107 l 658 -107 l 658 -218 l 734 -218 l 734 -107 l 880 -107 l 880 -238 l 768 -238 z "},"ﭖ":{"ha":1334,"x_min":94,"x_max":1238,"o":"m 462 764 l 333 764 q 268 738 295 764 q 247 708 254 726 q 239 672 239 691 l 239 212 q 247 174 239 191 q 269 144 255 157 q 298 125 282 132 q 333 119 315 119 l 999 119 q 1064 146 1037 119 q 1093 212 1093 171 l 1093 896 l 1238 896 l 1238 212 q 1220 126 1238 167 q 1168 55 1202 85 q 1092 5 1135 24 q 1047 -7 1068 -3 q 999 -12 1025 -12 l 333 -12 q 239 7 283 -12 q 162 56 195 26 q 112 127 129 87 q 94 212 94 168 l 94 672 q 113 758 94 716 q 164 830 132 799 q 240 878 197 861 q 333 896 284 896 l 462 896 l 462 764 m 768 -238 l 768 -349 l 624 -349 l 624 -238 l 513 -238 l 513 -107 l 658 -107 l 658 -218 l 734 -218 l 734 -107 l 880 -107 l 880 -238 l 768 -238 z "},"ﭗ":{"ha":1344,"x_min":97,"x_max":1352,"o":"m 624 -238 l 513 -238 l 513 -107 l 658 -107 l 658 -218 l 734 -218 l 734 -107 l 880 -107 l 880 -238 l 768 -238 l 768 -349 l 624 -349 l 624 -238 m 336 -9 q 242 9 287 -9 q 165 58 198 28 q 114 130 132 91 q 97 214 97 170 l 97 675 q 116 760 97 718 q 168 832 134 801 q 245 881 202 864 q 336 899 288 899 l 464 899 l 464 767 l 336 767 q 271 741 298 767 q 250 712 258 728 q 242 675 242 696 l 242 214 q 271 149 242 175 q 301 128 284 134 q 336 121 317 121 l 1002 121 q 1036 127 1020 121 q 1067 149 1055 136 q 1096 214 1096 174 l 1096 899 l 1240 899 l 1240 213 q 1270 147 1240 175 q 1300 127 1283 134 q 1331 121 1316 121 l 1352 121 l 1352 -10 q 1241 9 1284 -10 q 1168 55 1198 26 q 1095 9 1137 26 q 1002 -9 1050 -9 l 336 -9 z "},"ﭘ":{"ha":446,"x_min":-20,"x_max":394,"o":"m 96 118 l 96 119 q 178 145 151 119 q 200 175 193 158 q 207 211 207 192 l 207 897 l 352 897 l 352 211 q 333 126 352 168 q 282 54 315 84 q 205 5 250 23 q 116 -12 163 -10 l -20 -12 l -20 118 l 96 118 m 138 -238 l 27 -238 l 27 -107 l 172 -107 l 172 -218 l 249 -218 l 249 -107 l 394 -107 l 394 -238 l 283 -238 l 283 -349 l 138 -349 l 138 -238 z "},"ﭙ":{"ha":427,"x_min":-10,"x_max":439,"o":"m 216 54 q 142 7 184 24 q -10 -11 98 -11 l -10 120 q 115 148 87 120 q 143 212 143 175 l 143 898 l 288 898 l 288 212 q 317 146 288 174 q 346 126 330 132 q 439 120 362 120 l 439 -11 l 406 -11 q 286 7 328 -8 q 216 54 245 26 m 142 -238 l 31 -238 l 31 -107 l 176 -107 l 176 -218 l 253 -218 l 253 -107 l 398 -107 l 398 -238 l 287 -238 l 287 -349 l 142 -349 l 142 -238 z "},"ت":{"ha":1334,"x_min":94,"x_max":1238,"o":"m 462 764 l 333 764 q 268 738 295 764 q 247 708 254 726 q 239 672 239 691 l 239 212 q 247 174 239 191 q 269 144 255 157 q 298 125 282 132 q 333 119 315 119 l 999 119 q 1064 146 1037 119 q 1093 212 1093 171 l 1093 896 l 1238 896 l 1238 212 q 1220 126 1238 167 q 1168 55 1202 85 q 1092 5 1135 24 q 1047 -7 1068 -3 q 999 -12 1025 -12 l 333 -12 q 239 7 283 -12 q 162 56 195 26 q 112 127 129 87 q 94 212 94 168 l 94 672 q 113 758 94 716 q 164 830 132 799 q 240 878 197 861 q 333 896 284 896 l 462 896 l 462 764 m 815 1108 l 960 1108 l 960 977 l 815 977 l 815 1108 m 593 1108 l 739 1108 l 739 977 l 593 977 l 593 1108 z "},"ﺕ":{"ha":1334,"x_min":94,"x_max":1238,"o":"m 462 764 l 333 764 q 268 738 295 764 q 247 708 254 726 q 239 672 239 691 l 239 212 q 247 174 239 191 q 269 144 255 157 q 298 125 282 132 q 333 119 315 119 l 999 119 q 1064 146 1037 119 q 1093 212 1093 171 l 1093 896 l 1238 896 l 1238 212 q 1220 126 1238 167 q 1168 55 1202 85 q 1092 5 1135 24 q 1047 -7 1068 -3 q 999 -12 1025 -12 l 333 -12 q 239 7 283 -12 q 162 56 195 26 q 112 127 129 87 q 94 212 94 168 l 94 672 q 113 758 94 716 q 164 830 132 799 q 240 878 197 861 q 333 896 284 896 l 462 896 l 462 764 m 815 1108 l 960 1108 l 960 977 l 815 977 l 815 1108 m 593 1108 l 739 1108 l 739 977 l 593 977 l 593 1108 z "},"ﺖ":{"ha":1344,"x_min":97,"x_max":1352,"o":"m 593 1110 l 739 1110 l 739 979 l 593 979 l 593 1110 m 815 1110 l 960 1110 l 960 979 l 815 979 l 815 1110 m 1167 55 q 1166 56 1166 56 l 1167 55 m 1168 54 q 1095 9 1137 26 q 1002 -9 1050 -9 l 336 -9 q 242 9 287 -9 q 165 58 198 27 q 114 130 132 90 q 97 214 97 169 l 97 674 q 116 759 97 718 q 168 832 134 800 q 245 881 202 863 q 336 898 288 898 l 464 898 l 464 766 l 336 766 q 271 740 298 766 q 250 711 258 728 q 242 674 242 695 l 242 214 q 271 148 242 174 q 301 127 284 134 q 336 121 317 121 l 1002 121 q 1036 127 1020 121 q 1067 148 1055 136 q 1096 214 1096 173 l 1096 898 l 1240 898 l 1240 212 q 1270 146 1240 174 q 1300 127 1283 134 q 1352 120 1318 120 l 1352 -11 q 1241 8 1284 -11 q 1168 54 1198 26 z "},"ﺗ":{"ha":345,"x_min":-3,"x_max":364,"o":"m 254 897 l 254 211 q 235 126 254 168 q 184 54 216 84 q 107 5 152 23 q 18 -12 64 -10 l -3 -12 l -3 119 l 18 119 q 80 145 53 120 q 101 175 94 158 q 109 211 109 192 l 109 897 l 254 897 m -3 1109 l 142 1109 l 142 977 l -3 977 l -3 1109 m 220 1109 l 364 1109 l 364 977 l 220 977 l 220 1109 z "},"ﺘ":{"ha":354,"x_min":-5,"x_max":362,"o":"m 2 1109 l 147 1109 l 147 978 l 2 978 l 2 1109 m 210 1109 l 355 1109 l 355 978 l 210 978 l 210 1109 m 179 54 q 106 7 148 24 q -5 -11 61 -11 l -5 120 q 78 148 50 120 q 106 212 106 175 l 106 898 l 251 898 l 251 212 q 280 146 251 174 q 309 126 293 132 q 362 120 326 120 l 362 -11 q 252 8 295 -11 q 179 54 210 26 z "},"ث":{"ha":1334,"x_min":94,"x_max":1238,"o":"m 462 764 l 333 764 q 268 738 295 764 q 247 708 254 726 q 239 672 239 691 l 239 212 q 247 174 239 191 q 269 144 255 157 q 298 125 282 132 q 333 119 315 119 l 999 119 q 1064 146 1037 119 q 1093 212 1093 171 l 1093 896 l 1238 896 l 1238 212 q 1220 126 1238 167 q 1168 55 1202 85 q 1092 5 1135 24 q 1047 -7 1068 -3 q 999 -12 1025 -12 l 333 -12 q 239 7 283 -12 q 162 56 195 26 q 112 127 129 87 q 94 212 94 168 l 94 672 q 113 758 94 716 q 164 830 132 799 q 240 878 197 861 q 333 896 284 896 l 462 896 l 462 764 m 705 1006 l 705 1118 l 849 1118 l 849 1006 l 960 1006 l 960 876 l 815 876 l 815 986 l 739 986 l 739 876 l 593 876 l 593 1006 l 705 1006 z "},"ﺙ":{"ha":1334,"x_min":94,"x_max":1238,"o":"m 462 764 l 333 764 q 268 738 295 764 q 247 708 254 726 q 239 672 239 691 l 239 212 q 247 174 239 191 q 269 144 255 157 q 298 125 282 132 q 333 119 315 119 l 999 119 q 1064 146 1037 119 q 1093 212 1093 171 l 1093 896 l 1238 896 l 1238 212 q 1220 126 1238 167 q 1168 55 1202 85 q 1092 5 1135 24 q 1047 -7 1068 -3 q 999 -12 1025 -12 l 333 -12 q 239 7 283 -12 q 162 56 195 26 q 112 127 129 87 q 94 212 94 168 l 94 672 q 113 758 94 716 q 164 830 132 799 q 240 878 197 861 q 333 896 284 896 l 462 896 l 462 764 m 705 1006 l 705 1118 l 849 1118 l 849 1006 l 960 1006 l 960 876 l 815 876 l 815 986 l 739 986 l 739 876 l 593 876 l 593 1006 l 705 1006 z "},"ﺚ":{"ha":1339,"x_min":97,"x_max":1352,"o":"m 707 1008 l 707 1120 l 853 1120 l 853 1008 l 963 1008 l 963 878 l 819 878 l 819 988 l 741 988 l 741 878 l 597 878 l 597 1008 l 707 1008 m 1167 55 q 1166 56 1166 56 l 1167 55 m 1168 54 q 1095 9 1137 26 q 1002 -9 1050 -9 l 336 -9 q 242 9 287 -9 q 165 58 198 27 q 114 130 132 90 q 97 214 97 169 l 97 674 q 116 759 97 718 q 168 832 134 800 q 245 881 202 863 q 336 898 288 898 l 464 898 l 464 766 l 336 766 q 271 740 298 766 q 250 711 258 728 q 242 674 242 695 l 242 214 q 271 148 242 174 q 301 127 284 134 q 336 121 317 121 l 1002 121 q 1036 127 1020 121 q 1067 148 1055 136 q 1096 214 1096 173 l 1096 898 l 1240 898 l 1240 212 q 1270 146 1240 174 q 1300 127 1283 134 q 1331 120 1316 121 l 1352 120 l 1352 -11 q 1241 8 1284 -11 q 1168 54 1198 26 z "},"ﺛ":{"ha":350,"x_min":-5,"x_max":361,"o":"m 250 785 l 250 211 q 232 125 250 166 q 181 54 214 84 q 105 6 149 24 q -5 -12 60 -12 l -5 119 l 14 119 q 76 144 50 119 q 106 211 106 174 l 106 785 l 250 785 m 106 1007 l 106 1118 l 250 1118 l 250 1007 l 361 1007 l 361 876 l 216 876 l 216 987 l 140 987 l 140 876 l -5 876 l -5 1007 l 106 1007 z "},"ﺜ":{"ha":358,"x_min":-5,"x_max":362,"o":"m 178 53 q 105 6 146 24 q 60 -7 81 -3 q -5 -11 39 -11 l -5 120 q 77 146 51 120 q 98 176 91 159 q 106 212 106 193 l 106 787 l 251 787 l 251 212 q 280 146 251 172 q 342 120 305 121 l 362 120 l 362 -11 l 342 -11 q 295 -5 317 -9 q 251 6 273 -1 q 178 53 210 25 m 106 1008 l 106 1120 l 251 1120 l 251 1008 l 362 1008 l 362 878 l 217 878 l 217 988 l 140 988 l 140 878 l -5 878 l -5 1008 l 106 1008 z "},"ج":{"ha":1125,"x_min":110,"x_max":1029,"o":"m 220 895 l 791 895 q 883 878 840 895 q 959 829 926 861 q 1011 756 993 797 q 1029 671 1029 715 l 1029 212 q 1025 168 1029 189 q 1010 127 1021 148 q 961 57 994 86 q 884 7 928 27 q 791 -12 840 -12 l 340 -12 q 309 -18 322 -12 q 283 -37 295 -24 q 254 -112 254 -66 l 254 -233 l 110 -233 l 110 -112 q 126 -25 110 -67 q 174 49 143 18 q 248 100 205 81 q 292 114 269 109 q 340 119 316 119 l 791 119 q 826 125 810 119 q 855 146 842 132 q 884 212 884 173 l 884 671 q 855 738 884 710 q 825 757 843 750 q 791 764 806 764 l 220 764 l 220 895 m 553 -107 l 697 -107 l 697 -238 l 553 -238 l 553 -107 z "},"ﺝ":{"ha":1125,"x_min":110,"x_max":1029,"o":"m 220 895 l 791 895 q 883 878 840 895 q 959 829 926 861 q 1011 756 993 797 q 1029 671 1029 715 l 1029 212 q 1025 168 1029 189 q 1010 127 1021 148 q 961 57 994 86 q 884 7 928 27 q 791 -12 840 -12 l 340 -12 q 309 -18 322 -12 q 283 -37 295 -24 q 254 -112 254 -66 l 254 -233 l 110 -233 l 110 -112 q 126 -25 110 -67 q 174 49 143 18 q 248 100 205 81 q 292 114 269 109 q 340 119 316 119 l 791 119 q 826 125 810 119 q 855 146 842 132 q 884 212 884 173 l 884 671 q 855 738 884 710 q 825 757 843 750 q 791 764 806 764 l 220 764 l 220 895 m 553 -107 l 697 -107 l 697 -238 l 553 -238 l 553 -107 z "},"ﺞ":{"ha":1135,"x_min":113,"x_max":1142,"o":"m 958 54 q 886 8 928 25 q 793 -10 842 -10 l 342 -10 q 312 -16 326 -10 q 285 -35 298 -22 q 257 -107 258 -64 l 257 -231 l 113 -231 l 113 -111 q 129 -24 113 -66 q 176 51 146 18 q 250 102 206 83 q 342 121 294 121 l 793 121 q 828 127 811 121 q 858 147 844 134 q 887 213 887 174 l 887 673 q 859 738 887 710 q 793 765 831 765 l 223 765 l 223 896 l 793 896 q 885 879 842 896 q 962 830 928 862 q 1014 758 996 798 q 1031 673 1031 717 l 1031 213 q 1033 194 1031 201 q 1038 175 1034 186 q 1060 146 1046 158 q 1122 120 1087 121 l 1142 120 l 1142 -12 q 1077 -7 1099 -12 q 1032 5 1056 -3 q 958 54 992 22 m 555 -106 l 700 -106 l 700 -237 l 555 -237 l 555 -106 z "},"ﺟ":{"ha":997,"x_min":-12,"x_max":908,"o":"m 99 895 l 669 895 q 762 877 718 895 q 839 828 805 859 q 890 756 873 796 q 908 671 908 715 l 908 212 q 904 168 908 189 q 890 127 900 148 q 840 56 873 87 q 764 6 808 27 q 669 -12 718 -12 l -12 -12 l -12 119 l 669 119 q 705 125 689 119 q 734 145 722 132 q 763 212 763 172 l 763 671 q 755 707 763 689 q 734 738 747 724 q 669 764 707 764 l 99 764 l 99 895 m 425 -107 l 569 -107 l 569 -238 l 425 -238 l 425 -107 z "},"ﺠ":{"ha":1006,"x_min":-18,"x_max":1012,"o":"m 828 53 q 756 7 798 24 q 663 -11 712 -11 l -18 -11 l -18 120 l 663 120 q 697 126 681 120 q 728 146 714 133 q 757 212 757 174 l 757 672 q 728 739 757 711 q 697 758 715 751 q 663 764 679 764 l 93 764 l 93 895 l 663 895 q 755 878 712 895 q 832 829 798 861 q 883 757 865 798 q 901 672 901 716 l 901 212 q 909 174 901 191 q 930 146 917 158 q 1012 119 957 119 l 1012 -12 q 903 5 944 -12 q 828 53 861 22 m 425 -106 l 570 -106 l 570 -237 l 425 -237 l 425 -106 z "},"چ":{"ha":1125,"x_min":110,"x_max":1029,"o":"m 220 895 l 791 895 q 883 878 840 895 q 959 829 926 861 q 1011 756 993 797 q 1029 671 1029 715 l 1029 212 q 1025 168 1029 189 q 1010 127 1021 148 q 961 57 994 86 q 884 7 928 27 q 791 -12 840 -12 l 340 -12 q 309 -18 322 -12 q 283 -37 295 -24 q 254 -109 255 -65 l 254 -233 l 110 -233 l 110 -112 q 126 -25 110 -67 q 174 49 143 18 q 248 100 205 81 q 292 114 269 109 q 340 119 316 119 l 791 119 q 826 125 810 119 q 855 146 842 132 q 884 212 884 173 l 884 671 q 855 738 884 710 q 825 757 843 750 q 791 764 806 764 l 220 764 l 220 895 m 456 -239 l 456 -109 l 600 -109 l 600 -219 l 677 -219 l 677 -109 l 823 -109 l 823 -239 l 711 -239 l 711 -351 l 566 -351 l 566 -239 l 456 -239 z "},"ﭺ":{"ha":1125,"x_min":110,"x_max":1029,"o":"m 220 895 l 791 895 q 883 878 840 895 q 959 829 926 861 q 1011 756 993 797 q 1029 671 1029 715 l 1029 212 q 1025 168 1029 189 q 1010 127 1021 148 q 961 57 994 86 q 884 7 928 27 q 791 -12 840 -12 l 340 -12 q 309 -18 322 -12 q 283 -37 295 -24 q 254 -109 255 -65 l 254 -233 l 110 -233 l 110 -112 q 126 -25 110 -67 q 174 49 143 18 q 248 100 205 81 q 292 114 269 109 q 340 119 316 119 l 791 119 q 826 125 810 119 q 855 146 842 132 q 884 212 884 173 l 884 671 q 855 738 884 710 q 825 757 843 750 q 791 764 806 764 l 220 764 l 220 895 m 456 -239 l 456 -109 l 600 -109 l 600 -219 l 677 -219 l 677 -109 l 823 -109 l 823 -239 l 711 -239 l 711 -351 l 566 -351 l 566 -239 l 456 -239 z "},"ﭻ":{"ha":1133,"x_min":113,"x_max":1142,"o":"m 958 54 q 886 8 928 25 q 793 -10 842 -10 l 342 -10 q 312 -16 326 -10 q 285 -35 298 -22 q 257 -107 258 -64 l 257 -231 l 113 -231 l 113 -111 q 129 -24 113 -66 q 176 51 146 18 q 250 102 206 83 q 342 121 294 121 l 793 121 q 828 127 811 121 q 858 147 844 134 q 887 213 887 174 l 887 673 q 859 738 887 710 q 793 765 831 765 l 223 765 l 223 896 l 793 896 q 885 879 842 896 q 962 830 928 862 q 1014 758 996 798 q 1031 673 1031 717 l 1031 213 q 1033 194 1031 201 q 1038 175 1034 186 q 1060 146 1046 158 q 1122 120 1087 121 l 1142 120 l 1142 -12 q 1077 -7 1099 -12 q 1032 5 1056 -3 q 958 54 992 22 m 456 -239 l 456 -109 l 600 -109 l 600 -219 l 677 -219 l 677 -109 l 823 -109 l 823 -239 l 711 -239 l 711 -351 l 566 -351 l 566 -239 l 456 -239 z "},"ﭼ":{"ha":997,"x_min":-18,"x_max":901,"o":"m 92 895 l 663 895 q 755 877 711 895 q 832 828 798 859 q 884 756 866 796 q 901 671 901 715 l 901 212 q 897 168 901 189 q 883 127 893 148 q 833 56 867 87 q 757 6 801 27 q 663 -12 711 -12 l -18 -12 l -18 119 l 663 119 q 699 125 682 119 q 728 145 715 132 q 756 212 756 172 l 756 671 q 748 707 756 689 q 728 738 741 724 q 663 764 701 764 l 92 764 l 92 895 m 205 -239 l 205 -109 l 349 -109 l 349 -219 l 427 -219 l 427 -109 l 572 -109 l 572 -239 l 460 -239 l 460 -351 l 315 -351 l 315 -239 l 205 -239 z "},"ﭽ":{"ha":1006,"x_min":-18,"x_max":1012,"o":"m 828 53 q 756 7 798 24 q 663 -11 712 -11 l -18 -11 l -18 120 l 663 120 q 697 126 681 120 q 728 146 714 133 q 757 212 757 174 l 757 672 q 728 739 757 711 q 697 758 715 751 q 663 764 679 764 l 93 764 l 93 895 l 663 895 q 755 878 712 895 q 832 829 798 861 q 883 757 865 798 q 901 672 901 716 l 901 212 q 909 174 901 191 q 930 146 917 158 q 1012 119 957 119 l 1012 -12 q 903 5 944 -12 q 828 53 861 22 m 266 -239 l 266 -109 l 410 -109 l 410 -219 l 488 -219 l 488 -109 l 633 -109 l 633 -239 l 522 -239 l 522 -351 l 376 -351 l 376 -239 l 266 -239 z "},"ح":{"ha":1125,"x_min":110,"x_max":1029,"o":"m 220 895 l 791 895 q 883 878 840 895 q 959 829 926 861 q 1011 756 993 797 q 1029 671 1029 715 l 1029 212 q 1025 168 1029 189 q 1010 127 1021 148 q 961 57 994 86 q 884 7 928 27 q 791 -12 840 -12 l 340 -12 q 309 -18 322 -12 q 283 -37 295 -24 q 254 -112 254 -66 l 254 -233 l 110 -233 l 110 -112 q 126 -25 110 -67 q 174 49 143 18 q 248 100 205 81 q 292 114 269 109 q 340 119 316 119 l 791 119 q 826 125 810 119 q 855 146 842 132 q 884 212 884 173 l 884 671 q 855 738 884 710 q 825 757 843 750 q 791 764 806 764 l 220 764 l 220 895 z "},"ﺡ":{"ha":1125,"x_min":110,"x_max":1029,"o":"m 220 895 l 791 895 q 883 878 840 895 q 959 829 926 861 q 1011 756 993 797 q 1029 671 1029 715 l 1029 212 q 1025 168 1029 189 q 1010 127 1021 148 q 961 57 994 86 q 884 7 928 27 q 791 -12 840 -12 l 340 -12 q 309 -18 322 -12 q 283 -37 295 -24 q 254 -112 254 -66 l 254 -233 l 110 -233 l 110 -112 q 126 -25 110 -67 q 174 49 143 18 q 248 100 205 81 q 292 114 269 109 q 340 119 316 119 l 791 119 q 826 125 810 119 q 855 146 842 132 q 884 212 884 173 l 884 671 q 855 738 884 710 q 825 757 843 750 q 791 764 806 764 l 220 764 l 220 895 z "},"ﺢ":{"ha":1135,"x_min":113,"x_max":1142,"o":"m 958 54 q 886 8 928 25 q 793 -10 842 -10 l 342 -10 q 312 -16 326 -10 q 285 -35 298 -22 q 257 -107 258 -64 l 257 -231 l 113 -231 l 113 -111 q 129 -24 113 -66 q 176 51 146 18 q 250 102 206 83 q 342 121 294 121 l 793 121 q 828 127 811 121 q 858 147 844 134 q 887 213 887 174 l 887 673 q 859 738 887 710 q 793 765 831 765 l 223 765 l 223 896 l 793 896 q 885 879 842 896 q 962 830 928 862 q 1014 758 996 798 q 1031 673 1031 717 l 1031 213 q 1033 194 1031 201 q 1038 175 1034 186 q 1060 146 1046 158 q 1122 120 1087 121 l 1142 120 l 1142 -12 q 1077 -7 1099 -12 q 1032 5 1056 -3 q 958 54 992 22 z "},"ﺣ":{"ha":997,"x_min":-18,"x_max":901,"o":"m 92 895 l 663 895 q 755 877 711 895 q 832 828 798 859 q 884 756 866 796 q 901 671 901 715 l 901 212 q 897 168 901 189 q 883 127 893 148 q 833 56 867 87 q 757 6 801 27 q 663 -12 711 -12 l -18 -12 l -18 119 l 663 119 q 699 125 682 119 q 728 145 715 132 q 756 212 756 172 l 756 671 q 748 707 756 689 q 728 738 741 724 q 663 764 701 764 l 92 764 l 92 895 z "},"ﺤ":{"ha":1006,"x_min":-18,"x_max":1012,"o":"m 828 53 q 756 7 798 24 q 663 -11 712 -11 l -18 -11 l -18 120 l 663 120 q 697 126 681 120 q 728 146 714 133 q 757 212 757 174 l 757 672 q 728 739 757 711 q 697 758 715 751 q 663 764 679 764 l 93 764 l 93 895 l 663 895 q 755 878 712 895 q 832 829 798 861 q 883 757 865 798 q 901 672 901 716 l 901 212 q 909 174 901 191 q 930 146 917 158 q 1012 119 957 119 l 1012 -12 q 903 5 944 -12 q 828 53 861 22 z "},"خ":{"ha":1125,"x_min":110,"x_max":1029,"o":"m 220 895 l 791 895 q 883 878 840 895 q 959 829 926 861 q 1011 756 993 797 q 1029 671 1029 715 l 1029 212 q 1025 168 1029 189 q 1010 127 1021 148 q 961 57 994 86 q 884 7 928 27 q 791 -12 840 -12 l 340 -12 q 309 -18 322 -12 q 283 -37 295 -24 q 254 -112 254 -66 l 254 -233 l 110 -233 l 110 -112 q 126 -25 110 -67 q 174 49 143 18 q 248 100 205 81 q 292 114 269 109 q 340 119 316 119 l 791 119 q 826 125 810 119 q 855 146 842 132 q 884 212 884 173 l 884 671 q 855 738 884 710 q 825 757 843 750 q 791 764 806 764 l 220 764 l 220 895 m 553 1116 l 697 1116 l 697 985 l 553 985 l 553 1116 z "},"ﺥ":{"ha":1125,"x_min":110,"x_max":1029,"o":"m 220 895 l 791 895 q 883 878 840 895 q 959 829 926 861 q 1011 756 993 797 q 1029 671 1029 715 l 1029 212 q 1025 168 1029 189 q 1010 127 1021 148 q 961 57 994 86 q 884 7 928 27 q 791 -12 840 -12 l 340 -12 q 309 -18 322 -12 q 283 -37 295 -24 q 254 -112 254 -66 l 254 -233 l 110 -233 l 110 -112 q 126 -25 110 -67 q 174 49 143 18 q 248 100 205 81 q 292 114 269 109 q 340 119 316 119 l 791 119 q 826 125 810 119 q 855 146 842 132 q 884 212 884 173 l 884 671 q 855 738 884 710 q 825 757 843 750 q 791 764 806 764 l 220 764 l 220 895 m 553 1116 l 697 1116 l 697 985 l 553 985 l 553 1116 z "},"ﺦ":{"ha":1135,"x_min":113,"x_max":1142,"o":"m 958 54 q 886 8 928 25 q 793 -10 842 -10 l 342 -10 q 312 -16 326 -10 q 285 -35 298 -22 q 257 -107 258 -64 l 257 -231 l 113 -231 l 113 -111 q 129 -24 113 -66 q 176 51 146 18 q 250 102 206 83 q 342 121 294 121 l 793 121 q 828 127 811 121 q 858 147 844 134 q 887 213 887 174 l 887 673 q 859 738 887 710 q 793 765 831 765 l 223 765 l 223 896 l 793 896 q 885 879 842 896 q 962 830 928 862 q 1014 758 996 798 q 1031 673 1031 717 l 1031 213 q 1033 194 1031 201 q 1038 175 1034 186 q 1060 146 1046 158 q 1122 120 1087 121 l 1142 120 l 1142 -12 q 1077 -7 1099 -12 q 1032 5 1056 -3 q 958 54 992 22 m 555 1107 l 700 1107 l 700 977 l 555 977 l 555 1107 z "},"ﺧ":{"ha":997,"x_min":-18,"x_max":901,"o":"m 92 895 l 663 895 q 755 877 711 895 q 832 828 798 859 q 884 756 866 796 q 901 671 901 715 l 901 212 q 897 168 901 189 q 883 127 893 148 q 833 56 867 87 q 757 6 801 27 q 663 -12 711 -12 l -18 -12 l -18 119 l 663 119 q 699 125 682 119 q 728 145 715 132 q 756 212 756 172 l 756 671 q 748 707 756 689 q 728 738 741 724 q 663 764 701 764 l 92 764 l 92 895 m 425 1107 l 569 1107 l 569 977 l 425 977 l 425 1107 z "},"ﺨ":{"ha":1008,"x_min":-18,"x_max":1012,"o":"m 828 53 q 756 7 798 24 q 663 -11 712 -11 l -18 -11 l -18 120 l 663 120 q 697 126 681 120 q 728 146 714 133 q 757 212 757 174 l 757 672 q 728 739 757 711 q 697 758 715 751 q 663 764 679 764 l 93 764 l 93 895 l 663 895 q 755 878 712 895 q 832 829 798 861 q 883 757 865 798 q 901 672 901 716 l 901 212 q 909 174 901 191 q 930 146 917 158 q 1012 119 957 119 l 1012 -12 q 903 5 944 -12 q 828 53 861 22 m 425 1107 l 570 1107 l 570 976 l 425 976 l 425 1107 z "},"د":{"ha":660,"x_min":87,"x_max":564,"o":"m 197 897 l 326 897 q 417 878 374 897 q 495 829 461 860 q 546 758 528 798 q 564 673 564 717 l 564 212 q 561 173 564 191 q 555 149 557 155 q 546 128 553 142 q 497 57 530 87 q 420 8 464 26 q 326 -11 376 -11 l 87 -11 l 87 119 l 326 119 q 391 146 364 119 q 418 212 418 172 l 418 673 q 410 710 418 692 q 391 739 405 726 q 326 765 363 765 l 197 765 l 197 897 z "},"ﺩ":{"ha":660,"x_min":87,"x_max":564,"o":"m 197 897 l 326 897 q 417 878 374 897 q 495 829 461 860 q 546 758 528 798 q 564 673 564 717 l 564 212 q 561 173 564 191 q 555 149 557 155 q 546 128 553 142 q 497 57 530 87 q 420 8 464 26 q 326 -11 376 -11 l 87 -11 l 87 119 l 326 119 q 391 146 364 119 q 418 212 418 172 l 418 673 q 410 710 418 692 q 391 739 405 726 q 326 765 363 765 l 197 765 l 197 897 z "},"ﺪ":{"ha":675,"x_min":89,"x_max":677,"o":"m 495 52 l 493 54 q 420 8 464 27 q 328 -9 378 -9 l 89 -9 l 89 121 l 328 121 q 393 149 366 121 q 421 214 421 174 l 421 675 q 414 712 421 694 q 393 741 406 729 q 328 767 366 767 l 199 767 l 199 899 l 328 899 q 419 881 375 899 q 498 831 463 863 q 548 760 530 802 q 566 675 566 719 l 566 214 q 574 178 566 195 q 595 146 582 161 q 624 127 606 134 q 657 120 640 121 l 677 120 l 677 -10 q 635 -9 647 -10 q 608 -5 624 -7 q 569 7 591 -2 q 528 27 546 16 q 495 52 511 37 z "},"ذ":{"ha":660,"x_min":87,"x_max":564,"o":"m 197 897 l 326 897 q 417 878 374 897 q 495 829 461 860 q 546 758 528 798 q 564 673 564 717 l 564 212 q 561 173 564 191 q 555 149 557 155 q 546 128 553 142 q 497 57 530 87 q 420 8 464 26 q 326 -11 376 -11 l 87 -11 l 87 119 l 326 119 q 391 146 364 119 q 418 212 418 172 l 418 673 q 410 710 418 692 q 391 739 405 726 q 326 765 363 765 l 197 765 l 197 897 m 197 1107 l 342 1107 l 342 976 l 197 976 l 197 1107 z "},"ﺫ":{"ha":660,"x_min":87,"x_max":564,"o":"m 197 897 l 326 897 q 417 878 374 897 q 495 829 461 860 q 546 758 528 798 q 564 673 564 717 l 564 212 q 561 173 564 191 q 555 149 557 155 q 546 128 553 142 q 497 57 530 87 q 420 8 464 26 q 326 -11 376 -11 l 87 -11 l 87 119 l 326 119 q 391 146 364 119 q 418 212 418 172 l 418 673 q 410 710 418 692 q 391 739 405 726 q 326 765 363 765 l 197 765 l 197 897 m 197 1107 l 342 1107 l 342 976 l 197 976 l 197 1107 z "},"ﺬ":{"ha":673,"x_min":89,"x_max":677,"o":"m 199 1109 l 345 1109 l 345 977 l 199 977 l 199 1109 m 495 52 l 493 54 q 420 8 464 27 q 328 -9 378 -9 l 89 -9 l 89 121 l 328 121 q 393 149 366 121 q 421 214 421 174 l 421 675 q 414 712 421 694 q 393 741 406 729 q 328 767 366 767 l 199 767 l 199 899 l 328 899 q 419 881 375 899 q 498 831 463 863 q 548 760 530 802 q 566 675 566 719 l 566 214 q 574 178 566 195 q 595 146 582 161 q 624 127 606 134 q 657 120 640 121 l 677 120 l 677 -10 q 635 -9 647 -10 q 608 -5 624 -7 q 569 7 591 -2 q 528 27 546 16 q 495 52 511 37 z "},"ر":{"ha":446,"x_min":85,"x_max":341,"o":"m 341 897 l 341 -10 q 322 -96 341 -55 q 272 -168 304 -137 q 195 -215 239 -198 q 105 -233 152 -231 l 85 -233 l 85 -102 l 106 -102 q 138 -94 120 -102 q 168 -76 157 -87 q 197 -10 197 -49 l 197 897 l 341 897 z "},"ﺭ":{"ha":446,"x_min":85,"x_max":341,"o":"m 341 897 l 341 -10 q 322 -96 341 -55 q 272 -168 304 -137 q 195 -215 239 -198 q 105 -233 152 -231 l 85 -233 l 85 -102 l 106 -102 q 138 -94 120 -102 q 168 -76 157 -87 q 197 -10 197 -49 l 197 897 l 341 897 z "},"ﺮ":{"ha":456,"x_min":95,"x_max":462,"o":"m 351 211 q 380 146 351 172 q 410 127 393 134 q 442 120 427 120 l 462 120 l 462 -11 q 351 5 378 -11 l 351 -9 q 332 -95 351 -54 q 281 -166 313 -136 q 204 -214 249 -197 q 115 -232 161 -230 l 95 -232 l 95 -101 q 129 -98 119 -101 q 146 -93 139 -96 q 178 -73 166 -85 q 198 -44 190 -62 q 206 -9 206 -27 l 206 898 l 351 898 l 351 211 z "},"ز":{"ha":446,"x_min":85,"x_max":344,"o":"m 341 897 l 341 -10 q 322 -96 341 -55 q 272 -168 304 -137 q 195 -215 239 -198 q 105 -233 152 -231 l 85 -233 l 85 -102 l 106 -102 q 138 -94 120 -102 q 168 -76 157 -87 q 197 -10 197 -49 l 197 897 l 341 897 m 199 1107 l 344 1107 l 344 976 l 199 976 l 199 1107 z "},"ﺯ":{"ha":446,"x_min":85,"x_max":344,"o":"m 341 897 l 341 -10 q 322 -96 341 -55 q 272 -168 304 -137 q 195 -215 239 -198 q 105 -233 152 -231 l 85 -233 l 85 -102 l 106 -102 q 138 -94 120 -102 q 168 -76 157 -87 q 197 -10 197 -49 l 197 897 l 341 897 m 199 1107 l 344 1107 l 344 976 l 199 976 l 199 1107 z "},"ﺰ":{"ha":455,"x_min":95,"x_max":462,"o":"m 351 211 q 380 146 351 172 q 410 127 393 134 q 442 120 427 120 l 462 120 l 462 -11 q 351 5 378 -11 l 351 -9 q 332 -95 351 -54 q 281 -166 313 -136 q 204 -214 249 -197 q 115 -232 161 -230 l 95 -232 l 95 -101 q 129 -98 119 -101 q 146 -93 139 -96 q 178 -73 166 -85 q 198 -44 190 -62 q 206 -9 206 -27 l 206 898 l 351 898 l 351 211 m 206 1108 l 351 1108 l 351 977 l 206 977 l 206 1108 z "},"ژ":{"ha":446,"x_min":77,"x_max":444,"o":"m 341 897 l 341 -10 q 322 -96 341 -55 q 272 -168 304 -137 q 195 -215 239 -198 q 105 -233 152 -231 l 85 -233 l 85 -102 q 138 -95 119 -102 q 168 -76 157 -87 q 197 -10 197 -49 l 197 897 l 341 897 m 333 1101 l 444 1101 l 444 970 l 299 970 l 299 1080 l 189 1080 l 189 1212 l 333 1212 l 333 1101 m 77 1101 l 222 1101 l 222 970 l 77 970 l 77 1101 z "},"ﮊ":{"ha":446,"x_min":77,"x_max":444,"o":"m 341 897 l 341 -10 q 322 -96 341 -55 q 272 -168 304 -137 q 195 -215 239 -198 q 105 -233 152 -231 l 85 -233 l 85 -102 q 138 -95 119 -102 q 168 -76 157 -87 q 197 -10 197 -49 l 197 897 l 341 897 m 333 1101 l 444 1101 l 444 970 l 299 970 l 299 1080 l 189 1080 l 189 1212 l 333 1212 l 333 1101 m 77 1101 l 222 1101 l 222 970 l 77 970 l 77 1101 z "},"ﮋ":{"ha":473,"x_min":95,"x_max":479,"o":"m 368 211 q 397 146 368 172 q 428 127 410 134 q 479 120 446 120 l 479 -11 q 368 5 396 -11 l 368 -9 q 350 -95 368 -54 q 299 -166 331 -136 q 222 -214 267 -197 q 132 -232 179 -230 l 113 -232 l 113 -101 l 132 -101 q 146 -98 138 -100 q 164 -93 157 -96 q 196 -73 184 -85 q 216 -44 208 -62 q 224 -9 224 -27 l 224 898 l 368 898 l 368 211 m 351 1101 l 462 1101 l 462 970 l 317 970 l 317 1080 l 206 1080 l 206 1212 l 351 1212 l 351 1101 m 95 1101 l 240 1101 l 240 970 l 95 970 l 95 1101 z "},"س":{"ha":1885,"x_min":95,"x_max":1789,"o":"m 1053 52 q 979 4 1019 22 q 934 -8 955 -5 q 886 -13 916 -13 l 333 -13 q 239 6 284 -10 q 162 57 194 27 q 112 126 130 87 q 95 212 95 166 l 95 671 q 114 757 95 715 q 163 828 133 800 q 241 877 199 860 q 333 895 283 895 l 460 895 l 460 764 l 333 764 q 299 757 317 764 q 269 737 281 749 q 239 671 239 710 l 239 212 q 269 146 239 173 q 298 125 282 132 q 333 119 313 119 l 886 119 q 923 126 905 119 q 952 145 940 133 q 972 176 964 158 q 980 212 980 194 l 980 895 l 1125 895 l 1125 210 q 1154 145 1125 172 q 1185 125 1168 132 q 1215 119 1200 119 l 1219 119 q 1284 144 1257 119 q 1304 175 1297 158 q 1312 210 1312 191 l 1312 895 l 1457 895 l 1457 210 q 1486 144 1457 172 q 1515 125 1499 131 q 1550 119 1531 119 q 1617 147 1589 119 q 1636 175 1628 158 q 1645 210 1645 191 l 1645 895 l 1789 895 l 1789 210 q 1771 126 1789 166 q 1719 54 1754 85 q 1643 4 1685 22 q 1597 -8 1619 -5 q 1553 -13 1581 -11 l 1550 -13 q 1502 -7 1527 -13 q 1457 5 1477 -2 q 1384 52 1413 25 q 1312 5 1352 22 q 1219 -13 1270 -13 q 1124 5 1171 -13 q 1053 52 1082 24 z "},"ﺱ":{"ha":1885,"x_min":95,"x_max":1789,"o":"m 1053 52 q 979 4 1019 22 q 934 -8 955 -5 q 886 -13 916 -13 l 333 -13 q 239 6 284 -10 q 162 57 194 27 q 112 126 130 87 q 95 212 95 166 l 95 671 q 114 757 95 715 q 163 828 133 800 q 241 877 199 860 q 333 895 283 895 l 460 895 l 460 764 l 333 764 q 299 757 317 764 q 269 737 281 749 q 239 671 239 710 l 239 212 q 269 146 239 173 q 298 125 282 132 q 333 119 313 119 l 886 119 q 923 126 905 119 q 952 145 940 133 q 972 176 964 158 q 980 212 980 194 l 980 895 l 1125 895 l 1125 210 q 1154 145 1125 172 q 1185 125 1168 132 q 1215 119 1200 119 l 1219 119 q 1284 144 1257 119 q 1304 175 1297 158 q 1312 210 1312 191 l 1312 895 l 1457 895 l 1457 210 q 1486 144 1457 172 q 1515 125 1499 131 q 1550 119 1531 119 q 1617 147 1589 119 q 1636 175 1628 158 q 1645 210 1645 191 l 1645 895 l 1789 895 l 1789 210 q 1771 126 1789 166 q 1719 54 1754 85 q 1643 4 1685 22 q 1597 -8 1619 -5 q 1553 -13 1581 -11 l 1550 -13 q 1502 -7 1527 -13 q 1457 5 1477 -2 q 1384 52 1413 25 q 1312 5 1352 22 q 1219 -13 1270 -13 q 1124 5 1171 -13 q 1053 52 1082 24 z "},"ﺲ":{"ha":1895,"x_min":99,"x_max":1904,"o":"m 1056 53 q 984 7 1027 26 q 939 -6 964 -1 q 890 -12 914 -12 l 336 -12 q 311 -8 322 -9 q 284 -5 300 -7 q 244 7 269 -2 q 169 56 203 25 q 117 129 135 87 q 104 169 109 147 q 99 213 99 191 l 99 673 q 116 757 99 717 q 166 827 133 798 q 245 876 199 857 q 337 896 291 896 l 465 896 l 465 765 l 337 765 q 302 758 320 765 q 271 739 288 752 q 243 673 243 712 l 243 213 q 251 177 243 195 q 271 147 259 159 q 301 127 283 134 q 337 121 318 121 l 890 121 q 925 127 907 121 q 955 147 942 134 q 984 212 984 173 l 984 896 l 1129 896 l 1129 213 q 1130 193 1129 199 q 1136 175 1131 186 q 1158 146 1144 158 q 1219 120 1183 121 l 1226 120 q 1258 126 1244 121 q 1287 146 1274 132 q 1316 212 1316 174 l 1316 896 l 1461 896 l 1461 212 q 1469 176 1461 192 q 1489 146 1476 159 q 1552 120 1516 121 l 1558 120 q 1588 127 1571 121 q 1619 146 1605 134 q 1649 212 1649 174 l 1649 896 l 1793 896 l 1793 212 q 1801 176 1793 193 q 1822 146 1809 159 q 1883 120 1848 121 l 1904 120 l 1904 -12 l 1884 -12 q 1862 -9 1872 -12 q 1834 -6 1850 -9 q 1794 5 1818 -3 q 1721 54 1756 22 q 1648 7 1692 26 q 1603 -6 1628 -1 q 1554 -12 1578 -12 q 1462 6 1503 -12 q 1388 53 1423 22 q 1316 7 1360 26 q 1271 -6 1296 -1 q 1223 -12 1246 -12 l 1220 -12 q 1198 -9 1208 -12 q 1170 -6 1186 -9 q 1130 5 1154 -3 q 1056 53 1090 23 z "},"ﺳ":{"ha":983,"x_min":-7,"x_max":913,"o":"m 177 52 q 104 7 146 24 q -7 -13 59 -13 l -7 119 q 77 146 50 119 q 104 210 104 173 l 104 895 l 249 895 l 249 210 q 257 175 249 191 q 276 147 265 158 q 342 119 304 119 l 346 119 q 376 125 359 119 q 408 145 393 132 q 436 210 436 172 l 436 895 l 581 895 l 581 210 q 588 174 581 193 q 610 145 596 157 q 671 119 637 119 l 677 119 q 709 125 692 119 q 741 146 727 132 q 768 210 768 172 l 768 895 l 913 895 l 913 210 q 909 171 913 189 q 904 146 906 153 q 895 126 902 140 q 845 56 878 85 q 768 6 812 26 q 674 -13 723 -13 q 583 4 623 -13 q 509 52 544 21 q 436 5 481 25 q 391 -7 416 -2 q 342 -13 366 -13 q 251 5 294 -13 q 177 52 209 23 z "},"ﺴ":{"ha":1006,"x_min":-14,"x_max":1016,"o":"m 501 52 q 429 7 473 26 q 383 -5 408 -1 q 338 -12 360 -9 l 335 -12 q 242 6 288 -12 q 201 28 218 16 q 169 53 186 38 q 96 8 138 26 q -14 -12 52 -12 l -14 120 q 69 147 41 120 q 97 212 97 174 l 97 896 l 241 896 l 241 212 q 250 176 241 193 q 271 146 258 159 q 332 120 297 121 l 338 120 q 368 127 352 121 q 400 146 386 134 q 429 212 429 173 l 429 896 l 573 896 l 573 212 q 581 175 573 195 q 602 146 589 158 q 667 120 629 120 q 701 127 683 120 q 732 146 718 134 q 761 212 761 173 l 761 896 l 905 896 l 905 212 q 913 176 905 193 q 935 146 922 159 q 996 120 961 121 l 1016 120 l 1016 -12 q 906 6 951 -12 q 865 28 882 16 q 833 53 850 38 q 761 7 804 26 q 716 -6 741 -1 q 667 -12 691 -12 q 642 -10 654 -12 q 615 -6 631 -9 q 574 5 599 -3 q 526 33 550 16 l 502 68 q 500 53 487 45 l 501 52 z "},"ش":{"ha":1885,"x_min":95,"x_max":1789,"o":"m 1053 52 q 979 4 1019 22 q 934 -8 955 -5 q 886 -13 916 -13 l 333 -13 q 239 6 284 -10 q 162 57 194 27 q 112 126 130 87 q 95 212 95 166 l 95 671 q 114 757 95 715 q 163 828 133 800 q 241 877 199 860 q 333 895 283 895 l 460 895 l 460 764 l 333 764 q 299 757 317 764 q 269 737 281 749 q 239 671 239 710 l 239 212 q 269 146 239 173 q 298 125 282 132 q 333 119 313 119 l 886 119 q 923 126 905 119 q 952 145 940 133 q 972 176 964 158 q 980 212 980 194 l 980 895 l 1125 895 l 1125 210 q 1154 145 1125 172 q 1185 125 1168 132 q 1215 119 1200 119 l 1219 119 q 1284 144 1257 119 q 1304 175 1297 158 q 1312 210 1312 191 l 1312 895 l 1457 895 l 1457 210 q 1486 144 1457 172 q 1514 125 1499 131 q 1548 119 1529 119 l 1550 119 q 1617 147 1589 119 q 1636 175 1628 158 q 1645 210 1645 191 l 1645 895 l 1789 895 l 1789 210 q 1771 126 1789 166 q 1719 54 1754 85 q 1643 4 1685 22 q 1597 -8 1619 -5 q 1553 -13 1581 -11 l 1550 -13 q 1502 -7 1527 -13 q 1457 5 1477 -2 q 1384 52 1413 25 q 1312 4 1352 22 q 1221 -13 1271 -11 l 1219 -13 q 1124 5 1171 -13 q 1053 52 1082 24 m 1312 1107 l 1457 1107 l 1457 977 l 1312 977 l 1312 1107 m 1236 977 l 1091 977 l 1091 1107 l 1236 1107 l 1236 977 m 1678 977 l 1533 977 l 1533 1107 l 1678 1107 l 1678 977 z "},"ﺵ":{"ha":1885,"x_min":95,"x_max":1789,"o":"m 1053 52 q 979 4 1019 22 q 934 -8 955 -5 q 886 -13 916 -13 l 333 -13 q 239 6 284 -10 q 162 57 194 27 q 112 126 130 87 q 95 212 95 166 l 95 671 q 114 757 95 715 q 163 828 133 800 q 241 877 199 860 q 333 895 283 895 l 460 895 l 460 764 l 333 764 q 299 757 317 764 q 269 737 281 749 q 239 671 239 710 l 239 212 q 269 146 239 173 q 298 125 282 132 q 333 119 313 119 l 886 119 q 923 126 905 119 q 952 145 940 133 q 972 176 964 158 q 980 212 980 194 l 980 895 l 1125 895 l 1125 210 q 1154 145 1125 172 q 1185 125 1168 132 q 1215 119 1200 119 l 1219 119 q 1284 144 1257 119 q 1304 175 1297 158 q 1312 210 1312 191 l 1312 895 l 1457 895 l 1457 210 q 1486 144 1457 172 q 1514 125 1499 131 q 1548 119 1529 119 l 1550 119 q 1617 147 1589 119 q 1636 175 1628 158 q 1645 210 1645 191 l 1645 895 l 1789 895 l 1789 210 q 1771 126 1789 166 q 1719 54 1754 85 q 1643 4 1685 22 q 1597 -8 1619 -5 q 1553 -13 1581 -11 l 1550 -13 q 1502 -7 1527 -13 q 1457 5 1477 -2 q 1384 52 1413 25 q 1312 4 1352 22 q 1221 -13 1271 -11 l 1219 -13 q 1124 5 1171 -13 q 1053 52 1082 24 m 1312 1107 l 1457 1107 l 1457 977 l 1312 977 l 1312 1107 m 1236 977 l 1091 977 l 1091 1107 l 1236 1107 l 1236 977 m 1678 977 l 1533 977 l 1533 1107 l 1678 1107 l 1678 977 z "},"ﺶ":{"ha":1895,"x_min":99,"x_max":1904,"o":"m 1683 979 l 1537 979 l 1537 1109 l 1683 1109 l 1683 979 m 1240 979 l 1095 979 l 1095 1109 l 1240 1109 l 1240 979 m 1316 1109 l 1461 1109 l 1461 979 l 1316 979 l 1316 1109 m 1056 53 q 984 7 1027 26 q 939 -6 964 -1 q 890 -12 914 -12 l 336 -12 q 311 -8 322 -9 q 284 -5 300 -7 q 244 7 269 -2 q 169 56 203 25 q 117 129 135 87 q 104 169 109 147 q 99 213 99 191 l 99 673 q 116 757 99 717 q 166 827 133 798 q 245 876 199 857 q 337 896 291 896 l 465 896 l 465 765 l 337 765 q 302 758 320 765 q 271 739 288 752 q 243 673 243 712 l 243 213 q 251 177 243 195 q 271 147 259 159 q 301 127 283 134 q 337 121 318 121 l 890 121 q 925 127 907 121 q 955 147 942 134 q 984 212 984 173 l 984 896 l 1129 896 l 1129 213 q 1130 193 1129 199 q 1136 175 1131 186 q 1158 146 1144 158 q 1219 120 1183 121 l 1226 120 q 1258 126 1244 121 q 1287 146 1274 132 q 1316 212 1316 174 l 1316 896 l 1461 896 l 1461 212 q 1469 176 1461 192 q 1489 146 1476 159 q 1552 120 1516 121 l 1558 120 q 1588 127 1571 121 q 1619 146 1605 134 q 1649 212 1649 174 l 1649 896 l 1793 896 l 1793 212 q 1801 176 1793 193 q 1822 146 1809 159 q 1883 120 1848 121 l 1904 120 l 1904 -12 l 1884 -12 q 1862 -9 1872 -12 q 1834 -6 1850 -9 q 1794 5 1818 -3 q 1721 54 1756 22 q 1648 7 1692 26 q 1603 -6 1628 -1 q 1554 -12 1578 -12 q 1462 6 1503 -12 q 1388 53 1423 22 q 1316 7 1360 26 q 1271 -6 1296 -1 q 1223 -12 1246 -12 l 1220 -12 q 1198 -9 1208 -12 q 1170 -6 1186 -9 q 1130 5 1154 -3 q 1056 53 1090 23 z "},"ﺷ":{"ha":961,"x_min":-7,"x_max":912,"o":"m 802 976 l 656 976 l 656 1107 l 802 1107 l 802 976 m 359 976 l 214 976 l 214 1107 l 359 1107 l 359 976 m 435 1107 l 580 1107 l 580 976 l 435 976 l 435 1107 m 176 52 q 103 7 145 24 q -7 -13 58 -13 l -7 119 q 76 146 49 119 q 103 210 103 173 l 103 895 l 248 895 l 248 210 q 256 175 248 191 q 277 144 264 158 q 338 119 302 119 l 345 119 q 375 125 359 119 q 407 145 393 132 q 435 210 435 172 l 435 895 l 580 895 l 580 210 q 587 174 580 193 q 609 145 595 157 q 673 119 636 119 q 708 125 690 119 q 741 146 726 132 q 768 210 768 172 l 768 895 l 912 895 l 912 210 q 909 171 912 189 q 903 146 905 153 q 894 126 901 140 q 845 56 878 85 q 768 7 812 26 q 676 -13 724 -11 l 673 -13 q 583 4 622 -13 q 509 52 543 21 q 435 5 480 25 q 390 -7 415 -2 q 345 -13 367 -11 l 342 -13 q 250 5 294 -13 q 176 52 208 23 z "},"ﺸ":{"ha":1015,"x_min":-7,"x_max":1023,"o":"m 355 978 l 211 978 l 211 1109 l 355 1109 l 355 978 m 798 978 l 654 978 l 654 1109 l 798 1109 l 798 978 m 432 1109 l 576 1109 l 576 978 l 432 978 l 432 1109 m 508 52 q 435 7 480 26 q 390 -5 415 -1 q 345 -12 367 -9 l 342 -12 q 249 6 294 -12 q 208 28 224 16 q 176 53 193 38 q 103 8 145 26 q -7 -12 58 -12 l -7 120 q 76 147 47 120 q 104 212 104 174 l 104 896 l 248 896 l 248 212 q 256 176 248 193 q 277 146 264 159 q 338 120 304 121 l 345 120 q 375 127 359 121 q 407 146 393 134 q 435 212 435 173 l 435 896 l 580 896 l 580 212 q 587 175 580 195 q 609 146 595 158 q 674 120 636 120 q 707 127 690 120 q 739 146 725 134 q 768 212 768 173 l 768 896 l 912 896 l 912 212 q 920 176 912 193 q 941 146 928 159 q 1002 120 968 121 l 1023 120 l 1023 -12 q 913 6 958 -12 q 872 28 888 16 q 840 53 857 38 q 768 7 811 26 q 723 -6 747 -1 q 674 -12 698 -12 q 649 -10 661 -12 q 622 -6 637 -9 q 581 5 606 -3 q 533 33 557 16 l 509 68 q 507 53 494 45 l 508 52 z "},"ص":{"ha":2331,"x_min":98,"x_max":2241,"o":"m 465 765 l 337 765 q 272 739 298 765 q 251 708 258 726 q 243 673 243 690 l 243 212 q 250 176 243 193 q 272 146 262 155 q 303 126 286 133 q 337 120 319 120 l 892 120 q 958 147 930 120 q 986 212 986 174 l 986 897 l 1131 897 l 1131 819 q 1204 866 1144 835 q 1331 897 1265 897 l 2005 897 q 2104 870 2058 897 q 2181 800 2150 843 q 2226 706 2212 756 q 2241 598 2241 656 l 2241 287 q 2237 230 2241 257 q 2233 206 2236 222 q 2226 178 2229 190 q 2182 87 2210 128 q 2104 15 2148 41 q 2005 -12 2059 -12 l 1222 -12 q 1127 13 1171 -12 q 1066 59 1082 38 l 1069 62 l 1062 56 q 1025 26 1042 37 q 985 5 1008 14 q 892 -12 943 -12 l 337 -12 q 242 6 288 -12 q 166 56 198 27 q 116 128 133 87 q 98 212 98 169 l 98 673 q 117 758 98 717 q 169 831 135 800 q 245 879 203 862 q 337 897 287 897 l 465 897 l 465 765 m 1200 682 q 1170 632 1181 656 q 1149 575 1158 607 q 1135 512 1139 544 q 1131 443 1131 481 l 1131 285 q 1168 157 1131 209 q 1196 128 1183 136 q 1222 120 1209 120 l 2005 120 q 2032 129 2017 120 q 2059 157 2047 138 q 2087 217 2077 182 q 2096 287 2096 252 l 2096 598 q 2085 670 2096 634 q 2059 728 2075 705 q 2005 765 2032 765 l 1331 765 q 1261 743 1297 765 q 1200 682 1226 721 z "},"ﺹ":{"ha":2331,"x_min":98,"x_max":2241,"o":"m 465 765 l 337 765 q 272 739 298 765 q 251 708 258 726 q 243 673 243 690 l 243 212 q 250 176 243 193 q 272 146 262 155 q 303 126 286 133 q 337 120 319 120 l 892 120 q 958 147 930 120 q 986 212 986 174 l 986 897 l 1131 897 l 1131 819 q 1204 866 1144 835 q 1331 897 1265 897 l 2005 897 q 2104 870 2058 897 q 2181 800 2150 843 q 2226 706 2212 756 q 2241 598 2241 656 l 2241 287 q 2237 230 2241 257 q 2233 206 2236 222 q 2226 178 2229 190 q 2182 87 2210 128 q 2104 15 2148 41 q 2005 -12 2059 -12 l 1222 -12 q 1127 13 1171 -12 q 1066 59 1082 38 l 1069 62 l 1062 56 q 1025 26 1042 37 q 985 5 1008 14 q 892 -12 943 -12 l 337 -12 q 242 6 288 -12 q 166 56 198 27 q 116 128 133 87 q 98 212 98 169 l 98 673 q 117 758 98 717 q 169 831 135 800 q 245 879 203 862 q 337 897 287 897 l 465 897 l 465 765 m 1200 682 q 1170 632 1181 656 q 1149 575 1158 607 q 1135 512 1139 544 q 1131 443 1131 481 l 1131 285 q 1168 157 1131 209 q 1196 128 1183 136 q 1222 120 1209 120 l 2005 120 q 2032 129 2017 120 q 2059 157 2047 138 q 2087 217 2077 182 q 2096 287 2096 252 l 2096 598 q 2085 670 2096 634 q 2059 728 2075 705 q 2005 765 2032 765 l 1331 765 q 1261 743 1297 765 q 1200 682 1226 721 z "},"ﺺ":{"ha":2315,"x_min":86,"x_max":2319,"o":"m 1179 678 q 1127 571 1145 632 q 1114 509 1118 543 q 1109 441 1109 476 l 1109 285 q 1120 215 1109 249 q 1145 160 1131 181 q 1174 131 1160 140 q 1200 121 1187 121 l 1976 121 q 2002 131 1988 121 q 2028 159 2017 141 q 2065 287 2065 211 l 2065 595 q 2055 666 2065 632 q 2030 722 2045 701 q 2001 752 2015 743 q 1976 761 1988 761 l 1308 761 q 1240 740 1274 761 q 1207 714 1222 729 q 1179 678 1192 699 m 2133 66 q 2066 14 2106 35 q 1976 -9 2024 -9 l 1200 -9 q 1105 15 1150 -9 q 1045 62 1063 39 l 1041 58 q 964 9 1005 26 q 873 -9 924 -9 l 323 -9 q 277 -4 297 -9 q 248 3 258 0 q 230 8 239 5 q 155 57 186 28 q 103 130 120 91 q 86 213 86 169 l 86 669 q 104 753 86 711 q 156 826 122 795 q 231 874 190 857 q 323 891 273 891 l 450 891 l 450 761 l 323 761 q 258 734 285 761 q 237 707 244 723 q 230 669 230 691 l 230 213 q 258 148 230 173 q 289 128 272 135 q 323 121 307 121 l 873 121 q 937 148 911 121 q 959 176 951 160 q 966 213 966 193 l 966 891 l 1109 891 l 1109 814 q 1183 861 1123 830 q 1308 891 1244 891 l 1976 891 q 2074 864 2029 891 q 2150 793 2119 838 q 2184 731 2170 766 q 2203 661 2197 703 l 2209 595 l 2209 212 q 2237 146 2209 172 q 2266 126 2250 132 q 2298 120 2281 121 l 2319 120 l 2319 -10 l 2299 -10 q 2210 7 2252 -8 q 2138 56 2167 26 l 2133 66 z "},"ﺻ":{"ha":1431,"x_min":-3,"x_max":1350,"o":"m 1171 722 q 1140 753 1154 744 q 1116 761 1129 761 l 448 761 q 380 740 414 761 q 347 714 362 729 q 317 677 332 699 q 268 571 286 631 q 255 509 259 543 q 250 441 250 476 l 250 287 q 261 216 250 251 q 286 159 271 180 q 315 129 302 139 q 340 121 328 121 l 1116 121 q 1141 130 1128 121 q 1169 159 1157 140 q 1206 287 1206 211 l 1206 595 q 1195 667 1206 632 q 1171 722 1185 702 m 180 55 q 106 7 147 24 q -3 -10 65 -10 l -3 120 l 16 120 q 78 146 51 121 q 99 175 92 159 q 106 212 106 191 l 106 891 l 250 891 l 250 814 q 323 861 264 831 q 448 891 381 891 l 1116 891 q 1214 865 1169 891 q 1292 793 1259 838 q 1317 750 1308 770 q 1335 702 1327 729 q 1346 650 1343 675 q 1350 595 1350 625 l 1350 287 q 1333 180 1350 233 q 1291 90 1317 126 q 1213 17 1256 43 q 1116 -9 1171 -9 l 340 -9 q 245 15 291 -9 q 183 60 202 42 l 180 55 z "},"ﺼ":{"ha":1442,"x_min":-10,"x_max":1453,"o":"m 1162 722 q 1135 752 1147 744 q 1109 760 1122 760 l 441 760 q 374 739 408 760 q 312 677 340 717 q 261 570 279 631 q 248 509 252 542 q 243 440 243 475 l 243 286 q 254 215 243 250 q 279 159 264 180 q 308 130 295 138 q 334 121 321 121 l 1109 121 q 1136 131 1121 121 q 1164 159 1150 140 q 1179 184 1173 172 q 1190 215 1184 197 q 1200 286 1200 251 l 1200 594 q 1197 633 1200 616 q 1189 666 1194 649 q 1162 722 1178 701 m 243 890 l 243 813 q 316 860 258 830 q 441 890 374 890 l 1109 890 q 1208 864 1163 890 q 1284 792 1253 837 q 1337 661 1325 736 l 1343 626 l 1343 211 q 1372 146 1343 172 q 1402 126 1385 133 q 1433 119 1418 120 l 1453 119 l 1453 -11 l 1434 -11 q 1344 7 1388 -9 q 1268 56 1299 27 l 1257 66 l 1263 60 q 1202 14 1245 37 q 1109 -9 1158 -9 l 334 -9 q 240 15 283 -9 q 180 60 196 39 l 176 56 q 100 7 141 24 q -10 -11 58 -11 l -10 119 q 71 145 44 119 q 92 175 84 159 q 100 211 100 191 l 100 890 l 243 890 z "},"ض":{"ha":2331,"x_min":98,"x_max":2241,"o":"m 465 765 l 337 765 q 272 739 298 765 q 251 708 258 726 q 243 673 243 690 l 243 212 q 250 176 243 193 q 272 146 262 155 q 303 126 286 133 q 337 120 319 120 l 892 120 q 958 147 930 120 q 986 212 986 174 l 986 897 l 1131 897 l 1131 819 q 1204 866 1144 835 q 1331 897 1265 897 l 2005 897 q 2104 870 2058 897 q 2181 800 2150 843 q 2226 706 2212 756 q 2241 598 2241 656 l 2241 287 q 2237 230 2241 257 q 2233 206 2236 222 q 2226 178 2229 190 q 2182 87 2210 128 q 2104 15 2148 41 q 2005 -12 2059 -12 l 1222 -12 q 1127 13 1171 -12 q 1066 59 1082 38 l 1069 62 l 1062 56 q 1025 26 1042 37 q 985 5 1008 14 q 892 -12 943 -12 l 337 -12 q 242 6 288 -12 q 166 56 198 27 q 116 128 133 87 q 98 212 98 169 l 98 673 q 117 758 98 717 q 169 831 135 800 q 245 879 203 862 q 337 897 287 897 l 465 897 l 465 765 m 1200 682 q 1170 632 1181 656 q 1149 575 1158 607 q 1135 512 1139 544 q 1131 443 1131 481 l 1131 285 q 1168 157 1131 209 q 1196 128 1183 136 q 1222 120 1209 120 l 2005 120 q 2032 129 2017 120 q 2059 157 2047 138 q 2087 217 2077 182 q 2096 287 2096 252 l 2096 598 q 2085 670 2096 634 q 2059 728 2075 705 q 2005 765 2032 765 l 1331 765 q 1261 743 1297 765 q 1200 682 1226 721 m 1541 1107 l 1686 1107 l 1686 975 l 1541 975 l 1541 1107 z "},"ﺽ":{"ha":2331,"x_min":98,"x_max":2241,"o":"m 465 765 l 337 765 q 272 739 298 765 q 251 708 258 726 q 243 673 243 690 l 243 212 q 250 176 243 193 q 272 146 262 155 q 303 126 286 133 q 337 120 319 120 l 892 120 q 958 147 930 120 q 986 212 986 174 l 986 897 l 1131 897 l 1131 819 q 1204 866 1144 835 q 1331 897 1265 897 l 2005 897 q 2104 870 2058 897 q 2181 800 2150 843 q 2226 706 2212 756 q 2241 598 2241 656 l 2241 287 q 2237 230 2241 257 q 2233 206 2236 222 q 2226 178 2229 190 q 2182 87 2210 128 q 2104 15 2148 41 q 2005 -12 2059 -12 l 1222 -12 q 1127 13 1171 -12 q 1066 59 1082 38 l 1069 62 l 1062 56 q 1025 26 1042 37 q 985 5 1008 14 q 892 -12 943 -12 l 337 -12 q 242 6 288 -12 q 166 56 198 27 q 116 128 133 87 q 98 212 98 169 l 98 673 q 117 758 98 717 q 169 831 135 800 q 245 879 203 862 q 337 897 287 897 l 465 897 l 465 765 m 1200 682 q 1170 632 1181 656 q 1149 575 1158 607 q 1135 512 1139 544 q 1131 443 1131 481 l 1131 285 q 1168 157 1131 209 q 1196 128 1183 136 q 1222 120 1209 120 l 2005 120 q 2032 129 2017 120 q 2059 157 2047 138 q 2087 217 2077 182 q 2096 287 2096 252 l 2096 598 q 2085 670 2096 634 q 2059 728 2075 705 q 2005 765 2032 765 l 1331 765 q 1261 743 1297 765 q 1200 682 1226 721 m 1541 1107 l 1686 1107 l 1686 975 l 1541 975 l 1541 1107 z "},"ﺾ":{"ha":2325,"x_min":86,"x_max":2332,"o":"m 1179 678 q 1127 571 1145 632 q 1114 509 1118 543 q 1109 441 1109 476 l 1109 285 q 1120 215 1109 249 q 1145 160 1131 181 q 1174 131 1160 140 q 1200 121 1187 121 l 1976 121 q 2002 131 1988 121 q 2028 159 2017 141 q 2065 287 2065 211 l 2065 595 q 2055 666 2065 632 q 2030 722 2045 701 q 2001 752 2015 743 q 1976 761 1988 761 l 1308 761 q 1240 740 1274 761 q 1207 714 1222 729 q 1179 678 1192 699 m 2130 61 q 2066 14 2106 35 q 1976 -9 2024 -9 l 1200 -9 q 1105 15 1150 -9 q 1045 62 1063 39 l 1041 58 q 964 9 1005 26 q 873 -9 924 -9 l 323 -9 q 277 -4 297 -9 q 248 3 258 0 q 230 8 239 5 q 155 57 186 28 q 103 130 120 91 q 86 213 86 169 l 86 669 q 104 753 86 711 q 156 826 122 795 q 231 874 190 857 q 323 891 273 891 l 450 891 l 450 761 l 323 761 q 258 734 285 761 q 237 707 244 723 q 230 669 230 691 l 230 213 q 258 148 230 173 q 289 128 272 135 q 323 121 307 121 l 873 121 q 937 148 911 121 q 959 176 951 160 q 966 213 966 193 l 966 891 l 1109 891 l 1109 814 q 1183 861 1123 830 q 1308 891 1244 891 l 1976 891 q 2074 864 2029 891 q 2150 793 2119 838 q 2184 731 2170 766 q 2203 661 2197 703 l 2209 595 l 2209 212 q 2237 146 2209 172 q 2266 126 2250 132 q 2332 120 2282 120 l 2332 -10 q 2210 8 2254 -10 q 2134 56 2167 26 l 2130 61 m 1516 1110 l 1659 1110 l 1659 980 l 1516 980 l 1516 1110 z "},"ﺿ":{"ha":1448,"x_min":-3,"x_max":1350,"o":"m 656 1110 l 801 1110 l 801 980 l 656 980 l 656 1110 m 1171 722 q 1141 753 1155 744 q 1116 761 1130 761 l 449 761 q 381 740 415 761 q 348 714 363 729 q 318 677 333 699 q 269 571 286 631 q 255 509 260 543 q 251 441 251 476 l 251 287 q 261 216 251 251 q 287 159 272 180 q 316 129 302 139 q 340 121 328 121 l 1116 121 q 1141 130 1128 121 q 1170 159 1158 140 q 1206 287 1206 211 l 1206 595 q 1196 667 1206 632 q 1171 722 1185 702 m 181 55 q 107 7 148 24 q -3 -10 66 -10 l -3 120 l 17 120 q 79 146 52 121 q 100 175 93 159 q 107 212 107 191 l 107 891 l 251 891 l 251 814 q 323 861 265 831 q 449 891 382 891 l 1116 891 q 1215 865 1170 891 q 1293 793 1260 838 q 1318 750 1308 770 q 1336 702 1328 729 q 1347 650 1343 675 q 1350 595 1350 625 l 1350 287 q 1334 180 1350 233 q 1292 90 1318 126 q 1214 17 1257 43 q 1116 -9 1171 -9 l 340 -9 q 246 15 292 -9 q 186 62 203 42 l 181 55 z "},"ﻀ":{"ha":1434,"x_min":-14,"x_max":1449,"o":"m 239 891 l 239 814 q 312 861 254 831 q 437 891 370 891 l 1105 891 q 1204 864 1159 891 q 1280 793 1249 838 q 1333 661 1321 736 l 1339 595 l 1339 212 q 1368 146 1339 172 q 1398 127 1381 134 q 1429 120 1414 121 l 1449 120 l 1449 -10 l 1430 -10 q 1340 8 1384 -8 q 1264 56 1295 28 l 1253 66 l 1259 61 q 1198 15 1241 38 q 1105 -9 1154 -9 l 330 -9 q 236 15 279 -9 q 176 61 192 39 l 172 57 q 96 7 137 25 q -14 -10 54 -10 l -14 120 q 66 146 40 120 q 88 176 80 159 q 96 212 96 192 l 96 891 l 239 891 m 1158 723 q 1131 753 1143 745 q 1105 761 1118 761 l 437 761 q 370 739 404 761 q 308 678 336 718 q 257 571 275 631 q 244 509 248 543 q 239 441 239 476 l 239 287 q 250 216 239 251 q 275 159 260 180 q 304 130 291 139 q 330 121 317 121 l 1105 121 q 1132 131 1117 121 q 1160 159 1146 141 q 1175 185 1169 172 q 1185 216 1180 197 q 1196 287 1196 252 l 1196 595 q 1193 633 1196 617 q 1185 667 1190 650 q 1158 723 1174 702 m 645 1107 l 789 1107 l 789 977 l 645 977 l 645 1107 z "},"ط":{"ha":1742,"x_min":80,"x_max":1653,"o":"m 553 1107 l 553 810 q 627 857 567 827 q 752 888 687 888 l 1419 888 q 1518 861 1473 888 q 1596 789 1563 835 q 1621 746 1611 767 q 1639 699 1631 726 q 1650 647 1647 672 q 1653 591 1653 622 l 1653 283 q 1637 176 1653 230 q 1595 86 1621 123 q 1517 14 1560 39 q 1419 -12 1474 -12 l 80 -13 l 80 117 l 410 117 l 410 1107 l 553 1107 m 1474 720 q 1444 749 1457 741 q 1419 758 1431 758 l 752 758 q 684 736 718 758 q 651 710 666 726 q 623 675 636 695 q 571 568 589 629 q 558 506 562 539 q 553 437 553 473 l 553 283 q 591 156 553 205 q 618 127 605 136 q 644 118 632 118 l 1419 118 q 1446 128 1432 118 q 1473 156 1461 138 q 1510 283 1510 208 l 1510 591 q 1499 664 1510 629 q 1474 720 1489 699 z "},"ﻁ":{"ha":1742,"x_min":80,"x_max":1653,"o":"m 553 1107 l 553 810 q 627 857 567 827 q 752 888 687 888 l 1419 888 q 1518 861 1473 888 q 1596 789 1563 835 q 1621 746 1611 767 q 1639 699 1631 726 q 1650 647 1647 672 q 1653 591 1653 622 l 1653 283 q 1637 176 1653 230 q 1595 86 1621 123 q 1517 14 1560 39 q 1419 -12 1474 -12 l 80 -13 l 80 117 l 410 117 l 410 1107 l 553 1107 m 1474 720 q 1444 749 1457 741 q 1419 758 1431 758 l 752 758 q 684 736 718 758 q 651 710 666 726 q 623 675 636 695 q 571 568 589 629 q 558 506 562 539 q 553 437 553 473 l 553 283 q 591 156 553 205 q 618 127 605 136 q 644 118 632 118 l 1419 118 q 1446 128 1432 118 q 1473 156 1461 138 q 1510 283 1510 208 l 1510 591 q 1499 664 1510 629 q 1474 720 1489 699 z "},"ﻂ":{"ha":1448,"x_min":-9,"x_max":1455,"o":"m 1111 -9 l 335 -9 q 242 15 285 -9 q 181 61 199 38 l 178 57 q 102 8 146 27 q -9 -10 57 -10 l -9 120 q 42 127 24 120 q 73 146 59 134 q 102 212 102 172 l 102 1111 l 245 1111 l 245 813 q 318 860 259 829 q 444 891 377 891 l 1111 891 q 1208 866 1164 891 q 1288 789 1252 840 q 1339 661 1323 739 l 1345 595 l 1345 212 q 1346 191 1345 197 q 1352 174 1347 185 q 1373 146 1359 158 q 1455 120 1400 120 l 1455 -10 q 1413 -9 1425 -10 q 1385 -5 1402 -7 q 1345 7 1369 -2 q 1305 28 1321 16 q 1270 56 1289 39 l 1259 67 l 1263 59 q 1205 15 1249 42 q 1111 -9 1160 -9 m 1136 753 q 1111 761 1124 761 l 444 761 q 376 740 410 761 q 312 677 342 719 q 263 572 282 635 q 245 441 245 509 l 245 287 q 255 216 245 250 q 267 185 260 199 q 282 159 273 172 q 310 129 294 142 q 335 121 324 121 l 1111 121 q 1136 131 1122 121 q 1164 159 1150 140 q 1201 287 1201 211 l 1201 595 q 1192 665 1201 630 q 1164 723 1182 700 q 1136 753 1152 743 z "},"ﻃ":{"ha":1442,"x_min":-8,"x_max":1345,"o":"m 246 1111 l 246 815 q 318 861 258 830 q 444 891 378 891 l 1112 891 q 1210 864 1165 891 q 1287 793 1255 838 q 1313 750 1303 770 q 1330 702 1322 729 q 1341 650 1338 675 q 1345 595 1345 625 l 1345 287 q 1329 180 1345 233 q 1287 90 1312 126 q 1210 18 1255 44 q 1112 -9 1165 -9 l 336 -9 q 241 16 287 -9 q 182 61 198 41 l 178 57 q 103 7 143 25 q 12 -10 61 -10 l -8 -10 l -8 120 l 12 120 q 73 146 47 121 q 95 175 87 159 q 102 212 102 191 l 102 1111 l 246 1111 m 1164 723 q 1137 753 1149 745 q 1112 761 1124 761 l 444 761 q 376 739 410 761 q 314 678 342 718 q 264 571 280 628 q 255 536 257 550 q 250 507 252 523 q 246 441 246 475 l 246 287 q 256 216 246 250 q 281 160 266 182 q 311 129 299 137 q 336 121 323 121 l 1112 121 q 1138 131 1123 121 q 1166 159 1152 141 q 1181 185 1175 172 q 1192 216 1186 197 q 1202 287 1202 252 l 1202 595 q 1199 633 1202 617 q 1191 667 1196 650 q 1164 723 1180 702 z "},"ﻄ":{"ha":1662,"x_min":-16,"x_max":1667,"o":"m 1323 -9 l -16 -9 l -16 123 l 313 123 l 313 1111 l 457 1111 l 457 813 q 530 860 471 829 q 656 891 589 891 l 1323 891 q 1420 866 1377 891 q 1500 789 1464 840 q 1552 661 1535 739 l 1557 595 l 1557 212 q 1558 191 1557 197 q 1564 174 1559 185 q 1586 146 1571 158 q 1667 120 1612 120 l 1667 -10 q 1558 7 1598 -10 q 1517 28 1533 17 q 1482 56 1501 39 l 1472 65 l 1476 60 q 1417 15 1461 42 q 1323 -9 1372 -9 m 1348 753 q 1323 761 1336 761 l 656 761 q 588 740 622 761 q 525 677 555 719 q 476 572 494 635 q 457 441 457 509 l 457 287 q 467 217 457 252 q 494 159 477 182 q 522 130 507 140 q 547 121 535 121 l 1323 121 q 1349 131 1335 121 q 1377 159 1362 140 q 1413 287 1413 211 l 1413 595 q 1404 665 1413 630 q 1377 723 1394 700 q 1348 753 1364 743 z "},"ظ":{"ha":1742,"x_min":80,"x_max":1653,"o":"m 553 1107 l 553 810 q 627 857 567 827 q 752 888 687 888 l 1419 888 q 1518 861 1473 888 q 1596 789 1563 835 q 1621 746 1611 767 q 1639 699 1631 726 q 1650 647 1647 672 q 1653 591 1653 622 l 1653 283 q 1637 176 1653 230 q 1595 86 1621 123 q 1517 14 1560 39 q 1419 -12 1474 -12 l 80 -12 l 80 119 l 410 119 l 410 1107 l 553 1107 m 1474 720 q 1444 749 1457 741 q 1419 758 1431 758 l 752 758 q 684 736 718 758 q 651 710 666 726 q 623 675 636 695 q 571 568 589 629 q 558 506 562 539 q 553 437 553 473 l 553 283 q 591 156 553 205 q 618 127 605 136 q 644 118 632 118 l 1419 118 q 1446 128 1432 118 q 1473 156 1461 138 q 1510 283 1510 208 l 1510 591 q 1499 664 1510 629 q 1474 720 1489 699 m 960 1107 l 1103 1107 l 1103 977 l 960 977 l 960 1107 z "},"ﻅ":{"ha":1742,"x_min":80,"x_max":1653,"o":"m 553 1107 l 553 810 q 627 857 567 827 q 752 888 687 888 l 1419 888 q 1518 861 1473 888 q 1596 789 1563 835 q 1621 746 1611 767 q 1639 699 1631 726 q 1650 647 1647 672 q 1653 591 1653 622 l 1653 283 q 1637 176 1653 230 q 1595 86 1621 123 q 1517 14 1560 39 q 1419 -12 1474 -12 l 80 -12 l 80 119 l 410 119 l 410 1107 l 553 1107 m 1474 720 q 1444 749 1457 741 q 1419 758 1431 758 l 752 758 q 684 736 718 758 q 651 710 666 726 q 623 675 636 695 q 571 568 589 629 q 558 506 562 539 q 553 437 553 473 l 553 283 q 591 156 553 205 q 618 127 605 136 q 644 118 632 118 l 1419 118 q 1446 128 1432 118 q 1473 156 1461 138 q 1510 283 1510 208 l 1510 591 q 1499 664 1510 629 q 1474 720 1489 699 m 960 1107 l 1103 1107 l 1103 977 l 960 977 l 960 1107 z "},"ﻆ":{"ha":1458,"x_min":-3,"x_max":1461,"o":"m 1117 -9 l 341 -9 q 248 15 291 -9 q 187 61 205 38 l 184 57 q 108 8 153 27 q -3 -10 63 -10 l -3 120 q 48 127 31 120 q 79 146 65 134 q 108 212 108 172 l 108 1111 l 251 1111 l 251 813 q 324 860 265 829 q 450 891 383 891 l 1117 891 q 1214 866 1171 891 q 1294 789 1258 840 q 1345 661 1329 739 l 1351 595 l 1351 212 q 1352 191 1351 197 q 1358 174 1353 185 q 1379 146 1365 158 q 1461 120 1406 120 l 1461 -10 l 1442 -10 q 1420 -8 1430 -10 q 1392 -5 1408 -7 q 1351 7 1375 -2 q 1311 28 1327 16 q 1276 56 1295 39 l 1265 67 l 1269 59 q 1211 15 1255 42 q 1117 -9 1166 -9 m 1142 753 q 1117 761 1130 761 l 450 761 q 382 740 416 761 q 318 677 349 719 q 270 572 288 635 q 251 441 251 509 l 251 287 q 261 216 251 250 q 273 185 267 199 q 288 159 279 172 q 316 129 300 142 q 341 121 330 121 l 1117 121 q 1142 131 1128 121 q 1171 159 1156 140 q 1207 287 1207 211 l 1207 595 q 1198 665 1207 630 q 1171 723 1188 700 q 1142 753 1158 743 m 657 1107 l 802 1107 l 802 977 l 657 977 l 657 1107 z "},"ﻇ":{"ha":1441,"x_min":-9,"x_max":1344,"o":"m 245 1107 l 245 812 q 317 857 258 827 q 443 888 377 888 l 1111 888 q 1209 861 1164 888 q 1286 789 1254 834 q 1312 746 1302 767 q 1330 699 1322 726 q 1341 647 1337 672 q 1344 591 1344 622 l 1344 283 q 1328 176 1344 230 q 1286 86 1312 123 q 1210 14 1255 41 q 1111 -12 1164 -12 l 335 -12 q 240 12 286 -12 q 181 58 197 37 l 177 54 q 101 3 142 22 q 11 -14 60 -12 l -9 -14 l -9 117 q 73 143 46 117 q 94 172 87 155 q 101 208 101 188 l 101 1107 l 245 1107 m 1164 720 q 1136 749 1149 741 q 1111 758 1123 758 l 443 758 q 375 736 410 758 q 313 675 341 714 q 263 568 279 625 q 254 533 256 547 q 250 504 252 519 q 245 437 245 472 l 245 283 q 255 213 245 247 q 281 157 265 179 q 311 126 298 134 q 335 118 323 118 l 1111 118 q 1137 128 1122 118 q 1165 156 1152 138 q 1180 181 1175 169 q 1191 212 1185 194 q 1201 283 1201 248 l 1201 591 q 1198 630 1201 614 q 1190 663 1196 646 q 1164 720 1179 699 m 651 1107 l 795 1107 l 795 977 l 651 977 l 651 1107 z "},"ﻈ":{"ha":1659,"x_min":-20,"x_max":1664,"o":"m 1320 -9 l -20 -9 l -20 123 l 310 123 l 310 1111 l 454 1111 l 454 813 q 527 860 468 829 q 652 891 586 891 l 1320 891 q 1417 866 1373 891 q 1496 789 1461 840 q 1548 661 1532 739 l 1554 595 l 1554 212 q 1555 191 1554 197 q 1560 174 1556 185 q 1582 146 1568 158 q 1643 120 1607 121 l 1664 120 l 1664 -10 q 1554 7 1595 -10 q 1514 28 1530 17 q 1478 56 1497 39 l 1468 65 l 1473 60 q 1414 15 1457 42 q 1320 -9 1369 -9 m 1345 753 q 1320 761 1333 761 l 652 761 q 585 740 618 761 q 521 677 551 719 q 472 572 491 635 q 454 441 454 509 l 454 287 q 464 217 454 252 q 491 159 474 182 q 518 130 503 140 q 544 121 532 121 l 1320 121 q 1345 131 1331 121 q 1373 159 1359 140 q 1410 287 1410 211 l 1410 595 q 1400 665 1410 630 q 1373 723 1391 700 q 1345 753 1361 743 m 860 1107 l 1004 1107 l 1004 977 l 860 977 l 860 1107 z "},"ع":{"ha":1120,"x_min":92,"x_max":1012,"o":"m 838 737 q 807 757 825 750 q 777 764 791 763 l 441 764 q 375 737 404 764 q 347 671 347 710 l 347 212 q 376 146 347 173 q 407 126 390 133 q 441 119 425 119 l 1012 119 l 1012 -12 l 322 -12 q 264 -37 290 -12 q 244 -71 252 -50 q 236 -112 236 -92 l 236 -233 l 92 -233 l 92 -109 q 96 -65 92 -88 q 109 -24 101 -43 q 155 49 126 18 q 176 68 166 60 q 197 82 186 76 q 234 102 221 98 q 202 212 202 149 l 202 671 q 221 757 202 715 q 274 830 241 799 q 350 878 307 861 q 441 895 393 895 l 773 895 q 866 876 819 895 q 943 827 913 857 q 994 755 977 796 q 1012 671 1012 718 l 1012 486 l 867 486 l 867 671 q 838 737 867 710 z "},"ﻉ":{"ha":1120,"x_min":92,"x_max":1012,"o":"m 838 737 q 807 757 825 750 q 777 764 791 763 l 441 764 q 375 737 404 764 q 347 671 347 710 l 347 212 q 376 146 347 173 q 407 126 390 133 q 441 119 425 119 l 1012 119 l 1012 -12 l 322 -12 q 264 -37 290 -12 q 244 -71 252 -50 q 236 -112 236 -92 l 236 -233 l 92 -233 l 92 -109 q 96 -65 92 -88 q 109 -24 101 -43 q 155 49 126 18 q 176 68 166 60 q 197 82 186 76 q 234 102 221 98 q 202 212 202 149 l 202 671 q 221 757 202 715 q 274 830 241 799 q 350 878 307 861 q 441 895 393 895 l 773 895 q 866 876 819 895 q 943 827 913 857 q 994 755 977 796 q 1012 671 1012 718 l 1012 486 l 867 486 l 867 671 q 838 737 867 710 z "},"ﻊ":{"ha":1118,"x_min":106,"x_max":1137,"o":"m 852 737 q 822 757 840 750 q 791 764 806 763 l 455 764 q 421 757 439 764 q 390 738 403 750 q 369 708 377 725 q 361 671 361 691 l 361 212 q 390 146 361 173 q 420 126 406 132 q 455 119 438 119 l 1137 119 l 1137 -12 l 336 -12 q 279 -37 304 -12 q 259 -71 267 -50 q 251 -112 251 -91 l 251 -233 l 106 -233 l 106 -112 q 123 -23 106 -65 q 171 49 140 19 q 248 102 210 89 q 244 107 246 104 q 237 123 243 110 l 226 151 q 217 212 217 178 l 217 671 q 236 757 217 715 q 286 828 255 800 q 363 877 321 860 q 455 895 405 895 l 790 895 q 880 875 835 894 q 958 825 926 855 q 1007 755 991 795 q 1017 735 1015 742 q 1022 710 1019 728 q 1025 671 1025 692 l 1025 486 l 881 486 l 881 671 q 852 737 881 711 z "},"ﻋ":{"ha":1003,"x_min":-9,"x_max":910,"o":"m 175 52 q 101 4 141 22 q 11 -13 60 -11 l -9 -13 l -9 119 l 12 119 q 73 145 46 120 q 94 175 87 157 q 102 212 102 193 l 102 671 q 121 756 102 714 q 172 829 140 799 q 248 878 207 861 q 340 895 290 895 l 675 895 q 765 875 720 894 q 843 825 810 855 q 892 755 876 795 q 901 735 899 742 q 907 710 903 728 q 910 671 910 692 l 910 486 l 766 486 l 766 671 q 737 737 766 711 q 707 757 724 751 q 672 764 690 764 l 340 764 q 323 762 333 764 q 305 756 313 760 q 274 737 286 749 q 254 706 262 724 q 246 671 246 688 l 246 210 q 275 146 246 173 q 306 126 289 133 q 340 119 323 119 l 910 119 l 910 -12 l 340 -12 q 247 7 291 -12 q 175 52 205 24 z "},"ﻌ":{"ha":1001,"x_min":-9,"x_max":1021,"o":"m 174 52 q 100 4 140 22 q 12 -13 60 -11 l -9 -13 l -9 119 l 11 119 q 73 145 45 120 q 94 175 86 157 q 101 212 101 193 l 101 671 q 120 757 101 715 q 173 830 140 799 q 249 878 206 861 q 340 895 292 895 l 674 895 q 764 875 719 894 q 843 826 810 855 q 892 755 876 796 q 901 735 899 742 q 907 710 903 728 q 910 671 910 692 l 910 486 l 765 486 l 765 671 q 736 738 765 711 q 707 757 722 752 q 671 764 688 764 l 340 764 q 305 757 323 764 q 274 737 287 749 q 253 706 261 724 q 245 671 245 688 l 245 210 q 274 146 245 173 q 304 126 290 132 q 340 119 323 119 l 1021 119 l 1021 -12 l 340 -12 q 246 7 290 -12 q 174 52 204 24 z "},"غ":{"ha":1120,"x_min":92,"x_max":1012,"o":"m 838 737 q 807 757 825 751 q 773 764 790 764 l 441 764 q 375 737 404 764 q 347 671 347 710 l 347 212 q 376 146 347 173 q 407 126 390 133 q 441 119 425 119 l 1012 119 l 1012 -12 l 322 -12 q 264 -37 290 -12 q 244 -71 252 -50 q 236 -112 236 -92 l 236 -233 l 92 -233 l 92 -109 q 96 -65 92 -88 q 109 -24 101 -43 q 155 49 126 18 q 176 68 166 60 q 197 82 186 76 q 234 102 221 98 q 202 212 202 149 l 202 671 q 221 757 202 715 q 274 830 241 799 q 350 878 307 861 q 441 895 393 895 l 773 895 q 866 876 819 895 q 943 827 913 857 q 994 755 977 796 q 1012 671 1012 718 l 1012 486 l 867 486 l 867 671 q 838 737 867 710 m 535 1107 l 680 1107 l 680 977 l 535 977 l 535 1107 z "},"ﻍ":{"ha":1120,"x_min":92,"x_max":1012,"o":"m 838 737 q 807 757 825 751 q 773 764 790 764 l 441 764 q 375 737 404 764 q 347 671 347 710 l 347 212 q 376 146 347 173 q 407 126 390 133 q 441 119 425 119 l 1012 119 l 1012 -12 l 322 -12 q 264 -37 290 -12 q 244 -71 252 -50 q 236 -112 236 -92 l 236 -233 l 92 -233 l 92 -109 q 96 -65 92 -88 q 109 -24 101 -43 q 155 49 126 18 q 176 68 166 60 q 197 82 186 76 q 234 102 221 98 q 202 212 202 149 l 202 671 q 221 757 202 715 q 274 830 241 799 q 350 878 307 861 q 441 895 393 895 l 773 895 q 866 876 819 895 q 943 827 913 857 q 994 755 977 796 q 1012 671 1012 718 l 1012 486 l 867 486 l 867 671 q 838 737 867 710 m 535 1107 l 680 1107 l 680 977 l 535 977 l 535 1107 z "},"ﻎ":{"ha":1116,"x_min":106,"x_max":1137,"o":"m 852 737 q 822 757 840 750 q 791 764 806 763 l 455 764 q 421 757 439 764 q 390 738 403 750 q 369 708 377 725 q 361 671 361 691 l 361 212 q 390 146 361 173 q 420 126 406 132 q 455 119 438 119 l 1137 119 l 1137 -12 l 336 -12 q 279 -37 304 -12 q 259 -71 267 -50 q 251 -112 251 -91 l 251 -233 l 106 -233 l 106 -112 q 123 -23 106 -65 q 171 49 140 19 q 248 102 210 89 q 244 107 246 104 q 237 123 243 110 l 226 151 q 217 212 217 178 l 217 671 q 236 757 217 715 q 286 828 255 800 q 363 877 321 860 q 455 895 405 895 l 790 895 q 880 875 835 894 q 958 825 926 855 q 1007 755 991 795 q 1017 735 1015 742 q 1022 710 1019 728 q 1025 671 1025 692 l 1025 486 l 881 486 l 881 671 q 852 737 881 711 m 549 1107 l 694 1107 l 694 977 l 549 977 l 549 1107 z "},"ﻏ":{"ha":1006,"x_min":-5,"x_max":913,"o":"m 178 52 q 104 4 144 22 q 14 -13 64 -11 l -5 -13 l -5 119 l 15 119 q 77 145 50 120 q 98 175 90 157 q 105 212 105 193 l 105 671 q 124 756 105 714 q 175 829 143 799 q 252 878 210 861 q 343 895 293 895 l 678 895 q 768 875 723 894 q 846 825 814 855 q 895 755 879 795 q 905 735 903 742 q 910 710 907 728 q 913 671 913 692 l 913 486 l 769 486 l 769 671 q 741 737 769 711 q 710 757 728 751 q 675 764 693 764 l 343 764 q 326 762 336 764 q 309 756 316 760 q 277 737 290 749 q 257 706 265 724 q 250 671 250 688 l 250 210 q 279 146 250 173 q 310 126 292 133 q 343 119 327 119 l 913 119 l 913 -12 l 343 -12 q 250 7 294 -12 q 178 52 208 24 m 437 1107 l 582 1107 l 582 977 l 437 977 l 437 1107 z "},"ﻐ":{"ha":1013,"x_min":-11,"x_max":1040,"o":"m 193 52 q 119 4 159 22 q 10 -13 79 -11 l -11 -13 l -11 119 l 9 119 q 92 145 64 119 q 113 175 105 157 q 120 212 120 193 l 120 671 q 139 757 120 715 q 192 830 159 799 q 268 878 225 861 q 359 895 311 895 l 690 895 q 783 875 736 895 q 862 826 829 855 q 911 755 895 796 q 920 735 918 742 q 926 710 922 728 q 929 671 929 692 l 929 486 l 784 486 l 784 671 q 755 738 784 711 q 726 757 741 752 q 690 764 707 764 l 359 764 q 324 757 342 764 q 293 737 306 749 q 272 706 280 724 q 264 671 264 688 l 264 210 q 293 146 264 173 q 323 126 309 132 q 359 119 342 119 l 1040 119 l 1040 -12 l 359 -12 q 265 7 309 -12 q 193 52 223 24 m 452 1106 l 597 1106 l 597 975 l 452 975 l 452 1106 z "},"ف":{"ha":2039,"x_min":152,"x_max":1940,"o":"m 517 758 l 389 758 q 325 732 351 758 q 295 665 295 707 l 295 207 q 303 170 295 188 q 325 142 312 152 q 388 120 351 117 l 942 121 l 1701 120 q 1767 148 1740 120 q 1794 212 1794 175 l 1794 290 q 1764 282 1794 290 q 1701 275 1734 275 l 1257 275 q 1163 293 1207 275 q 1087 342 1120 311 q 1037 413 1055 373 q 1019 498 1019 454 l 1019 672 q 1036 758 1019 718 q 1087 828 1054 798 q 1163 878 1120 859 q 1257 897 1207 897 l 1701 897 q 1793 878 1750 897 q 1870 828 1837 859 q 1921 758 1903 798 q 1940 672 1940 718 l 1940 212 q 1921 127 1940 168 q 1871 56 1903 87 q 1795 7 1839 25 q 1701 -12 1751 -12 l 988 -11 l 391 -11 q 297 4 342 -15 q 220 52 252 22 q 168 124 184 84 q 152 207 152 163 l 152 665 q 220 822 152 758 q 297 871 256 854 q 389 889 339 889 l 517 889 l 517 758 m 1257 765 q 1192 739 1218 765 q 1163 672 1163 713 l 1163 498 q 1171 461 1163 479 q 1191 432 1178 444 q 1257 406 1220 406 l 1701 406 q 1767 434 1740 406 q 1794 498 1794 461 l 1794 672 q 1767 738 1794 711 q 1701 765 1740 765 l 1257 765 m 1410 1109 l 1555 1109 l 1555 978 l 1410 978 l 1410 1109 z "},"ﻑ":{"ha":2039,"x_min":152,"x_max":1940,"o":"m 517 758 l 389 758 q 325 732 351 758 q 295 665 295 707 l 295 207 q 303 170 295 188 q 325 142 312 152 q 388 120 351 117 l 942 121 l 1701 120 q 1767 148 1740 120 q 1794 212 1794 175 l 1794 290 q 1764 282 1794 290 q 1701 275 1734 275 l 1257 275 q 1163 293 1207 275 q 1087 342 1120 311 q 1037 413 1055 373 q 1019 498 1019 454 l 1019 672 q 1036 758 1019 718 q 1087 828 1054 798 q 1163 878 1120 859 q 1257 897 1207 897 l 1701 897 q 1793 878 1750 897 q 1870 828 1837 859 q 1921 758 1903 798 q 1940 672 1940 718 l 1940 212 q 1921 127 1940 168 q 1871 56 1903 87 q 1795 7 1839 25 q 1701 -12 1751 -12 l 988 -11 l 391 -11 q 297 4 342 -15 q 220 52 252 22 q 168 124 184 84 q 152 207 152 163 l 152 665 q 220 822 152 758 q 297 871 256 854 q 389 889 339 889 l 517 889 l 517 758 m 1257 765 q 1192 739 1218 765 q 1163 672 1163 713 l 1163 498 q 1171 461 1163 479 q 1191 432 1178 444 q 1257 406 1220 406 l 1701 406 q 1767 434 1740 406 q 1794 498 1794 461 l 1794 672 q 1767 738 1794 711 q 1701 765 1740 765 l 1257 765 m 1410 1109 l 1555 1109 l 1555 978 l 1410 978 l 1410 1109 z "},"ﻒ":{"ha":2035,"x_min":37,"x_max":2064,"o":"m 1295 1109 l 1440 1109 l 1440 977 l 1295 977 l 1295 1109 m 1142 765 q 1076 740 1102 765 q 1048 672 1048 713 l 1048 498 q 1055 461 1048 479 q 1076 432 1063 444 q 1142 406 1105 406 l 1586 406 q 1652 434 1624 406 q 1679 498 1679 461 l 1679 672 q 1652 738 1679 711 q 1586 765 1624 765 l 1142 765 m 1752 51 q 1682 7 1722 24 q 1586 -12 1637 -12 l 873 -10 l 275 -10 q 181 3 227 -16 q 104 52 136 22 q 53 124 69 84 q 37 207 37 163 l 37 665 q 104 822 37 758 q 182 871 140 854 q 274 889 224 889 l 402 889 l 402 758 l 274 758 q 210 732 235 758 q 180 665 180 707 l 180 207 q 188 170 180 188 q 210 142 197 152 q 273 120 234 117 l 1586 120 q 1647 143 1624 120 l 1647 144 q 1658 154 1655 151 q 1664 161 1662 157 q 1679 204 1676 180 l 1679 290 l 1649 282 q 1586 275 1619 275 l 1142 275 q 1048 293 1092 275 q 972 342 1004 311 q 922 413 940 373 q 903 498 903 454 l 903 672 q 921 758 903 718 q 971 828 939 798 q 1048 878 1004 859 q 1142 897 1092 897 l 1586 897 q 1678 878 1634 897 q 1755 828 1722 859 q 1806 758 1788 798 q 1824 672 1824 718 l 1824 204 q 1852 146 1827 165 q 1914 120 1878 120 l 2064 120 l 2064 -12 l 1917 -12 q 1826 5 1867 -12 q 1752 51 1785 21 z "},"ﻓ":{"ha":1077,"x_min":-33,"x_max":1010,"o":"m -30 120 l 772 120 q 838 146 811 120 q 865 212 865 175 l 865 289 q 836 282 866 290 q 772 275 806 275 l 328 275 q 234 293 278 275 q 159 342 191 311 q 108 413 127 373 q 90 498 90 454 l 90 672 q 107 758 90 718 q 158 828 125 798 q 234 878 191 859 q 328 897 278 897 l 772 897 q 865 878 821 897 q 941 828 909 859 q 992 758 974 798 q 1010 672 1010 718 l 1010 212 q 992 127 1010 168 q 942 56 974 87 q 866 7 910 25 q 772 -12 822 -12 l -33 -9 l -30 120 m 328 765 q 262 739 290 765 q 234 672 234 713 l 234 498 q 241 461 234 479 q 262 432 249 444 q 328 406 291 406 l 772 406 q 838 433 811 406 q 865 498 865 461 l 865 672 q 838 738 865 711 q 772 765 810 765 l 328 765 m 481 1107 l 626 1107 l 626 976 l 481 976 l 481 1107 z "},"ﻔ":{"ha":1158,"x_min":-31,"x_max":1168,"o":"m 376 765 q 310 740 336 765 q 281 672 281 713 l 281 498 q 289 461 281 479 q 310 432 296 444 q 376 406 338 406 l 819 406 q 885 433 859 406 q 913 498 913 461 l 913 672 q 885 738 913 711 q 819 765 858 765 l 376 765 m 913 289 q 883 282 913 290 q 819 275 853 275 l 376 275 q 282 293 326 275 q 206 342 238 311 q 156 413 174 373 q 137 498 137 454 l 137 672 q 155 758 137 718 q 205 828 173 798 q 282 878 238 859 q 376 897 326 897 l 819 897 q 912 878 868 897 q 989 828 956 859 q 1040 758 1021 798 q 1058 672 1058 718 l 1058 204 q 1086 146 1061 165 q 1148 120 1112 120 l 1168 120 l 1168 -12 q 1059 5 1101 -12 q 979 56 1017 22 q 916 7 961 26 q 819 -12 871 -12 l -28 -9 l -31 121 l 819 120 q 881 143 858 120 l 881 144 q 892 154 888 151 q 897 161 896 157 q 913 204 910 180 l 913 289 m 528 1108 l 673 1108 l 673 977 l 528 977 l 528 1108 z "},"ق":{"ha":1684,"x_min":81,"x_max":1595,"o":"m 883 751 q 853 731 864 742 q 825 665 825 703 l 825 210 q 831 172 825 193 q 842 157 837 165 q 853 144 847 150 q 918 119 879 119 l 1358 119 q 1393 125 1376 119 q 1423 145 1410 132 q 1450 210 1450 172 l 1450 665 q 1443 703 1450 686 q 1423 730 1436 720 q 1358 758 1393 758 l 918 758 q 883 751 899 758 m 1450 5 q 1433 -1 1439 1 q 1421 -5 1428 -2 q 1358 -12 1393 -12 l 918 -12 q 857 -5 878 -12 q 825 5 835 2 q 748 54 780 25 q 697 126 714 85 q 680 210 680 166 l 680 665 q 699 750 680 707 q 748 822 717 792 q 827 871 785 852 q 871 884 850 880 q 918 888 892 888 l 1358 888 q 1429 877 1395 888 q 1491 848 1462 867 q 1542 804 1520 829 q 1576 749 1563 779 q 1595 665 1595 713 l 1595 -11 q 1575 -96 1595 -56 q 1524 -166 1556 -136 q 1449 -214 1492 -196 l 1449 -214 q 1435 -220 1456 -211 q 1434 -220 1434 -220 l 1406 -233 l 1399 -234 l 319 -234 q 226 -216 271 -234 q 150 -167 182 -197 q 81 -11 81 -100 l 81 665 q 150 821 81 757 q 227 870 186 852 q 319 888 269 888 l 448 888 l 448 756 l 319 756 q 253 731 279 756 q 233 702 241 719 q 225 665 225 684 l 225 -11 q 234 -47 225 -28 q 253 -77 243 -66 q 319 -102 281 -102 l 1360 -102 q 1423 -76 1396 -100 q 1442 -47 1438 -62 q 1449 -28 1447 -35 q 1450 -11 1450 -21 l 1450 5 m 998 1109 l 1142 1109 l 1142 978 l 998 978 l 998 1109 m 1219 1109 l 1364 1109 l 1364 978 l 1219 978 l 1219 1109 z "},"ﻕ":{"ha":1684,"x_min":81,"x_max":1595,"o":"m 883 751 q 853 731 864 742 q 825 665 825 703 l 825 210 q 831 172 825 193 q 842 157 837 165 q 853 144 847 150 q 918 119 879 119 l 1358 119 q 1393 125 1376 119 q 1423 145 1410 132 q 1450 210 1450 172 l 1450 665 q 1443 703 1450 686 q 1423 730 1436 720 q 1358 758 1393 758 l 918 758 q 883 751 899 758 m 1450 5 q 1433 -1 1439 1 q 1421 -5 1428 -2 q 1358 -12 1393 -12 l 918 -12 q 857 -5 878 -12 q 825 5 835 2 q 748 54 780 25 q 697 126 714 85 q 680 210 680 166 l 680 665 q 699 750 680 707 q 748 822 717 792 q 827 871 785 852 q 871 884 850 880 q 918 888 892 888 l 1358 888 q 1429 877 1395 888 q 1491 848 1462 867 q 1542 804 1520 829 q 1576 749 1563 779 q 1595 665 1595 713 l 1595 -11 q 1575 -96 1595 -56 q 1524 -166 1556 -136 q 1449 -214 1492 -196 l 1449 -214 q 1435 -220 1456 -211 q 1434 -220 1434 -220 l 1406 -233 l 1399 -234 l 319 -234 q 226 -216 271 -234 q 150 -167 182 -197 q 81 -11 81 -100 l 81 665 q 150 821 81 757 q 227 870 186 852 q 319 888 269 888 l 448 888 l 448 756 l 319 756 q 253 731 279 756 q 233 702 241 719 q 225 665 225 684 l 225 -11 q 234 -47 225 -28 q 253 -77 243 -66 q 319 -102 281 -102 l 1360 -102 q 1423 -76 1396 -100 q 1442 -47 1438 -62 q 1449 -28 1447 -35 q 1450 -11 1450 -21 l 1450 5 m 998 1109 l 1142 1109 l 1142 978 l 998 978 l 998 1109 m 1219 1109 l 1364 1109 l 1364 978 l 1219 978 l 1219 1109 z "},"ﻖ":{"ha":1702,"x_min":80,"x_max":1718,"o":"m 882 751 q 852 731 864 743 q 824 665 824 703 l 824 210 q 831 172 824 195 q 852 144 838 155 q 917 119 878 119 l 1357 119 q 1392 125 1375 119 q 1418 142 1409 132 l 1418 144 q 1442 176 1433 157 q 1449 210 1449 194 l 1449 665 q 1441 703 1449 686 q 1421 730 1434 720 q 1357 758 1390 758 l 917 758 q 882 751 898 758 m 1449 5 q 1432 -1 1438 1 q 1420 -5 1426 -2 q 1357 -12 1395 -12 l 917 -12 q 855 -5 877 -12 q 824 5 833 2 q 747 54 779 25 q 696 126 713 85 q 679 210 679 166 l 679 665 q 697 750 679 707 q 747 822 715 792 q 825 871 783 852 q 870 884 848 880 q 917 888 891 888 l 1357 888 q 1489 848 1430 888 q 1575 749 1548 809 q 1593 665 1593 713 l 1593 222 l 1595 222 q 1623 146 1595 170 q 1718 120 1649 120 l 1718 -12 q 1593 4 1622 -12 l 1593 -11 q 1574 -96 1593 -56 q 1523 -166 1555 -136 q 1448 -214 1491 -196 l 1442 -216 q 1440 -217 1441 -217 q 1374 -234 1406 -233 l 318 -234 q 224 -216 269 -234 q 149 -167 180 -197 q 80 -11 80 -98 l 80 665 q 149 821 80 757 q 226 870 184 852 q 318 888 267 888 l 446 888 l 446 756 l 318 756 q 250 728 277 756 q 232 702 240 719 q 224 665 224 684 l 224 -11 q 233 -47 224 -28 q 252 -77 241 -66 q 318 -102 280 -102 l 1360 -102 q 1422 -75 1393 -101 q 1441 -47 1435 -64 q 1447 -28 1446 -35 q 1449 -11 1449 -21 l 1449 5 m 996 1107 l 1141 1107 l 1141 976 l 996 976 l 996 1107 m 1218 1107 l 1363 1107 l 1363 976 l 1218 976 l 1218 1107 z "},"ﻗ":{"ha":1072,"x_min":-38,"x_max":998,"o":"m -35 121 l 760 120 q 825 146 799 120 q 853 212 853 175 l 853 289 q 824 282 854 290 q 760 275 793 275 l 316 275 q 222 293 266 275 q 146 342 178 311 q 96 413 115 373 q 77 498 77 454 l 77 672 q 95 758 77 718 q 146 828 113 798 q 222 878 178 859 q 316 897 266 897 l 760 897 q 852 878 808 897 q 929 828 897 859 q 980 758 962 798 q 998 672 998 718 l 998 212 q 980 127 998 168 q 930 56 962 87 q 854 7 898 25 q 760 -12 810 -12 l -38 -9 l -35 121 m 316 765 q 250 739 277 765 q 222 672 222 713 l 222 498 q 229 461 222 479 q 250 432 237 444 q 316 406 279 406 l 760 406 q 825 433 799 406 q 853 498 853 461 l 853 672 q 826 738 853 711 q 760 765 798 765 l 316 765 m 610 1106 l 755 1106 l 755 975 l 610 975 l 610 1106 m 388 1106 l 533 1106 l 533 975 l 388 975 l 388 1106 z "},"ﻘ":{"ha":1166,"x_min":-31,"x_max":1168,"o":"m 376 765 q 310 740 336 765 q 281 672 281 713 l 281 498 q 289 461 281 479 q 310 432 296 444 q 376 406 338 406 l 819 406 q 885 433 859 406 q 913 498 913 461 l 913 672 q 885 738 913 711 q 819 765 858 765 l 376 765 m 913 289 q 883 282 913 290 q 819 275 853 275 l 376 275 q 282 293 326 275 q 206 342 238 311 q 156 413 174 373 q 137 498 137 454 l 137 672 q 155 758 137 718 q 205 828 173 798 q 282 878 238 859 q 376 897 326 897 l 819 897 q 912 878 868 897 q 989 828 956 859 q 1040 758 1021 798 q 1058 672 1058 718 l 1058 204 q 1086 146 1061 165 q 1148 120 1112 120 l 1168 120 l 1168 -12 q 1059 5 1101 -12 q 978 56 1017 22 q 916 7 961 26 q 819 -12 871 -12 l -28 -9 l -31 121 l 819 120 q 881 143 858 120 l 881 144 q 892 154 888 151 q 897 161 896 157 q 913 204 910 180 l 913 289 m 407 1107 l 552 1107 l 552 976 l 407 976 l 407 1107 m 629 1107 l 774 1107 l 774 976 l 629 976 l 629 1107 z "},"ك":{"ha":1329,"x_min":90,"x_max":1232,"o":"m 456 536 l 328 536 q 263 509 290 536 q 242 479 250 497 q 235 444 235 461 l 235 214 q 242 178 235 195 q 263 148 254 157 q 293 129 279 135 q 328 122 311 122 l 992 122 q 1013 125 1003 122 q 1028 130 1023 127 q 1058 149 1046 136 q 1087 214 1087 176 l 1087 1120 l 1232 1120 l 1232 214 q 1212 130 1232 171 q 1160 57 1193 88 q 1085 8 1127 26 q 1040 -4 1061 -1 q 992 -9 1022 -9 l 328 -9 q 234 10 278 -9 q 159 58 191 28 q 108 130 123 93 q 98 151 100 144 q 93 175 96 157 q 90 214 90 193 l 90 444 q 108 528 90 486 q 159 601 127 570 q 236 649 191 631 q 328 667 281 667 l 456 667 l 456 536 m 751 976 q 757 969 751 969 l 857 969 l 857 878 l 573 878 l 573 968 l 629 968 l 629 1057 q 648 1101 629 1082 q 701 1121 671 1121 l 785 1121 q 836 1101 816 1121 q 857 1057 857 1081 l 857 1003 l 795 1003 l 795 1044 l 762 1044 q 751 1039 754 1044 l 751 976 z "},"ک":{"ha":1329,"x_min":90,"x_max":1232,"o":"m 456 536 l 328 536 q 263 509 290 536 q 242 479 250 497 q 235 444 235 461 l 235 214 q 242 178 235 195 q 263 148 254 157 q 293 129 279 135 q 328 122 311 122 l 992 122 q 1013 125 1003 122 q 1028 130 1023 127 q 1058 149 1046 136 q 1087 214 1087 176 l 1087 1120 l 1232 1120 l 1232 214 q 1212 130 1232 171 q 1160 57 1193 88 q 1085 8 1127 26 q 1040 -4 1061 -1 q 992 -9 1022 -9 l 328 -9 q 234 10 278 -9 q 159 58 191 28 q 108 130 123 93 q 98 151 100 144 q 93 175 96 157 q 90 214 90 193 l 90 444 q 108 528 90 486 q 159 601 127 570 q 236 649 191 631 q 328 667 281 667 l 456 667 l 456 536 m 751 976 q 757 969 751 969 l 857 969 l 857 878 l 573 878 l 573 968 l 629 968 l 629 1057 q 648 1101 629 1082 q 701 1121 671 1121 l 785 1121 q 836 1101 816 1121 q 857 1057 857 1081 l 857 1003 l 795 1003 l 795 1044 l 762 1044 q 751 1039 754 1044 l 751 976 z "},"ﮎ":{"ha":1329,"x_min":90,"x_max":1232,"o":"m 456 536 l 328 536 q 263 509 290 536 q 242 479 250 497 q 235 444 235 461 l 235 214 q 242 178 235 195 q 263 148 254 157 q 293 129 279 135 q 328 122 311 122 l 992 122 q 1013 125 1003 122 q 1028 130 1023 127 q 1058 149 1046 136 q 1087 214 1087 176 l 1087 1120 l 1232 1120 l 1232 214 q 1212 130 1232 171 q 1160 57 1193 88 q 1085 8 1127 26 q 1040 -4 1061 -1 q 992 -9 1022 -9 l 328 -9 q 234 10 278 -9 q 159 58 191 28 q 108 130 123 93 q 98 151 100 144 q 93 175 96 157 q 90 214 90 193 l 90 444 q 108 528 90 486 q 159 601 127 570 q 236 649 191 631 q 328 667 281 667 l 456 667 l 456 536 m 751 976 q 757 969 751 969 l 857 969 l 857 878 l 573 878 l 573 968 l 629 968 l 629 1057 q 648 1101 629 1082 q 701 1121 671 1121 l 785 1121 q 836 1101 816 1121 q 857 1057 857 1081 l 857 1003 l 795 1003 l 795 1044 l 762 1044 q 751 1039 754 1044 l 751 976 z "},"ﻙ":{"ha":1329,"x_min":90,"x_max":1232,"o":"m 456 536 l 328 536 q 263 509 290 536 q 242 479 250 497 q 235 444 235 461 l 235 214 q 242 178 235 195 q 263 148 254 157 q 293 129 279 135 q 328 122 311 122 l 992 122 q 1013 125 1003 122 q 1028 130 1023 127 q 1058 149 1046 136 q 1087 214 1087 176 l 1087 1120 l 1232 1120 l 1232 214 q 1212 130 1232 171 q 1160 57 1193 88 q 1085 8 1127 26 q 1040 -4 1061 -1 q 992 -9 1022 -9 l 328 -9 q 234 10 278 -9 q 159 58 191 28 q 108 130 123 93 q 98 151 100 144 q 93 175 96 157 q 90 214 90 193 l 90 444 q 108 528 90 486 q 159 601 127 570 q 236 649 191 631 q 328 667 281 667 l 456 667 l 456 536 m 751 976 q 757 969 751 969 l 857 969 l 857 878 l 573 878 l 573 968 l 629 968 l 629 1057 q 648 1101 629 1082 q 701 1121 671 1121 l 785 1121 q 836 1101 816 1121 q 857 1057 857 1081 l 857 1003 l 795 1003 l 795 1044 l 762 1044 q 751 1039 754 1044 l 751 976 z "},"ﮏ":{"ha":1341,"x_min":91,"x_max":1344,"o":"m 1160 54 q 1086 8 1127 25 q 1041 -4 1062 -1 q 994 -9 1023 -9 l 330 -9 q 237 8 280 -9 q 160 57 193 26 q 109 130 127 87 q 100 151 102 144 q 94 175 98 157 q 91 214 91 193 l 91 444 q 109 528 91 487 q 160 600 127 570 q 237 649 193 631 q 330 667 281 667 l 457 667 l 457 536 l 330 536 q 262 507 291 536 q 244 479 252 496 q 236 444 236 463 l 236 214 q 264 148 236 176 q 294 128 277 134 q 313 123 305 124 q 330 122 321 122 l 994 122 q 1059 150 1031 122 q 1088 214 1088 178 l 1088 1120 l 1232 1120 l 1232 214 q 1240 176 1232 193 q 1261 148 1249 157 q 1344 121 1288 121 l 1344 -10 q 1234 9 1279 -10 q 1160 54 1192 26 m 751 976 q 757 969 751 969 l 857 969 l 857 878 l 573 878 l 573 968 l 629 968 l 629 1057 q 648 1101 629 1082 q 701 1121 671 1121 l 785 1121 q 836 1101 816 1121 q 857 1057 857 1081 l 857 1003 l 795 1003 l 795 1044 l 762 1044 q 751 1039 754 1044 l 751 976 z "},"ﻚ":{"ha":1341,"x_min":91,"x_max":1344,"o":"m 1160 54 q 1086 8 1127 25 q 1041 -4 1062 -1 q 994 -9 1023 -9 l 330 -9 q 237 8 280 -9 q 160 57 193 26 q 109 130 127 87 q 100 151 102 144 q 94 175 98 157 q 91 214 91 193 l 91 444 q 109 528 91 487 q 160 600 127 570 q 237 649 193 631 q 330 667 281 667 l 457 667 l 457 536 l 330 536 q 262 507 291 536 q 244 479 252 496 q 236 444 236 463 l 236 214 q 264 148 236 176 q 294 128 277 134 q 313 123 305 124 q 330 122 321 122 l 994 122 q 1059 150 1031 122 q 1088 214 1088 178 l 1088 1120 l 1232 1120 l 1232 214 q 1240 176 1232 193 q 1261 148 1249 157 q 1344 121 1288 121 l 1344 -10 q 1234 9 1279 -10 q 1160 54 1192 26 m 751 976 q 757 969 751 969 l 857 969 l 857 878 l 573 878 l 573 968 l 629 968 l 629 1057 q 648 1101 629 1082 q 701 1121 671 1121 l 785 1121 q 836 1101 816 1121 q 857 1057 857 1081 l 857 1003 l 795 1003 l 795 1044 l 762 1044 q 751 1039 754 1044 l 751 976 z "},"ﮐ":{"ha":983,"x_min":-15,"x_max":907,"o":"m 333 897 l 768 897 l 768 765 l 336 765 q 271 739 296 765 q 261 726 267 736 q 249 709 254 717 l 242 690 l 241 673 l 241 586 l 668 586 q 761 568 717 586 q 802 546 785 559 q 838 517 819 536 q 888 447 869 488 q 907 361 907 406 l 907 212 q 903 173 907 191 q 898 149 900 155 q 888 128 896 142 q 838 56 873 91 q 763 8 808 26 q 668 -11 719 -11 l -15 -11 l -15 119 l 668 119 q 703 126 686 119 q 733 146 720 132 q 754 174 746 157 q 760 193 758 182 q 763 212 763 203 l 763 361 q 755 399 763 382 q 733 427 747 416 q 668 454 707 454 l 97 454 l 97 673 q 114 756 97 716 q 162 827 130 797 q 242 878 195 857 q 287 892 262 886 q 311 895 300 894 q 333 897 321 897 z "},"ﻛ":{"ha":983,"x_min":-15,"x_max":907,"o":"m 333 897 l 768 897 l 768 765 l 336 765 q 271 739 296 765 q 261 726 267 736 q 249 709 254 717 l 242 690 l 241 673 l 241 586 l 668 586 q 761 568 717 586 q 802 546 785 559 q 838 517 819 536 q 888 447 869 488 q 907 361 907 406 l 907 212 q 903 173 907 191 q 898 149 900 155 q 888 128 896 142 q 838 56 873 91 q 763 8 808 26 q 668 -11 719 -11 l -15 -11 l -15 119 l 668 119 q 703 126 686 119 q 733 146 720 132 q 754 174 746 157 q 760 193 758 182 q 763 212 763 203 l 763 361 q 755 399 763 382 q 733 427 747 416 q 668 454 707 454 l 97 454 l 97 673 q 114 756 97 716 q 162 827 130 797 q 242 878 195 857 q 287 892 262 886 q 311 895 300 894 q 333 897 321 897 z "},"ﮑ":{"ha":994,"x_min":-31,"x_max":1002,"o":"m 819 54 q 746 9 788 26 q 651 -9 701 -9 l -31 -9 l -31 121 l 651 121 q 687 127 669 121 q 717 148 704 134 q 746 212 746 174 l 746 363 q 718 427 746 399 q 651 455 689 455 l 80 455 l 80 674 q 97 759 80 719 q 147 830 114 798 q 226 880 180 862 q 271 893 246 887 q 295 897 284 895 q 315 898 304 897 l 751 898 l 751 766 l 319 766 q 283 760 303 766 q 254 740 268 753 q 224 674 224 713 l 224 587 l 651 587 q 744 569 701 587 q 822 520 787 551 q 871 449 852 490 q 890 363 890 408 l 890 214 q 899 176 890 193 q 918 147 907 159 q 981 120 945 121 l 1002 120 l 1002 -11 l 982 -11 q 891 7 934 -9 q 819 54 850 24 z "},"ﻜ":{"ha":994,"x_min":-31,"x_max":1002,"o":"m 819 54 q 746 9 788 26 q 651 -9 701 -9 l -31 -9 l -31 121 l 651 121 q 687 127 669 121 q 717 148 704 134 q 746 212 746 174 l 746 363 q 718 427 746 399 q 651 455 689 455 l 80 455 l 80 674 q 97 759 80 719 q 147 830 114 798 q 226 880 180 862 q 271 893 246 887 q 295 897 284 895 q 315 898 304 897 l 751 898 l 751 766 l 319 766 q 283 760 303 766 q 254 740 268 753 q 224 674 224 713 l 224 587 l 651 587 q 744 569 701 587 q 822 520 787 551 q 871 449 852 490 q 890 363 890 408 l 890 214 q 899 176 890 193 q 918 147 907 159 q 981 120 945 121 l 1002 120 l 1002 -11 l 982 -11 q 891 7 934 -9 q 819 54 850 24 z "},"گ":{"ha":1603,"x_min":194,"x_max":1538,"o":"m 433 -9 q 339 11 382 -7 q 263 58 295 28 q 212 130 228 93 q 203 151 205 144 q 197 175 201 157 q 194 214 194 193 l 194 444 q 213 528 194 486 q 263 601 231 570 q 340 649 295 631 q 433 667 385 667 l 560 667 l 560 536 l 433 536 q 368 509 395 536 q 347 479 355 497 q 339 444 339 461 l 339 214 q 347 178 339 195 q 368 148 358 157 q 397 129 383 135 q 433 122 416 122 l 1312 121 q 1337 127 1322 122 q 1364 146 1352 133 q 1385 174 1377 157 q 1392 193 1389 182 q 1394 212 1394 203 l 1394 361 q 1387 399 1394 382 q 1364 427 1379 416 q 1299 454 1338 454 l 728 454 l 728 673 q 745 756 728 716 q 794 827 762 797 q 873 878 826 857 q 918 892 894 886 q 943 895 932 894 q 967 897 954 897 l 1400 897 l 1400 765 l 967 765 q 902 739 928 765 q 892 726 899 736 q 880 709 886 717 l 873 690 l 872 673 l 872 586 l 1299 586 q 1392 568 1348 586 q 1434 546 1417 559 q 1470 517 1451 536 q 1519 447 1501 488 q 1538 361 1538 406 l 1538 212 q 1535 173 1538 191 q 1529 149 1531 155 q 1520 128 1527 142 q 1469 56 1505 91 q 1395 8 1439 26 q 1299 -11 1350 -11 l 433 -9 m 950 1048 l 1400 1048 l 1400 946 l 950 946 l 950 1048 z "},"ﮒ":{"ha":1603,"x_min":194,"x_max":1538,"o":"m 433 -9 q 339 11 382 -7 q 263 58 295 28 q 212 130 228 93 q 203 151 205 144 q 197 175 201 157 q 194 214 194 193 l 194 444 q 213 528 194 486 q 263 601 231 570 q 340 649 295 631 q 433 667 385 667 l 560 667 l 560 536 l 433 536 q 368 509 395 536 q 347 479 355 497 q 339 444 339 461 l 339 214 q 347 178 339 195 q 368 148 358 157 q 397 129 383 135 q 433 122 416 122 l 1312 121 q 1337 127 1322 122 q 1364 146 1352 133 q 1385 174 1377 157 q 1392 193 1389 182 q 1394 212 1394 203 l 1394 361 q 1387 399 1394 382 q 1364 427 1379 416 q 1299 454 1338 454 l 728 454 l 728 673 q 745 756 728 716 q 794 827 762 797 q 873 878 826 857 q 918 892 894 886 q 943 895 932 894 q 967 897 954 897 l 1400 897 l 1400 765 l 967 765 q 902 739 928 765 q 892 726 899 736 q 880 709 886 717 l 873 690 l 872 673 l 872 586 l 1299 586 q 1392 568 1348 586 q 1434 546 1417 559 q 1470 517 1451 536 q 1519 447 1501 488 q 1538 361 1538 406 l 1538 212 q 1535 173 1538 191 q 1529 149 1531 155 q 1520 128 1527 142 q 1469 56 1505 91 q 1395 8 1439 26 q 1299 -11 1350 -11 l 433 -9 m 950 1048 l 1400 1048 l 1400 946 l 950 946 l 950 1048 z "},"ﮓ":{"ha":1638,"x_min":197,"x_max":1651,"o":"m 1467 53 q 1396 9 1438 26 q 1301 -10 1352 -10 l 618 -10 l 618 -9 l 435 -9 q 342 8 386 -9 q 266 57 299 26 q 215 130 233 87 q 205 151 208 144 q 200 175 203 157 q 197 214 197 193 l 197 444 q 215 528 197 487 q 266 600 233 570 q 343 649 299 631 q 435 667 387 667 l 563 667 l 563 536 l 435 536 q 368 507 397 536 q 350 479 357 496 q 342 444 342 463 l 342 214 q 370 148 342 176 q 399 128 383 134 q 419 123 411 124 q 435 122 427 122 l 1300 122 q 1366 150 1337 122 q 1394 224 1394 178 l 1396 224 l 1396 362 q 1388 399 1396 382 q 1366 428 1380 416 q 1301 454 1339 454 l 730 454 l 730 673 q 746 757 730 717 q 795 828 763 798 q 875 879 827 858 q 920 892 895 886 q 944 896 933 895 q 968 897 956 897 l 1401 897 l 1401 766 l 968 766 q 903 740 929 766 q 893 727 900 736 q 882 710 887 718 l 875 690 l 873 673 l 873 587 l 1301 587 q 1394 568 1350 587 q 1435 547 1418 559 q 1471 518 1452 537 q 1521 448 1502 488 q 1539 362 1539 407 l 1539 203 q 1546 176 1541 189 q 1568 148 1556 157 q 1651 121 1594 121 l 1651 -10 q 1541 9 1586 -10 q 1467 53 1498 26 m 950 1048 l 1400 1048 l 1400 946 l 950 946 l 950 1048 z "},"ﮔ":{"ha":983,"x_min":-15,"x_max":907,"o":"m 97 454 l 97 673 q 114 756 97 716 q 162 827 130 797 q 242 878 195 857 q 287 892 262 886 q 312 895 300 894 q 336 897 323 897 l 768 897 l 768 765 l 336 765 q 271 739 296 765 q 261 726 267 736 q 249 709 254 717 l 242 690 l 241 673 l 241 586 l 668 586 q 761 568 717 586 q 802 546 785 559 q 838 517 819 536 q 888 447 869 488 q 907 361 907 406 l 907 212 q 903 173 907 191 q 898 149 900 155 q 888 128 896 142 q 838 56 873 91 q 763 8 808 26 q 668 -11 719 -11 l -15 -11 l -15 119 l 668 119 q 703 126 686 119 q 733 146 720 132 q 754 174 746 157 q 760 193 758 182 q 763 212 763 203 l 763 361 q 755 399 763 382 q 733 427 747 416 q 668 454 707 454 l 97 454 m 314 1048 l 764 1048 l 764 946 l 314 946 l 314 1048 z "},"ﮕ":{"ha":994,"x_min":-31,"x_max":1002,"o":"m 819 54 q 746 9 788 26 q 651 -9 701 -9 l -31 -9 l -31 121 l 651 121 q 687 127 669 121 q 717 148 704 134 q 746 212 746 174 l 746 363 q 718 427 746 399 q 651 455 689 455 l 80 455 l 80 674 q 97 759 80 719 q 147 830 114 798 q 226 880 180 862 q 271 893 246 887 q 295 897 284 895 q 319 898 307 898 l 751 898 l 751 766 l 315 766 q 283 760 301 766 q 254 740 268 753 q 224 674 224 713 l 224 587 l 651 587 q 744 569 701 587 q 822 520 787 551 q 871 449 852 490 q 890 363 890 408 l 890 214 q 899 176 890 193 q 920 146 907 159 q 1002 120 946 120 l 1002 -11 q 892 7 935 -11 q 819 54 850 24 m 302 1048 l 751 1048 l 751 946 l 302 946 l 302 1048 z "},"ل":{"ha":1103,"x_min":94,"x_max":1004,"o":"m 458 444 l 458 312 l 332 312 q 267 285 296 312 q 247 256 254 273 q 239 221 239 238 l 239 -9 q 267 -75 239 -51 q 332 -102 296 -102 l 766 -102 q 831 -75 803 -102 q 859 -9 859 -47 l 859 1120 l 1004 1120 l 1004 -9 q 986 -95 1004 -55 q 935 -166 968 -136 q 858 -214 902 -196 q 766 -233 814 -233 l 332 -233 q 270 -225 292 -233 q 239 -214 248 -218 q 133 -131 171 -184 q 94 -9 94 -77 l 94 221 q 112 304 94 262 q 163 376 130 347 q 181 391 173 385 q 197 404 190 397 q 239 425 220 418 q 332 444 286 444 l 458 444 z "},"ﻝ":{"ha":1103,"x_min":94,"x_max":1004,"o":"m 458 444 l 458 312 l 332 312 q 267 285 296 312 q 247 256 254 273 q 239 221 239 238 l 239 -9 q 267 -75 239 -51 q 332 -102 296 -102 l 766 -102 q 831 -75 803 -102 q 859 -9 859 -47 l 859 1120 l 1004 1120 l 1004 -9 q 986 -95 1004 -55 q 935 -166 968 -136 q 858 -214 902 -196 q 766 -233 814 -233 l 332 -233 q 270 -225 292 -233 q 239 -214 248 -218 q 133 -131 171 -184 q 94 -9 94 -77 l 94 221 q 112 304 94 262 q 163 376 130 347 q 181 391 173 385 q 197 404 190 397 q 239 425 220 418 q 332 444 286 444 l 458 444 z "},"ﻞ":{"ha":1106,"x_min":100,"x_max":1121,"o":"m 1011 8 l 1011 -9 q 993 -95 1011 -55 q 942 -166 975 -136 q 865 -214 909 -196 q 772 -233 821 -233 l 338 -233 q 275 -225 298 -233 q 245 -214 253 -218 q 139 -131 179 -184 q 100 -9 100 -77 l 100 221 q 117 304 100 262 q 168 376 135 347 q 187 391 179 385 q 202 404 195 397 q 223 416 213 410 q 246 425 233 421 q 338 444 291 444 l 466 444 l 466 312 l 338 312 q 273 285 301 312 q 253 256 260 273 q 245 221 245 238 l 245 -9 q 273 -75 245 -51 q 338 -102 301 -102 l 772 -102 q 837 -75 808 -102 q 867 -9 867 -47 l 867 1120 l 1011 1120 l 1011 198 q 1038 149 1018 166 q 1121 121 1068 121 l 1121 -10 l 1101 -10 q 1055 -5 1078 -10 q 1011 8 1032 1 z "},"ﻟ":{"ha":350,"x_min":-5,"x_max":252,"o":"m 252 1120 l 252 212 q 234 127 252 169 q 181 54 215 85 q 105 4 148 22 q -5 -14 62 -14 l -5 119 q 47 127 29 119 q 77 146 66 134 q 106 212 106 172 l 106 1120 l 252 1120 z "},"ﻠ":{"ha":359,"x_min":-5,"x_max":363,"o":"m 179 51 q 163 38 172 45 q 145 26 153 31 q 103 5 127 14 q -5 -13 59 -13 l -5 120 q 77 146 51 120 q 98 176 91 158 q 106 213 106 195 l 106 1121 l 252 1121 l 252 213 q 281 146 252 172 q 343 120 306 121 l 363 120 l 363 -13 l 344 -13 q 253 5 296 -11 q 179 51 208 25 z "},"م":{"ha":1443,"x_min":97,"x_max":1345,"o":"m 1107 896 q 1154 892 1133 896 q 1198 879 1176 888 q 1274 831 1240 863 q 1327 759 1309 800 q 1345 673 1345 718 l 1345 214 q 1342 175 1345 193 q 1337 151 1339 157 q 1327 130 1335 144 q 1279 60 1311 90 q 1202 9 1246 30 q 1107 -9 1156 -9 l 667 -9 q 642 -7 653 -9 q 614 -3 630 -6 q 574 8 598 -1 q 498 58 533 26 q 446 131 464 90 q 428 214 428 172 l 428 673 q 420 709 428 692 q 399 739 414 726 q 335 765 372 765 l 331 765 q 300 758 316 764 q 270 739 283 751 q 241 673 241 711 l 241 -229 l 97 -229 l 97 673 q 114 757 97 717 q 164 828 132 798 q 243 877 197 858 q 332 896 287 895 l 1107 896 m 601 739 q 572 673 572 711 l 572 214 q 580 176 572 196 q 601 147 588 159 q 631 129 614 135 q 667 123 648 123 l 1107 123 q 1142 130 1125 123 q 1173 149 1159 136 q 1201 214 1201 174 l 1201 673 q 1194 710 1201 692 q 1173 739 1186 727 q 1142 758 1161 751 q 1107 765 1124 765 l 667 765 q 632 759 650 765 q 601 739 615 752 z "},"ﻡ":{"ha":1443,"x_min":97,"x_max":1345,"o":"m 1107 896 q 1154 892 1133 896 q 1198 879 1176 888 q 1274 831 1240 863 q 1327 759 1309 800 q 1345 673 1345 718 l 1345 214 q 1342 175 1345 193 q 1337 151 1339 157 q 1327 130 1335 144 q 1279 60 1311 90 q 1202 9 1246 30 q 1107 -9 1156 -9 l 667 -9 q 642 -7 653 -9 q 614 -3 630 -6 q 574 8 598 -1 q 498 58 533 26 q 446 131 464 90 q 428 214 428 172 l 428 673 q 420 709 428 692 q 399 739 414 726 q 335 765 372 765 l 331 765 q 300 758 316 764 q 270 739 283 751 q 241 673 241 711 l 241 -229 l 97 -229 l 97 673 q 114 757 97 717 q 164 828 132 798 q 243 877 197 858 q 332 896 287 895 l 1107 896 m 601 739 q 572 673 572 711 l 572 214 q 580 176 572 196 q 601 147 588 159 q 631 129 614 135 q 667 123 648 123 l 1107 123 q 1142 130 1125 123 q 1173 149 1159 136 q 1201 214 1201 174 l 1201 673 q 1194 710 1201 692 q 1173 739 1186 727 q 1142 758 1161 751 q 1107 765 1124 765 l 667 765 q 632 759 650 765 q 601 739 615 752 z "},"ﻢ":{"ha":1457,"x_min":100,"x_max":1460,"o":"m 605 739 q 576 672 576 710 l 576 214 q 583 176 576 196 q 605 148 591 159 q 670 122 631 122 l 1112 122 q 1146 129 1129 122 q 1177 148 1163 136 q 1205 214 1205 174 l 1205 672 q 1198 708 1205 692 q 1179 736 1192 724 q 1146 757 1166 749 q 1128 762 1139 760 q 1112 764 1118 764 l 670 764 q 636 758 654 764 q 605 739 618 751 m 1277 54 q 1205 9 1248 26 q 1112 -9 1160 -9 l 670 -9 q 578 7 619 -9 q 537 28 556 16 q 500 58 519 40 q 450 130 468 89 q 431 214 431 170 l 431 672 q 404 738 431 712 q 338 764 376 764 l 336 764 q 303 758 321 764 q 273 738 289 751 q 245 672 245 710 l 245 -230 l 100 -230 l 100 672 q 118 756 100 716 q 168 827 135 797 q 247 876 201 857 q 338 895 292 895 l 1112 895 q 1158 891 1137 895 q 1202 878 1180 888 q 1279 830 1243 862 q 1331 758 1312 800 q 1350 672 1350 715 l 1350 214 q 1358 176 1350 195 q 1378 146 1366 160 q 1460 121 1404 121 l 1460 -10 l 1440 -10 q 1350 7 1390 -8 q 1278 53 1310 24 l 1280 56 q 1278 54 1279 55 q 1274 56 1276 55 l 1277 54 z "},"ﻣ":{"ha":1066,"x_min":-6,"x_max":1022,"o":"m 309 758 q 278 738 290 749 q 250 672 250 712 l 250 214 q 258 175 250 193 q 277 148 265 158 q 342 122 306 122 l 785 122 q 819 128 802 122 q 849 148 837 135 q 878 214 878 173 l 878 672 q 850 738 878 711 q 818 757 833 751 q 785 764 803 764 l 342 764 q 309 758 324 764 m 178 54 q 162 40 171 47 q 144 28 152 33 q 103 7 127 16 q 14 -10 63 -10 l -6 -10 l -6 121 l 14 121 q 77 146 51 121 q 97 177 90 159 q 105 214 105 195 l 105 672 q 124 759 105 716 q 174 829 143 801 q 252 878 210 861 q 296 891 274 888 q 342 895 317 895 l 785 895 q 877 876 831 895 q 955 827 922 857 q 1005 757 988 797 q 1022 672 1022 717 l 1022 214 q 1003 129 1022 169 q 952 57 985 88 q 878 8 920 26 q 785 -9 836 -9 l 342 -9 q 250 9 294 -9 q 178 54 210 26 z "},"ﻤ":{"ha":1128,"x_min":-8,"x_max":1131,"o":"m 275 738 q 247 672 247 712 l 247 214 q 276 146 247 174 q 306 127 290 134 q 340 122 321 122 l 783 122 q 818 128 803 122 q 847 148 833 134 q 876 214 876 174 l 876 672 q 848 736 876 709 q 783 764 819 764 l 340 764 q 306 758 323 764 q 275 738 289 751 m 947 54 q 876 9 919 28 q 783 -9 829 -9 l 340 -9 q 248 9 290 -9 q 175 54 207 26 q 102 8 145 26 q -8 -10 58 -10 l -8 121 q 75 148 48 121 q 102 212 102 175 l 102 672 q 120 756 102 716 q 170 827 137 797 q 249 876 203 857 q 340 895 294 895 l 783 895 q 875 878 832 895 q 951 836 918 861 q 1001 758 983 799 q 1020 672 1020 718 l 1020 214 q 1047 147 1020 173 q 1131 121 1075 121 l 1131 -10 q 1089 -9 1101 -10 q 1062 -5 1078 -7 q 1021 7 1046 -2 q 947 54 980 24 z "},"ن":{"ha":1087,"x_min":81,"x_max":1004,"o":"m 448 768 l 320 768 q 254 739 282 768 q 233 710 241 726 q 226 675 226 694 l 226 214 q 234 176 226 196 q 256 147 246 156 q 285 128 271 134 q 320 121 303 121 l 765 121 q 831 149 802 121 q 859 214 859 177 l 859 899 l 1004 899 l 1004 214 q 986 129 1004 170 q 934 57 967 88 q 858 7 901 25 q 812 -5 833 -3 q 765 -10 795 -10 l 320 -10 q 225 7 271 -10 q 149 57 181 28 q 99 130 116 89 q 81 214 81 170 l 81 675 q 100 760 81 719 q 150 831 118 802 q 186 859 169 850 q 227 881 203 872 q 320 899 273 899 l 448 899 l 448 768 m 581 1107 l 726 1107 l 726 976 l 581 976 l 581 1107 z "},"ﻥ":{"ha":1087,"x_min":81,"x_max":1004,"o":"m 448 768 l 320 768 q 254 739 282 768 q 233 710 241 726 q 226 675 226 694 l 226 214 q 234 176 226 196 q 256 147 246 156 q 285 128 271 134 q 320 121 303 121 l 765 121 q 831 149 802 121 q 859 214 859 177 l 859 899 l 1004 899 l 1004 214 q 986 129 1004 170 q 934 57 967 88 q 858 7 901 25 q 812 -5 833 -3 q 765 -10 795 -10 l 320 -10 q 225 7 271 -10 q 149 57 181 28 q 99 130 116 89 q 81 214 81 170 l 81 675 q 100 760 81 719 q 150 831 118 802 q 186 859 169 850 q 227 881 203 872 q 320 899 273 899 l 448 899 l 448 768 m 581 1107 l 726 1107 l 726 976 l 581 976 l 581 1107 z "},"ﻦ":{"ha":1131,"x_min":102,"x_max":1136,"o":"m 952 54 q 920 28 936 39 q 878 7 901 16 q 833 -5 854 -3 q 785 -10 815 -10 l 341 -10 q 247 8 292 -10 q 172 56 203 27 q 119 128 137 87 q 102 214 102 169 l 102 675 q 121 761 102 718 q 173 833 140 803 q 248 881 206 864 q 341 899 290 899 l 469 899 l 469 768 l 341 768 q 276 742 303 768 q 254 713 261 726 q 248 696 250 703 q 247 675 247 688 l 247 214 q 275 148 247 175 q 306 128 292 134 q 341 121 324 121 l 785 121 q 806 124 796 121 q 821 129 817 127 q 852 148 840 136 q 872 177 865 160 q 880 214 880 194 l 880 901 l 1025 901 l 1025 214 q 1054 147 1025 175 q 1083 127 1067 134 q 1101 122 1095 123 q 1116 121 1109 121 l 1136 121 l 1136 -10 l 1116 -10 q 1070 -4 1094 -10 q 1025 8 1046 1 q 952 54 983 26 m 602 1107 l 747 1107 l 747 976 l 602 976 l 602 1107 z "},"ﻧ":{"ha":341,"x_min":-7,"x_max":250,"o":"m 250 897 l 250 211 q 231 126 250 168 q 180 54 212 84 q 103 5 148 23 q 15 -12 60 -10 l -7 -12 l -7 119 q 76 145 49 119 q 97 175 90 158 q 104 211 104 192 l 104 897 l 250 897 m 104 1107 l 250 1107 l 250 976 l 104 976 l 104 1107 z "},"ﻨ":{"ha":351,"x_min":-7,"x_max":360,"o":"m 177 54 q 104 7 146 24 q -7 -11 59 -11 l -7 120 q 76 148 48 120 q 104 212 104 175 l 104 898 l 249 898 l 249 212 q 278 146 249 174 q 307 126 291 132 q 360 120 323 120 l 360 -11 q 250 8 293 -11 q 177 54 208 26 m 106 1107 l 252 1107 l 252 976 l 106 976 l 106 1107 z "},"و":{"ha":1101,"x_min":95,"x_max":1009,"o":"m 1009 -11 q 992 -94 1009 -54 q 941 -163 975 -134 q 865 -213 909 -195 q 520 -227 821 -232 l 520 -95 q 807 -92 791 -97 q 837 -75 824 -87 q 865 -11 865 -50 l 865 4 q 835 -3 867 5 l 806 -9 l 773 -12 l 332 -12 q 240 5 281 -12 q 165 54 199 23 q 113 126 131 85 q 95 210 95 168 l 95 666 q 112 749 95 709 q 163 820 129 788 q 239 870 197 852 q 332 888 281 888 l 772 888 q 819 884 797 888 q 863 871 840 880 q 941 822 905 854 q 990 751 972 793 q 1009 666 1009 709 l 1009 -11 m 268 732 q 239 666 239 705 l 239 210 q 247 173 239 187 q 268 144 254 158 q 332 118 295 118 l 772 118 q 805 125 787 118 q 837 144 823 132 q 865 210 865 170 l 865 666 q 858 702 865 686 q 837 731 850 718 q 772 758 810 758 l 332 758 q 297 751 314 758 q 268 732 281 745 z "},"ﻭ":{"ha":1101,"x_min":95,"x_max":1009,"o":"m 1009 -11 q 992 -94 1009 -54 q 941 -163 975 -134 q 865 -213 909 -195 q 520 -227 821 -232 l 520 -95 q 807 -92 791 -97 q 837 -75 824 -87 q 865 -11 865 -50 l 865 4 q 835 -3 867 5 l 806 -9 l 773 -12 l 332 -12 q 240 5 281 -12 q 165 54 199 23 q 113 126 131 85 q 95 210 95 168 l 95 666 q 112 749 95 709 q 163 820 129 788 q 239 870 197 852 q 332 888 281 888 l 772 888 q 819 884 797 888 q 863 871 840 880 q 941 822 905 854 q 990 751 972 793 q 1009 666 1009 709 l 1009 -11 m 268 732 q 239 666 239 705 l 239 210 q 247 173 239 187 q 268 144 254 158 q 332 118 295 118 l 772 118 q 805 125 787 118 q 837 144 823 132 q 865 210 865 170 l 865 666 q 858 702 865 686 q 837 731 850 718 q 772 758 810 758 l 332 758 q 297 751 314 758 q 268 732 281 745 z "},"ﻮ":{"ha":1108,"x_min":95,"x_max":1118,"o":"m 268 734 q 239 668 239 707 l 239 212 q 247 175 239 189 q 268 146 254 160 q 332 120 295 120 l 772 120 q 805 127 787 120 q 837 146 823 134 q 865 212 865 172 l 865 668 q 858 704 865 688 q 837 733 850 720 q 772 760 810 760 l 332 760 q 297 753 314 760 q 268 734 281 747 m 1009 -9 q 992 -92 1009 -52 q 941 -161 975 -132 q 865 -211 909 -193 q 521 -222 821 -229 l 521 -94 q 807 -90 791 -95 q 837 -73 824 -85 q 865 -9 865 -48 l 865 6 q 835 -1 867 7 l 806 -7 l 773 -10 l 332 -10 q 240 7 281 -10 q 165 56 199 25 q 113 128 131 87 q 95 212 95 170 l 95 668 q 112 751 95 711 q 163 822 129 790 q 239 872 197 854 q 332 890 281 890 l 772 890 q 819 886 797 890 q 863 873 840 882 q 941 824 905 856 q 990 753 972 795 q 1009 668 1009 711 l 1009 212 q 1016 174 1009 189 q 1038 146 1023 159 q 1099 120 1063 121 l 1118 120 l 1118 -10 q 1040 -2 1069 -10 q 1026 1 1033 -1 q 1009 7 1019 3 l 1009 -9 z "},"ه":{"ha":1125,"x_min":99,"x_max":1021,"o":"m 272 739 q 244 673 244 712 l 244 212 q 272 147 244 174 q 338 120 300 120 l 783 120 q 817 126 803 120 q 847 145 831 132 q 868 176 859 157 q 876 212 876 195 l 876 673 q 849 739 876 712 q 783 765 821 765 l 338 765 q 303 759 319 765 q 272 739 287 753 m 168 56 q 117 129 136 87 q 99 212 99 170 l 99 673 q 116 758 99 718 q 166 828 133 798 q 245 877 199 857 q 338 897 292 897 l 783 897 q 874 880 830 897 q 951 831 918 863 q 1003 759 984 800 q 1021 673 1021 717 l 1021 212 q 1018 174 1021 189 q 1014 154 1015 159 q 1003 128 1010 142 q 954 58 987 89 q 876 8 922 27 q 783 -12 829 -12 l 338 -12 q 245 5 287 -12 q 205 26 224 14 q 168 56 186 38 z "},"ﻩ":{"ha":1125,"x_min":99,"x_max":1021,"o":"m 272 739 q 244 673 244 712 l 244 212 q 272 147 244 174 q 338 120 300 120 l 783 120 q 817 126 803 120 q 847 145 831 132 q 868 176 859 157 q 876 212 876 195 l 876 673 q 849 739 876 712 q 783 765 821 765 l 338 765 q 303 759 319 765 q 272 739 287 753 m 168 56 q 117 129 136 87 q 99 212 99 170 l 99 673 q 116 758 99 718 q 166 828 133 798 q 245 877 199 857 q 338 897 292 897 l 783 897 q 874 880 830 897 q 951 831 918 863 q 1003 759 984 800 q 1021 673 1021 717 l 1021 212 q 1018 174 1021 189 q 1014 154 1015 159 q 1003 128 1010 142 q 954 58 987 89 q 876 8 922 27 q 783 -12 829 -12 l 338 -12 q 245 5 287 -12 q 205 26 224 14 q 168 56 186 38 z "},"ﻪ":{"ha":1122,"x_min":91,"x_max":1124,"o":"m 264 740 q 236 674 236 713 l 236 214 q 264 149 236 176 q 330 121 292 121 l 774 121 q 809 127 795 121 q 839 146 823 133 q 860 177 851 159 q 868 214 868 196 l 868 674 q 841 740 868 713 q 774 766 813 766 l 330 766 q 295 761 311 766 q 264 740 279 755 m 940 52 q 868 8 910 25 q 774 -10 823 -10 l 330 -10 q 237 7 279 -10 q 197 27 216 16 q 160 57 178 39 q 109 130 127 88 q 91 214 91 172 l 91 674 q 108 759 91 719 q 158 829 125 800 q 237 878 191 859 q 330 898 283 898 l 774 898 q 866 881 822 898 q 943 833 910 864 q 995 760 976 802 q 1013 674 1013 718 l 1013 214 q 1021 177 1013 195 q 1042 146 1029 159 q 1104 120 1069 121 l 1124 120 l 1124 -12 l 1105 -12 q 1015 6 1056 -9 q 940 52 974 24 z "},"ﻫ":{"ha":1226,"x_min":-12,"x_max":1131,"o":"m 521 673 l 559 673 q 650 658 608 673 q 727 611 692 642 q 778 544 758 583 q 798 460 798 505 l 798 200 q 792 153 798 176 q 780 119 786 130 l 892 119 q 926 125 908 119 q 958 145 945 132 q 986 211 986 172 l 986 672 q 978 707 986 689 q 958 738 970 725 q 927 757 946 750 q 892 764 908 764 l 615 764 q 579 758 597 764 q 549 738 565 751 q 521 673 522 711 m 243 460 l 243 200 q 251 168 243 186 q 270 143 258 153 q 337 119 298 119 l 559 119 q 626 143 600 119 q 653 200 653 167 l 653 460 q 652 475 653 468 q 646 492 651 481 q 627 517 640 507 q 595 536 614 528 q 559 543 577 543 l 337 543 q 301 536 318 543 q 272 519 285 530 q 251 493 258 509 q 243 460 243 477 m 170 49 q 98 5 139 22 q -12 -13 54 -13 l -12 119 l 7 119 q 38 125 22 119 q 69 145 56 132 q 98 210 98 172 l 98 460 q 115 541 98 504 q 169 612 132 578 q 245 657 200 640 q 337 673 291 673 l 376 673 l 376 672 q 393 756 376 716 q 443 827 410 796 q 522 878 477 858 q 566 891 542 885 q 591 895 580 893 q 615 896 602 896 l 892 896 q 984 879 942 896 q 1060 830 1026 861 q 1113 758 1094 799 q 1131 672 1131 717 l 1131 211 q 1128 171 1131 189 q 1122 146 1124 153 q 1113 125 1120 139 q 1063 56 1097 85 q 987 5 1030 26 q 892 -13 941 -13 l 337 -13 q 247 3 290 -13 q 170 49 205 19 z "},"ﻬ":{"ha":1232,"x_min":-10,"x_max":1244,"o":"m 524 675 l 562 675 q 653 659 611 675 q 728 613 694 644 q 782 544 762 582 q 801 462 801 505 l 801 201 q 795 154 801 178 q 783 120 789 131 l 895 120 q 930 126 913 120 q 962 147 947 133 q 989 212 989 174 l 989 673 q 981 710 989 693 q 960 739 973 728 q 895 766 933 766 l 617 766 q 582 759 600 766 q 552 739 568 753 q 524 675 524 713 m 245 462 l 245 201 q 253 169 245 188 q 272 144 260 154 q 340 120 300 120 l 562 120 q 629 144 601 120 q 656 201 656 168 l 656 462 q 655 476 656 469 q 648 495 654 483 q 630 518 642 507 q 600 537 618 530 q 562 544 582 544 l 340 544 q 303 537 321 544 q 274 519 287 530 q 253 494 260 509 q 245 462 245 479 m 172 50 l 177 56 q 172 51 174 53 q 100 7 141 25 q -10 -12 54 -12 l -10 120 q 40 127 22 120 q 73 146 58 134 q 101 211 101 172 l 101 462 q 118 544 101 506 q 172 613 136 581 q 248 658 203 641 q 340 675 293 675 l 378 675 l 378 673 q 395 758 378 718 q 446 830 412 798 q 525 880 480 863 q 617 897 570 897 l 895 897 q 942 893 920 897 q 986 880 964 890 q 1062 831 1028 863 q 1115 759 1095 800 q 1134 673 1134 718 l 1134 212 q 1142 176 1134 193 q 1162 146 1149 159 q 1224 120 1190 121 l 1244 120 l 1244 -12 q 1202 -10 1214 -12 q 1175 -6 1191 -9 q 1135 5 1159 -3 q 1062 52 1095 23 q 989 7 1032 24 q 895 -12 944 -12 l 340 -12 q 249 5 292 -12 q 172 50 207 22 z "},"ة":{"ha":1125,"x_min":99,"x_max":1021,"o":"m 272 739 q 244 673 244 712 l 244 212 q 272 147 244 174 q 338 120 300 120 l 783 120 q 817 126 803 120 q 847 145 831 132 q 868 176 859 157 q 876 212 876 195 l 876 673 q 849 739 876 712 q 783 765 821 765 l 338 765 q 303 759 319 765 q 272 739 287 753 m 168 56 q 117 129 136 87 q 99 212 99 170 l 99 673 q 116 758 99 718 q 166 828 133 798 q 245 877 199 857 q 338 897 292 897 l 783 897 q 874 880 830 897 q 951 831 918 863 q 1003 759 984 800 q 1021 673 1021 717 l 1021 212 q 1018 174 1021 189 q 1014 154 1015 159 q 1003 128 1010 142 q 954 58 987 89 q 876 8 922 27 q 783 -12 829 -12 l 338 -12 q 245 5 287 -12 q 205 26 224 14 q 168 56 186 38 m 340 1170 q 347 1153 340 1158 q 357 1149 353 1149 l 450 1149 l 450 1065 l 180 1065 l 180 1155 l 237 1155 l 237 1237 q 253 1275 237 1259 q 302 1294 275 1294 l 385 1294 q 431 1276 412 1294 q 450 1237 450 1258 l 450 1194 l 394 1194 l 394 1217 q 385 1219 393 1220 l 357 1219 q 347 1213 351 1219 l 342 1206 l 340 1194 l 340 1170 z "},"ۀ":{"ha":1125,"x_min":99,"x_max":1021,"o":"m 272 739 q 244 673 244 712 l 244 212 q 272 147 244 174 q 338 120 300 120 l 783 120 q 817 126 803 120 q 847 145 831 132 q 868 176 859 157 q 876 212 876 195 l 876 673 q 849 739 876 712 q 783 765 821 765 l 338 765 q 303 759 319 765 q 272 739 287 753 m 168 56 q 117 129 136 87 q 99 212 99 170 l 99 673 q 116 758 99 718 q 166 828 133 798 q 245 877 199 857 q 338 897 292 897 l 783 897 q 874 880 830 897 q 951 831 918 863 q 1003 759 984 800 q 1021 673 1021 717 l 1021 212 q 1018 174 1021 189 q 1014 154 1015 159 q 1003 128 1010 142 q 954 58 987 89 q 876 8 922 27 q 783 -12 829 -12 l 338 -12 q 245 5 287 -12 q 205 26 224 14 q 168 56 186 38 m 340 1170 q 347 1153 340 1158 q 357 1149 353 1149 l 450 1149 l 450 1065 l 180 1065 l 180 1155 l 237 1155 l 237 1237 q 253 1275 237 1259 q 302 1294 275 1294 l 385 1294 q 431 1276 412 1294 q 450 1237 450 1258 l 450 1194 l 394 1194 l 394 1217 q 385 1219 393 1220 l 357 1219 q 347 1213 351 1219 l 342 1206 l 340 1194 l 340 1170 z "},"ﮤ":{"ha":1125,"x_min":99,"x_max":1021,"o":"m 272 739 q 244 673 244 712 l 244 212 q 272 147 244 174 q 338 120 300 120 l 783 120 q 817 126 803 120 q 847 145 831 132 q 868 176 859 157 q 876 212 876 195 l 876 673 q 849 739 876 712 q 783 765 821 765 l 338 765 q 303 759 319 765 q 272 739 287 753 m 168 56 q 117 129 136 87 q 99 212 99 170 l 99 673 q 116 758 99 718 q 166 828 133 798 q 245 877 199 857 q 338 897 292 897 l 783 897 q 874 880 830 897 q 951 831 918 863 q 1003 759 984 800 q 1021 673 1021 717 l 1021 212 q 1018 174 1021 189 q 1014 154 1015 159 q 1003 128 1010 142 q 954 58 987 89 q 876 8 922 27 q 783 -12 829 -12 l 338 -12 q 245 5 287 -12 q 205 26 224 14 q 168 56 186 38 m 340 1170 q 347 1153 340 1158 q 357 1149 353 1149 l 450 1149 l 450 1065 l 180 1065 l 180 1155 l 237 1155 l 237 1237 q 253 1275 237 1259 q 302 1294 275 1294 l 385 1294 q 431 1276 412 1294 q 450 1237 450 1258 l 450 1194 l 394 1194 l 394 1217 q 385 1219 393 1220 l 357 1219 q 347 1213 351 1219 l 342 1206 l 340 1194 l 340 1170 z "},"ﺓ":{"ha":1125,"x_min":99,"x_max":1021,"o":"m 272 739 q 244 673 244 712 l 244 212 q 272 147 244 174 q 338 120 300 120 l 783 120 q 817 126 803 120 q 847 145 831 132 q 868 176 859 157 q 876 212 876 195 l 876 673 q 849 739 876 712 q 783 765 821 765 l 338 765 q 303 759 319 765 q 272 739 287 753 m 168 56 q 117 129 136 87 q 99 212 99 170 l 99 673 q 116 758 99 718 q 166 828 133 798 q 245 877 199 857 q 338 897 292 897 l 783 897 q 874 880 830 897 q 951 831 918 863 q 1003 759 984 800 q 1021 673 1021 717 l 1021 212 q 1018 174 1021 189 q 1014 154 1015 159 q 1003 128 1010 142 q 954 58 987 89 q 876 8 922 27 q 783 -12 829 -12 l 338 -12 q 245 5 287 -12 q 205 26 224 14 q 168 56 186 38 m 340 1170 q 347 1153 340 1158 q 357 1149 353 1149 l 450 1149 l 450 1065 l 180 1065 l 180 1155 l 237 1155 l 237 1237 q 253 1275 237 1259 q 302 1294 275 1294 l 385 1294 q 431 1276 412 1294 q 450 1237 450 1258 l 450 1194 l 394 1194 l 394 1217 q 385 1219 393 1220 l 357 1219 q 347 1213 351 1219 l 342 1206 l 340 1194 l 340 1170 z "},"ﮥ":{"ha":1115,"x_min":91,"x_max":1124,"o":"m 264 740 q 236 674 236 713 l 236 214 q 264 149 236 176 q 330 121 292 121 l 774 121 q 809 127 795 121 q 839 146 823 133 q 860 177 851 159 q 868 214 868 196 l 868 674 q 841 740 868 713 q 774 766 813 766 l 330 766 q 295 761 311 766 q 264 740 279 755 m 940 52 q 868 8 910 25 q 774 -10 823 -10 l 330 -10 q 237 7 279 -10 q 197 27 216 16 q 160 57 178 39 q 109 130 127 88 q 91 214 91 172 l 91 674 q 108 759 91 719 q 158 829 125 800 q 237 878 191 859 q 330 898 283 898 l 774 898 q 866 881 822 898 q 943 833 910 864 q 995 760 976 802 q 1013 674 1013 718 l 1013 214 q 1021 177 1013 195 q 1042 146 1029 159 q 1104 120 1069 121 l 1124 120 l 1124 -12 l 1105 -12 q 1015 6 1056 -9 q 940 52 974 24 m 340 1170 q 347 1153 340 1158 q 357 1149 353 1149 l 450 1149 l 450 1065 l 180 1065 l 180 1155 l 237 1155 l 237 1237 q 253 1275 237 1259 q 302 1294 275 1294 l 385 1294 q 431 1276 412 1294 q 450 1237 450 1258 l 450 1194 l 394 1194 l 394 1217 q 385 1219 393 1220 l 357 1219 q 347 1213 351 1219 l 342 1206 l 340 1194 l 340 1170 z "},"ﺔ":{"ha":1115,"x_min":91,"x_max":1124,"o":"m 264 740 q 236 674 236 713 l 236 214 q 264 149 236 176 q 330 121 292 121 l 774 121 q 809 127 795 121 q 839 146 823 133 q 860 177 851 159 q 868 214 868 196 l 868 674 q 841 740 868 713 q 774 766 813 766 l 330 766 q 295 761 311 766 q 264 740 279 755 m 940 52 q 868 8 910 25 q 774 -10 823 -10 l 330 -10 q 237 7 279 -10 q 197 27 216 16 q 160 57 178 39 q 109 130 127 88 q 91 214 91 172 l 91 674 q 108 759 91 719 q 158 829 125 800 q 237 878 191 859 q 330 898 283 898 l 774 898 q 866 881 822 898 q 943 833 910 864 q 995 760 976 802 q 1013 674 1013 718 l 1013 214 q 1021 177 1013 195 q 1042 146 1029 159 q 1104 120 1069 121 l 1124 120 l 1124 -12 l 1105 -12 q 1015 6 1056 -9 q 940 52 974 24 m 340 1170 q 347 1153 340 1158 q 357 1149 353 1149 l 450 1149 l 450 1065 l 180 1065 l 180 1155 l 237 1155 l 237 1237 q 253 1275 237 1259 q 302 1294 275 1294 l 385 1294 q 431 1276 412 1294 q 450 1237 450 1258 l 450 1194 l 394 1194 l 394 1217 q 385 1219 393 1220 l 357 1219 q 347 1213 351 1219 l 342 1206 l 340 1194 l 340 1170 z "},"ي":{"ha":1135,"x_min":107,"x_max":1029,"o":"m 474 765 l 346 765 q 280 738 308 765 q 252 673 252 711 l 252 212 q 281 146 252 172 q 346 119 309 119 l 790 119 q 855 146 828 119 q 876 176 868 158 q 884 212 884 194 l 884 395 q 856 461 884 435 q 790 488 828 488 l 606 488 l 606 673 q 625 757 606 716 q 676 830 643 798 q 753 879 709 862 q 842 897 796 896 l 973 897 l 973 765 l 842 765 q 780 739 806 764 q 759 709 767 726 q 751 673 751 693 l 751 620 l 790 620 q 884 601 841 620 q 961 551 926 583 q 1010 480 995 519 q 1020 459 1018 467 q 1025 435 1022 452 q 1029 395 1029 417 l 1029 212 q 1011 127 1029 168 q 959 56 993 86 q 882 7 926 25 q 790 -11 838 -11 l 346 -11 q 252 6 297 -11 q 176 56 206 26 q 124 129 141 90 q 107 212 107 168 l 107 673 q 109 694 107 684 q 112 716 110 705 q 124 757 117 738 q 176 830 142 798 q 254 879 209 862 q 346 897 298 897 l 474 897 l 474 765 z "},"ی":{"ha":1135,"x_min":107,"x_max":1029,"o":"m 474 765 l 346 765 q 280 738 308 765 q 252 673 252 711 l 252 212 q 281 146 252 172 q 346 119 309 119 l 790 119 q 855 146 828 119 q 876 176 868 158 q 884 212 884 194 l 884 395 q 856 461 884 435 q 790 488 828 488 l 606 488 l 606 673 q 625 757 606 716 q 676 830 643 798 q 753 879 709 862 q 842 897 796 896 l 973 897 l 973 765 l 842 765 q 780 739 806 764 q 759 709 767 726 q 751 673 751 693 l 751 620 l 790 620 q 884 601 841 620 q 961 551 926 583 q 1010 480 995 519 q 1020 459 1018 467 q 1025 435 1022 452 q 1029 395 1029 417 l 1029 212 q 1011 127 1029 168 q 959 56 993 86 q 882 7 926 25 q 790 -11 838 -11 l 346 -11 q 252 6 297 -11 q 176 56 206 26 q 124 129 141 90 q 107 212 107 168 l 107 673 q 109 694 107 684 q 112 716 110 705 q 124 757 117 738 q 176 830 142 798 q 254 879 209 862 q 346 897 298 897 l 474 897 l 474 765 z "},"ﯼ":{"ha":1135,"x_min":107,"x_max":1029,"o":"m 474 765 l 346 765 q 280 738 308 765 q 252 673 252 711 l 252 212 q 281 146 252 172 q 346 119 309 119 l 790 119 q 855 146 828 119 q 876 176 868 158 q 884 212 884 194 l 884 395 q 856 461 884 435 q 790 488 828 488 l 606 488 l 606 673 q 625 757 606 716 q 676 830 643 798 q 753 879 709 862 q 842 897 796 896 l 973 897 l 973 765 l 842 765 q 780 739 806 764 q 759 709 767 726 q 751 673 751 693 l 751 620 l 790 620 q 884 601 841 620 q 961 551 926 583 q 1010 480 995 519 q 1020 459 1018 467 q 1025 435 1022 452 q 1029 395 1029 417 l 1029 212 q 1011 127 1029 168 q 959 56 993 86 q 882 7 926 25 q 790 -11 838 -11 l 346 -11 q 252 6 297 -11 q 176 56 206 26 q 124 129 141 90 q 107 212 107 168 l 107 673 q 109 694 107 684 q 112 716 110 705 q 124 757 117 738 q 176 830 142 798 q 254 879 209 862 q 346 897 298 897 l 474 897 l 474 765 z "},"ﻱ":{"ha":1135,"x_min":107,"x_max":1029,"o":"m 474 765 l 346 765 q 280 738 308 765 q 252 673 252 711 l 252 212 q 281 146 252 172 q 346 119 309 119 l 790 119 q 855 146 828 119 q 876 176 868 158 q 884 212 884 194 l 884 395 q 856 461 884 435 q 790 488 828 488 l 606 488 l 606 673 q 625 757 606 716 q 676 830 643 798 q 753 879 709 862 q 842 897 796 896 l 973 897 l 973 765 l 842 765 q 780 739 806 764 q 759 709 767 726 q 751 673 751 693 l 751 620 l 790 620 q 884 601 841 620 q 961 551 926 583 q 1010 480 995 519 q 1020 459 1018 467 q 1025 435 1022 452 q 1029 395 1029 417 l 1029 212 q 1011 127 1029 168 q 959 56 993 86 q 882 7 926 25 q 790 -11 838 -11 l 346 -11 q 252 6 297 -11 q 176 56 206 26 q 124 129 141 90 q 107 212 107 168 l 107 673 q 109 694 107 684 q 112 716 110 705 q 124 757 117 738 q 176 830 142 798 q 254 879 209 862 q 346 897 298 897 l 474 897 l 474 765 z "},"ﯽ":{"ha":1443,"x_min":89,"x_max":1453,"o":"m 455 766 l 328 766 q 260 739 288 766 q 233 674 233 712 l 233 214 q 262 148 233 174 q 293 127 276 134 q 328 121 310 121 l 770 121 q 836 148 808 121 q 865 214 865 173 l 865 674 q 884 760 865 718 q 936 832 903 802 q 1012 881 968 863 q 1104 898 1056 898 q 1197 878 1150 898 q 1276 828 1244 858 q 1324 758 1308 798 q 1334 738 1332 745 q 1339 713 1336 730 q 1343 674 1343 695 l 1343 212 q 1370 147 1343 174 q 1402 127 1384 134 q 1453 120 1420 120 l 1453 -11 q 1343 6 1388 -11 q 1266 56 1297 26 q 1215 129 1232 90 q 1198 212 1198 168 l 1198 674 q 1171 739 1198 713 q 1139 760 1156 753 q 1107 766 1123 766 l 1100 766 q 1038 740 1063 765 q 1017 710 1025 728 q 1009 674 1009 692 l 1009 214 q 990 127 1009 169 q 939 55 972 85 q 863 7 905 25 q 818 -5 840 -1 q 770 -9 797 -9 l 328 -9 q 232 8 277 -9 q 156 58 188 29 q 106 130 123 90 q 89 214 89 170 l 89 674 q 90 695 89 685 q 94 718 92 706 q 106 758 98 739 q 159 833 125 802 q 235 881 192 864 q 328 898 278 898 l 455 898 l 455 766 z "},"ﻲ":{"ha":1443,"x_min":89,"x_max":1453,"o":"m 455 766 l 328 766 q 260 739 288 766 q 233 674 233 712 l 233 214 q 262 148 233 174 q 293 127 276 134 q 328 121 310 121 l 770 121 q 836 148 808 121 q 865 214 865 173 l 865 674 q 884 760 865 718 q 936 832 903 802 q 1012 881 968 863 q 1104 898 1056 898 q 1197 878 1150 898 q 1276 828 1244 858 q 1324 758 1308 798 q 1334 738 1332 745 q 1339 713 1336 730 q 1343 674 1343 695 l 1343 212 q 1370 147 1343 174 q 1402 127 1384 134 q 1453 120 1420 120 l 1453 -11 q 1343 6 1388 -11 q 1266 56 1297 26 q 1215 129 1232 90 q 1198 212 1198 168 l 1198 674 q 1171 739 1198 713 q 1139 760 1156 753 q 1107 766 1123 766 l 1100 766 q 1038 740 1063 765 q 1017 710 1025 728 q 1009 674 1009 692 l 1009 214 q 990 127 1009 169 q 939 55 972 85 q 863 7 905 25 q 818 -5 840 -1 q 770 -9 797 -9 l 328 -9 q 232 8 277 -9 q 156 58 188 29 q 106 130 123 90 q 89 214 89 170 l 89 674 q 90 695 89 685 q 94 718 92 706 q 106 758 98 739 q 159 833 125 802 q 235 881 192 864 q 328 898 278 898 l 455 898 l 455 766 z "},"ﯾ":{"ha":340,"x_min":-7,"x_max":346,"o":"m 249 897 l 249 211 q 230 126 249 168 q 179 54 212 84 q 103 6 147 24 q -7 -12 58 -12 l -7 119 l 14 119 q 75 145 48 120 q 97 175 90 158 q 104 211 104 192 l 104 897 l 249 897 m -7 -103 l 138 -103 l 138 -235 l -7 -235 l -7 -103 m 201 -103 l 346 -103 l 346 -235 l 201 -235 l 201 -103 z "},"ﻳ":{"ha":340,"x_min":-7,"x_max":346,"o":"m 249 897 l 249 211 q 230 126 249 168 q 179 54 212 84 q 103 6 147 24 q -7 -12 58 -12 l -7 119 l 14 119 q 75 145 48 120 q 97 175 90 158 q 104 211 104 192 l 104 897 l 249 897 m -7 -103 l 138 -103 l 138 -235 l -7 -235 l -7 -103 m 201 -103 l 346 -103 l 346 -235 l 201 -235 l 201 -103 z "},"ﯿ":{"ha":431,"x_min":-10,"x_max":439,"o":"m 216 54 q 142 7 184 24 q -10 -11 98 -11 l -10 120 q 115 148 87 120 q 143 212 143 175 l 143 898 l 288 898 l 288 212 q 317 146 288 174 q 346 126 330 132 q 439 120 362 120 l 439 -11 l 406 -11 q 286 7 328 -8 q 216 54 245 26 m 254 -102 l 399 -102 l 399 -233 l 254 -233 l 254 -102 m 32 -102 l 177 -102 l 177 -233 l 32 -233 l 32 -102 z "},"ﻴ":{"ha":431,"x_min":-10,"x_max":439,"o":"m 216 54 q 142 7 184 24 q -10 -11 98 -11 l -10 120 q 115 148 87 120 q 143 212 143 175 l 143 898 l 288 898 l 288 212 q 317 146 288 174 q 346 126 330 132 q 439 120 362 120 l 439 -11 l 406 -11 q 286 7 328 -8 q 216 54 245 26 m 254 -102 l 399 -102 l 399 -233 l 254 -233 l 254 -102 m 32 -102 l 177 -102 l 177 -233 l 32 -233 l 32 -102 z "},"ﻵ":{"ha":866,"x_min":88,"x_max":783,"o":"m 447 985 l 447 120 l 549 120 q 579 127 561 119 q 608 146 597 134 q 637 212 637 172 l 637 1120 l 783 1120 l 783 212 q 765 126 783 168 q 713 54 746 85 q 676 24 694 35 q 636 3 659 12 q 543 -14 595 -14 l 88 -14 l 88 120 l 302 120 l 302 985 l 447 985 m 536 1010 l 182 1010 l 182 1117 l 536 1117 l 536 1010 z "},"ﻶ":{"ha":899,"x_min":92,"x_max":918,"o":"m 570 1011 l 216 1011 l 216 1118 l 570 1118 l 570 1011 m 734 51 q 660 5 699 22 q 566 -13 619 -13 l 92 -13 l 92 121 l 326 121 l 326 972 l 471 972 l 471 121 l 566 121 q 632 146 607 120 q 661 213 661 173 l 661 1121 l 808 1121 l 808 213 q 836 145 808 174 q 899 120 861 121 l 918 120 l 918 -10 q 806 5 852 -13 q 734 51 763 26 z "},"ﻷ":{"ha":871,"x_min":88,"x_max":783,"o":"m 447 856 l 447 120 l 543 120 q 578 127 560 119 q 608 146 597 134 q 637 212 637 172 l 637 1120 l 783 1120 l 783 212 q 765 126 783 168 q 713 54 746 85 q 676 24 694 35 q 636 3 659 12 q 543 -14 595 -14 l 88 -14 l 88 120 l 302 120 l 302 856 l 447 856 m 391 1027 q 398 1010 391 1015 q 409 1006 404 1006 l 502 1006 l 502 922 l 232 922 l 232 1013 l 288 1013 l 288 1095 q 304 1133 288 1117 q 353 1152 326 1152 l 437 1152 q 483 1134 464 1152 q 502 1095 502 1116 l 502 1052 l 446 1052 l 446 1074 q 437 1077 444 1078 l 409 1077 q 399 1071 403 1077 l 393 1063 l 391 1052 l 391 1027 z "},"ﻸ":{"ha":903,"x_min":92,"x_max":918,"o":"m 734 51 q 660 5 699 22 q 566 -13 619 -13 l 92 -13 l 92 121 l 326 121 l 326 836 l 471 836 l 471 121 l 566 121 q 632 146 607 120 q 661 213 661 173 l 661 1121 l 808 1121 l 808 213 q 836 145 808 174 q 899 120 861 121 l 918 120 l 918 -10 q 806 5 852 -13 q 734 51 763 26 m 391 1014 q 398 997 391 1002 q 409 993 404 993 l 502 993 l 502 909 l 232 909 l 232 999 l 288 999 l 288 1081 q 304 1119 288 1103 q 353 1138 326 1138 l 437 1138 q 483 1120 464 1138 q 502 1081 502 1102 l 502 1038 l 446 1038 l 446 1061 q 437 1063 444 1064 l 409 1063 q 399 1057 403 1063 l 393 1050 l 391 1038 l 391 1014 z "},"ﻹ":{"ha":881,"x_min":88,"x_max":783,"o":"m 447 897 l 447 120 l 543 120 q 578 127 560 119 q 608 146 597 134 q 637 212 637 172 l 637 1120 l 783 1120 l 783 212 q 765 126 783 168 q 713 54 746 85 q 676 24 694 35 q 636 3 659 12 q 543 -14 595 -14 l 88 -14 l 88 120 l 302 120 l 302 897 l 447 897 m 366 -212 q 372 -229 366 -224 q 383 -233 378 -233 l 476 -233 l 476 -317 l 206 -317 l 206 -227 l 262 -227 l 262 -145 q 279 -107 262 -123 q 328 -88 300 -88 l 411 -88 q 457 -106 438 -88 q 476 -145 476 -124 l 476 -188 l 420 -188 l 420 -165 q 411 -163 418 -162 l 383 -163 q 373 -169 377 -163 l 368 -176 l 366 -188 l 366 -212 z "},"ﻺ":{"ha":907,"x_min":92,"x_max":918,"o":"m 734 51 q 660 5 699 22 q 566 -13 619 -13 l 92 -13 l 92 121 l 326 121 l 326 958 l 471 958 l 471 121 l 566 121 q 632 146 607 120 q 661 213 661 173 l 661 1121 l 808 1121 l 808 213 q 836 145 808 174 q 899 120 861 121 l 918 120 l 918 -10 q 806 5 852 -13 q 734 51 763 26 m 366 -212 q 372 -229 366 -224 q 383 -233 378 -233 l 476 -233 l 476 -317 l 206 -317 l 206 -227 l 262 -227 l 262 -145 q 279 -107 262 -123 q 328 -88 300 -88 l 411 -88 q 457 -106 438 -88 q 476 -145 476 -124 l 476 -188 l 420 -188 l 420 -165 q 411 -163 418 -162 l 383 -163 q 373 -169 377 -163 l 368 -176 l 366 -188 l 366 -212 z "},"ﻻ":{"ha":869,"x_min":88,"x_max":783,"o":"m 447 958 l 447 120 l 543 120 q 578 127 560 119 q 608 146 597 134 q 637 212 637 172 l 637 1120 l 783 1120 l 783 212 q 765 126 783 168 q 713 54 746 85 q 676 24 694 35 q 636 3 659 12 q 543 -14 595 -14 l 88 -14 l 88 120 l 302 120 l 302 958 l 447 958 z "},"ﻼ":{"ha":903,"x_min":92,"x_max":918,"o":"m 734 51 q 660 5 699 22 q 566 -13 619 -13 l 92 -13 l 92 121 l 326 121 l 326 958 l 471 958 l 471 121 l 566 121 q 632 146 607 120 q 661 213 661 173 l 661 1121 l 808 1121 l 808 213 q 836 145 808 174 q 899 120 861 121 l 918 120 l 918 -10 q 806 5 852 -13 q 734 51 763 26 z "},"ى":{"ha":1135,"x_min":107,"x_max":1029,"o":"m 474 765 l 346 765 q 280 738 308 765 q 252 673 252 711 l 252 212 q 281 146 252 172 q 346 119 309 119 l 790 119 q 855 146 828 119 q 876 176 868 158 q 884 212 884 194 l 884 395 q 856 461 884 435 q 790 488 828 488 l 606 488 l 606 673 q 625 757 606 716 q 676 830 643 798 q 753 879 709 862 q 842 897 796 896 l 973 897 l 973 765 l 842 765 q 780 739 806 764 q 759 709 767 726 q 751 673 751 693 l 751 620 l 790 620 q 884 601 841 620 q 961 551 926 583 q 1010 480 995 519 q 1020 459 1018 467 q 1025 435 1022 452 q 1029 395 1029 417 l 1029 212 q 1011 127 1029 168 q 959 56 993 86 q 882 7 926 25 q 790 -11 838 -11 l 346 -11 q 252 6 297 -11 q 176 56 206 26 q 124 129 141 90 q 107 212 107 168 l 107 673 q 109 694 107 684 q 112 716 110 705 q 124 757 117 738 q 176 830 142 798 q 254 879 209 862 q 346 897 298 897 l 474 897 l 474 765 z "},"ﻯ":{"ha":1135,"x_min":107,"x_max":1029,"o":"m 474 765 l 346 765 q 280 738 308 765 q 252 673 252 711 l 252 212 q 281 146 252 172 q 346 119 309 119 l 790 119 q 855 146 828 119 q 876 176 868 158 q 884 212 884 194 l 884 395 q 856 461 884 435 q 790 488 828 488 l 606 488 l 606 673 q 625 757 606 716 q 676 830 643 798 q 753 879 709 862 q 842 897 796 896 l 973 897 l 973 765 l 842 765 q 780 739 806 764 q 759 709 767 726 q 751 673 751 693 l 751 620 l 790 620 q 884 601 841 620 q 961 551 926 583 q 1010 480 995 519 q 1020 459 1018 467 q 1025 435 1022 452 q 1029 395 1029 417 l 1029 212 q 1011 127 1029 168 q 959 56 993 86 q 882 7 926 25 q 790 -11 838 -11 l 346 -11 q 252 6 297 -11 q 176 56 206 26 q 124 129 141 90 q 107 212 107 168 l 107 673 q 109 694 107 684 q 112 716 110 705 q 124 757 117 738 q 176 830 142 798 q 254 879 209 862 q 346 897 298 897 l 474 897 l 474 765 z "},"ﻰ":{"ha":1443,"x_min":89,"x_max":1453,"o":"m 455 766 l 328 766 q 260 739 288 766 q 233 674 233 712 l 233 214 q 262 148 233 174 q 293 127 276 134 q 328 121 310 121 l 770 121 q 836 148 808 121 q 865 214 865 173 l 865 674 q 884 760 865 718 q 936 832 903 802 q 1012 881 968 863 q 1104 898 1056 898 q 1197 878 1150 898 q 1276 828 1244 858 q 1324 758 1308 798 q 1334 738 1332 745 q 1339 713 1336 730 q 1343 674 1343 695 l 1343 212 q 1370 147 1343 174 q 1402 127 1384 134 q 1453 120 1420 120 l 1453 -11 q 1343 6 1388 -11 q 1266 56 1297 26 q 1215 129 1232 90 q 1198 212 1198 168 l 1198 674 q 1171 739 1198 713 q 1139 760 1156 753 q 1107 766 1123 766 l 1100 766 q 1038 740 1063 765 q 1017 710 1025 728 q 1009 674 1009 692 l 1009 214 q 990 127 1009 169 q 939 55 972 85 q 863 7 905 25 q 818 -5 840 -1 q 770 -9 797 -9 l 328 -9 q 232 8 277 -9 q 156 58 188 29 q 106 130 123 90 q 89 214 89 170 l 89 674 q 90 695 89 685 q 94 718 92 706 q 106 758 98 739 q 159 833 125 802 q 235 881 192 864 q 328 898 278 898 l 455 898 l 455 766 z "},"ﷲ":{"ha":1740,"x_min":-16,"x_max":1563,"o":"m 152 740 q 123 672 123 713 l 123 212 q 151 148 123 175 q 215 120 179 120 l 661 120 q 695 125 682 120 q 725 146 709 131 q 746 176 738 157 q 754 212 754 195 l 754 672 q 726 739 754 713 q 661 765 699 765 l 215 765 q 181 759 197 765 q 152 740 164 753 m 832 52 q 761 7 803 24 q 668 -12 715 -12 l 222 -12 q 131 5 173 -12 q 91 25 109 14 q 52 55 72 36 q 3 129 21 87 q -16 212 -16 170 l -16 672 q 1 758 -16 718 q 51 827 18 798 q 131 877 84 857 q 222 897 177 897 l 668 897 q 759 879 715 897 q 836 831 803 862 q 887 760 869 801 q 905 672 905 719 l 905 212 q 913 176 905 194 q 935 146 922 157 q 976 119 962 120 l 976 120 q 1058 146 1032 120 q 1079 176 1071 157 q 1087 212 1087 194 l 1087 1120 l 1232 1120 l 1232 212 q 1263 146 1232 172 q 1322 120 1287 121 l 1325 120 q 1359 128 1342 121 q 1387 145 1377 134 q 1416 212 1416 172 l 1416 1120 l 1563 1120 l 1563 212 q 1544 126 1563 168 q 1493 55 1526 85 q 1416 5 1460 24 q 1320 -13 1371 -13 q 1276 -7 1297 -10 q 1234 3 1255 -3 q 1159 50 1187 24 q 1125 24 1141 33 q 1086 3 1109 14 q 1042 -7 1062 -3 q 1001 -13 1022 -10 q 908 5 951 -13 q 832 52 866 21 z "},"·":{"ha":275,"x_min":41,"x_max":238,"o":"m 238 521 q 210 457 238 484 q 139 429 182 429 q 68 457 96 429 q 41 521 41 485 q 68 585 41 557 q 138 613 95 613 q 210 586 182 613 q 238 521 238 558 z "},"˙":{"ha":275,"x_min":41,"x_max":238,"o":"m 238 521 q 210 457 238 484 q 139 429 182 429 q 68 457 96 429 q 41 521 41 485 q 68 585 41 557 q 138 613 95 613 q 210 586 182 613 q 238 521 238 558 z "},"∙":{"ha":275,"x_min":41,"x_max":238,"o":"m 238 521 q 210 457 238 484 q 139 429 182 429 q 68 457 96 429 q 41 521 41 485 q 68 585 41 557 q 138 613 95 613 q 210 586 182 613 q 238 521 238 558 z "},"﴾":{"ha":770,"x_min":37,"x_max":729,"o":"m 729 -415 q 713 -425 729 -425 q 557 -323 661 -425 q 345 16 421 -190 q 203 53 203 18 q 296 204 296 151 q 205 154 254 204 q 150 104 157 104 q 113 215 124 104 q 37 279 37 252 q 109 353 37 311 q 142 458 116 458 q 296 361 245 361 q 243 460 291 413 q 195 513 195 507 q 236 536 195 524 q 340 553 283 551 q 473 816 389 700 q 611 964 537 906 q 694 1011 670 1011 q 708 996 708 1011 q 659 934 708 989 q 559 793 597 865 q 478 546 498 682 q 546 515 546 535 q 450 366 450 419 q 596 465 499 366 q 621 429 608 465 q 636 354 634 393 q 708 286 708 317 q 640 221 708 261 q 603 113 635 113 l 557 157 q 453 208 510 203 q 503 111 453 160 q 553 54 553 62 q 479 24 553 39 q 568 -204 501 -87 q 715 -392 635 -322 q 729 -415 729 -404 m 461 283 q 435 345 461 319 q 374 371 410 371 q 312 345 337 371 q 286 283 286 319 q 312 223 286 248 q 374 199 337 199 q 435 223 410 199 q 461 283 461 248 z "},"﴿":{"ha":770,"x_min":40,"x_max":732,"o":"m 732 307 q 661 233 732 275 q 628 127 654 127 q 473 225 524 225 q 527 126 479 173 q 575 74 575 80 q 534 50 575 63 q 429 33 487 35 q 297 -230 380 -114 q 159 -378 233 -320 q 75 -425 100 -425 q 61 -411 61 -425 q 111 -349 61 -404 q 211 -208 172 -279 q 292 40 271 -96 q 224 71 224 52 q 319 221 319 168 q 174 121 270 221 q 148 156 161 121 q 134 232 136 192 q 61 300 61 270 q 129 366 61 326 q 167 473 136 473 l 213 429 q 317 378 260 383 q 267 475 317 427 q 216 532 216 524 q 290 562 216 547 q 202 791 269 673 q 54 978 135 908 q 40 1000 40 990 q 57 1011 40 1011 q 212 909 109 1011 q 425 571 349 776 q 567 533 567 569 q 473 382 473 435 q 564 432 515 382 q 619 482 613 482 q 657 371 645 482 q 732 307 732 334 m 484 302 q 458 362 484 338 q 396 387 432 387 q 334 362 360 387 q 309 302 309 338 q 334 241 309 267 q 396 215 360 215 q 458 241 432 215 q 484 302 484 267 z "},"©":{"ha":1232,"x_min":34,"x_max":1198,"o":"m 500 1279 l 501 1279 l 503 1278 l 503 1136 l 503 1136 q 662 1182 568 1182 q 896 1110 781 1182 q 962 1061 925 1092 q 1009 1012 998 1025 q 1021 997 1021 998 l 1021 996 q 970 1046 1020 996 q 904 1098 930 1082 q 838 1134 872 1119 q 667 1172 752 1172 q 503 1121 566 1172 l 503 1047 l 503 762 q 561 692 526 732 q 673 581 617 631 l 758 501 l 758 501 q 779 504 769 504 q 838 484 802 504 q 868 475 858 475 q 884 485 879 475 l 884 489 q 783 609 884 514 q 675 709 716 672 q 587 793 642 738 q 536 854 545 838 q 520 897 520 878 q 553 937 520 926 q 564 938 559 938 q 608 923 579 938 q 634 916 623 916 l 637 916 q 684 943 654 916 l 739 994 q 777 998 745 995 l 777 998 q 779 997 779 998 q 763 981 779 995 l 690 913 q 665 873 665 886 q 667 870 665 871 l 669 870 q 707 890 683 871 q 787 963 721 901 q 825 968 820 968 q 827 967 827 968 l 827 966 q 741 887 825 963 q 702 829 702 850 l 702 828 l 703 828 q 727 833 711 831 q 778 895 765 855 q 783 904 781 904 q 808 914 788 909 l 812 915 l 812 915 q 814 913 814 915 q 805 869 805 888 l 805 863 l 806 850 l 806 850 q 847 867 832 854 q 871 890 848 867 q 947 918 905 918 q 1036 878 995 918 l 1036 878 l 1035 878 q 989 907 1009 900 q 953 913 970 913 l 952 913 q 886 886 913 913 q 870 844 870 868 q 879 809 870 827 l 880 808 q 886 819 886 812 q 877 829 886 825 q 871 845 871 834 q 874 854 871 854 q 902 863 897 863 l 903 863 q 907 852 907 863 q 861 784 907 808 q 854 783 857 783 q 841 820 845 783 l 841 826 q 847 857 841 842 l 846 857 q 825 848 840 852 q 807 845 812 845 l 807 844 q 848 758 813 806 q 931 660 865 732 q 996 591 992 595 l 996 590 q 971 586 996 586 l 970 586 q 949 599 959 586 l 837 720 q 766 793 805 755 q 712 819 740 819 q 678 813 703 819 l 675 812 l 673 812 q 667 819 668 812 l 667 821 q 684 861 668 838 l 684 861 l 684 862 q 650 856 664 859 q 637 853 642 853 q 630 861 631 853 l 630 861 q 646 900 630 874 l 649 904 l 649 904 q 626 902 637 902 q 572 922 597 902 q 559 926 564 926 q 547 915 551 926 l 546 909 q 644 781 546 873 q 775 660 673 753 q 855 583 812 626 q 913 495 913 524 q 895 469 913 477 q 880 467 888 467 q 820 490 860 467 q 777 502 793 502 l 774 502 q 760 500 770 502 l 760 500 q 810 444 798 460 q 852 342 852 391 q 825 284 852 303 q 801 278 812 278 q 758 301 776 278 q 755 307 756 304 l 755 307 q 746 275 755 301 q 677 195 724 220 q 602 176 644 176 q 494 228 536 176 q 477 281 479 250 q 477 283 477 283 q 474 312 475 294 l 473 312 l 473 745 q 460 766 473 746 q 405 939 405 856 q 466 1103 405 1032 l 473 1112 l 473 1238 q 478 1249 473 1244 q 499 1278 496 1275 l 500 1279 m 1198 -250 l 1198 -423 l 1197 -424 l 1163 -424 l 1162 -423 l 1162 -306 l 1093 -306 l 1093 -424 l 1092 -424 l 1058 -424 l 1058 -424 l 1058 -250 l 1058 -249 l 1197 -249 l 1198 -250 m 1162 -267 l 1093 -267 l 1093 -288 l 1162 -288 l 1162 -267 m 423 955 q 460 831 423 892 q 473 807 467 817 l 473 1093 q 423 955 423 1031 m 913 1081 l 914 1080 l 914 1078 q 912 1063 912 1072 l 913 1040 q 897 1017 913 1017 l 865 1021 q 863 1017 863 1021 l 863 989 q 850 970 863 975 q 842 969 847 969 q 831 972 831 969 l 831 974 q 833 985 833 981 l 833 985 l 832 1006 q 857 1029 832 1029 l 877 1028 q 882 1033 882 1029 l 882 1061 q 892 1078 882 1073 q 913 1081 905 1081 m 1042 -392 l 1042 -424 l 1041 -425 l 1031 -425 l 1031 -424 l 1031 -397 l 1017 -397 l 1017 -424 l 1017 -425 l 1006 -425 l 1006 -424 l 1006 -397 l 993 -397 l 993 -424 l 992 -425 l 982 -425 l 982 -424 l 982 -392 l 982 -391 l 1041 -391 l 1042 -392 m 1040 -250 l 1040 -288 l 1040 -288 l 1015 -288 l 1014 -289 l 1014 -306 l 1040 -306 l 1040 -306 l 1040 -372 l 1040 -373 l 901 -373 l 900 -372 l 900 -250 l 901 -249 l 1040 -249 l 1040 -250 m 996 -267 l 935 -267 l 935 -288 l 996 -288 l 996 -267 m 996 -306 l 935 -306 l 935 -355 l 996 -355 l 996 -306 m 977 -391 l 977 -423 l 976 -424 l 933 -424 l 932 -423 l 932 -391 l 933 -391 l 976 -391 l 977 -391 m 965 -397 l 944 -397 l 944 -418 l 965 -418 l 965 -397 m 926 -392 l 926 -396 l 925 -397 l 893 -397 l 893 -418 l 925 -418 l 926 -419 l 926 -423 l 925 -424 l 882 -424 l 882 -423 l 882 -392 l 882 -391 l 925 -391 l 926 -392 m 774 870 q 732 833 757 845 l 732 832 l 736 832 q 783 814 760 832 l 783 814 l 783 814 q 773 858 773 833 l 774 870 l 774 870 l 774 870 m 882 -250 l 882 -372 l 882 -373 l 848 -373 l 847 -372 l 847 -306 l 777 -306 l 777 -372 l 777 -373 l 743 -373 l 742 -372 l 742 -250 l 743 -249 l 882 -249 l 882 -250 m 873 -419 l 873 -424 l 873 -425 l 865 -425 l 865 -424 l 865 -419 l 865 -419 l 873 -419 l 873 -419 m 854 -419 l 854 -424 l 854 -425 l 824 -425 l 824 -424 l 824 -392 l 824 -391 l 834 -391 l 835 -392 l 835 -419 l 854 -419 l 854 -419 m 847 -267 l 777 -267 l 777 -288 l 847 -288 l 847 -267 m 728 810 q 730 807 730 810 q 728 800 728 802 l 728 797 q 732 766 728 793 l 732 761 q 721 745 732 749 q 702 741 707 741 q 699 743 699 741 l 699 744 l 700 750 l 700 751 l 695 781 l 695 788 q 727 810 695 805 l 728 810 m 819 -392 l 819 -424 l 818 -425 l 808 -425 l 807 -424 l 807 -392 l 808 -391 l 818 -391 l 819 -392 m 802 -392 l 802 -424 l 802 -425 l 791 -425 l 791 -424 l 791 -410 l 769 -410 l 769 -424 l 769 -425 l 759 -425 l 758 -424 l 758 -392 l 759 -391 l 802 -391 l 802 -392 m 806 728 q 809 726 809 728 q 807 718 807 720 l 807 717 q 810 686 807 711 l 810 680 q 791 661 810 664 l 781 661 q 777 663 777 661 l 779 668 l 779 671 l 774 696 q 774 705 774 700 l 774 705 q 791 725 774 720 q 806 728 802 728 m 791 -397 l 769 -397 l 769 -404 l 791 -404 l 791 -397 m 503 706 l 503 375 l 503 319 q 509 284 503 311 q 522 254 515 263 q 586 205 541 221 q 626 199 607 199 q 719 243 680 199 q 738 276 731 260 q 747 307 747 301 q 749 319 747 307 q 737 382 745 334 q 724 427 730 411 q 722 433 722 430 l 722 435 q 737 459 722 443 q 739 460 739 460 l 740 460 q 755 429 745 460 q 764 390 760 419 q 772 340 768 349 q 808 314 782 314 q 832 321 823 314 q 838 336 838 327 q 730 476 838 376 q 654 547 718 488 q 566 633 623 576 q 549 652 566 634 q 503 706 523 681 m 751 -392 l 751 -424 l 750 -425 l 741 -425 l 740 -424 l 740 -397 l 726 -397 l 726 -424 l 726 -425 l 715 -425 l 715 -424 l 715 -397 l 702 -397 l 702 -424 l 701 -425 l 692 -425 l 691 -424 l 691 -392 l 692 -391 l 750 -391 l 751 -392 m 706 -250 l 706 -266 l 706 -267 l 654 -267 l 654 -372 l 653 -373 l 619 -373 l 618 -372 l 618 -267 l 567 -267 l 566 -266 l 566 -250 l 567 -249 l 706 -249 l 706 -250 m 686 -392 l 686 -397 l 685 -397 l 653 -397 l 653 -419 l 675 -419 l 675 -410 l 661 -410 l 661 -409 l 661 -404 l 661 -404 l 685 -404 l 686 -404 l 686 -424 l 685 -425 l 642 -425 l 642 -424 l 642 -392 l 642 -391 l 685 -391 l 686 -392 m 629 -382 l 629 -412 l 629 -412 l 595 -412 l 595 -412 l 595 -393 l 595 -392 l 618 -392 l 618 -393 l 618 -407 l 624 -407 l 624 -387 l 590 -387 l 590 -418 l 629 -418 l 629 -418 l 629 -423 l 629 -424 l 585 -424 l 585 -423 l 585 -382 l 585 -381 l 629 -381 l 629 -382 m 613 -397 l 601 -397 l 601 -407 l 613 -407 l 613 -397 m 576 -392 l 576 -397 l 576 -397 l 543 -397 l 543 -404 l 576 -404 l 576 -404 l 576 -424 l 576 -425 l 533 -425 l 532 -424 l 532 -392 l 533 -391 l 576 -391 l 576 -392 m 549 -250 l 549 -372 l 548 -373 l 409 -373 l 408 -372 l 408 -356 l 409 -355 l 513 -355 l 513 -267 l 444 -267 l 444 -266 l 444 -250 l 444 -249 l 548 -249 l 549 -250 m 562 -410 l 543 -410 l 543 -419 l 562 -419 l 562 -410 m 527 -392 l 527 -424 l 526 -425 l 484 -425 l 484 -424 l 484 -392 l 484 -391 l 526 -391 l 527 -392 m 516 -397 l 494 -397 l 494 -404 l 516 -404 l 516 -397 m 516 -410 l 494 -410 l 494 -419 l 516 -419 l 516 -410 m 467 -409 l 477 -425 l 465 -425 l 456 -413 l 446 -425 l 435 -425 l 446 -408 l 435 -391 l 447 -391 l 456 -404 l 466 -391 l 479 -391 l 467 -409 m 430 -392 l 430 -424 l 429 -425 l 419 -425 l 419 -424 l 419 -392 l 419 -391 l 429 -391 l 430 -392 m 412 -391 l 412 -423 l 411 -424 l 368 -424 l 368 -423 l 368 -418 l 368 -418 l 400 -418 l 400 -397 l 379 -397 l 378 -396 l 378 -391 l 379 -391 l 411 -391 l 412 -391 m 391 -250 l 391 -372 l 390 -373 l 251 -373 l 251 -372 l 251 -250 l 251 -249 l 390 -249 l 391 -250 m 355 -267 l 286 -267 l 286 -355 l 355 -355 l 355 -267 m 361 -392 l 361 -424 l 361 -424 l 319 -424 l 318 -424 l 318 -392 l 319 -391 l 361 -391 l 361 -392 m 351 -397 l 330 -397 l 330 -418 l 351 -418 l 351 -397 m 311 -392 l 311 -424 l 310 -424 l 300 -424 l 300 -424 l 300 -397 l 286 -397 l 286 -424 l 286 -424 l 275 -424 l 275 -424 l 275 -397 l 262 -397 l 262 -424 l 261 -424 l 252 -424 l 251 -424 l 251 -392 l 252 -391 l 310 -391 l 311 -392 m 607 120 q 618 106 612 120 q 659 65 618 102 q 705 12 701 32 l 706 3 q 680 -35 706 -16 l 635 -73 q 632 -79 632 -76 q 650 -99 632 -85 q 696 -142 688 -133 q 707 -174 707 -157 q 673 -224 707 -199 l 669 -226 q 654 -208 663 -226 q 627 -182 642 -192 q 586 -138 591 -155 q 583 -122 583 -131 l 583 -120 q 627 -55 583 -94 q 644 -33 644 -38 l 644 -32 q 625 -9 644 -26 l 584 28 q 570 60 570 43 q 587 97 570 77 q 606 119 600 115 l 607 120 m 226 -250 l 226 -423 l 226 -424 l 192 -424 l 191 -423 l 191 -267 l 147 -267 l 147 -424 l 113 -424 l 112 -423 l 112 -267 l 69 -267 l 69 -423 l 68 -424 l 35 -424 l 34 -424 l 34 -250 l 35 -249 l 226 -249 l 226 -250 z "}}}
